<svg xmlns="http://www.w3.org/2000/svg" xmlns:xlink="http://www.w3.org/1999/xlink" width="323.51" height="56.877" viewBox="0 0 323.51 56.877">
  <defs>
    <clipPath id="clip-path">
      <rect id="Rectángulo_402523" data-name="Rectángulo 402523" width="323.51" height="56.877" fill="none"/>
    </clipPath>
  </defs>
  <g id="Grupo_1102063" data-name="Grupo 1102063" transform="translate(-375.456 -1117.585)">
    <g id="Grupo_1102025" data-name="Grupo 1102025" transform="translate(375.456 1117.585)">
      <g id="Grupo_1102024" data-name="Grupo 1102024" clip-path="url(#clip-path)">
        <path id="Trazado_893252" data-name="Trazado 893252" d="M9.078,43.449v.023a1.16,1.16,0,0,0-.029.221.744.744,0,0,0,.53.7,4.474,4.474,0,0,0,1.651.227,3.8,3.8,0,0,0,1.331-.187c.323-.124.484-.3.484-.513,0-.33-.638-.6-1.908-.8-.149-.024-.261-.043-.332-.053s-.2-.035-.357-.059a11.658,11.658,0,0,1-3.89-1.075,1.982,1.982,0,0,1-.637-.668,1.8,1.8,0,0,1-.211-.866,1.961,1.961,0,0,1,1.391-1.8,10.418,10.418,0,0,1,4.072-.619,10,10,0,0,1,3.923.579,1.9,1.9,0,0,1,1.276,1.787v.093H13.027V40.39c0-.278-.168-.484-.506-.627a4,4,0,0,0-1.487-.215,3.5,3.5,0,0,0-1.171.152c-.276.1-.414.246-.414.433,0,.335.73.617,2.187.854l.66.1q1.558.26,2.218.449a5.725,5.725,0,0,1,1.14.442,2.238,2.238,0,0,1,.825.738,1.751,1.751,0,0,1,.29.976q0,1.222-1.515,1.878a11.36,11.36,0,0,1-4.362.658A9.675,9.675,0,0,1,6.818,45.6a2.117,2.117,0,0,1-1.256-2.028v-.119Zm9.16,2.645V38.088h9.53v1.726H21.816v1.274h5.5v1.7h-5.5v1.554h6.178v1.747Zm11.251,0V38.088h4.529l4.848,5.371V38.088H42.3v8.005h-4.7L32.916,40.7v5.389ZM51.55,42.9l-1.713-2.91L48.026,42.9ZM46.1,46.093H42.508l5.541-8.005h3.97L57.3,46.093H53.319l-.807-1.445H46.96Z" transform="translate(-3.51 -23.958)" fill="#39a935" fill-rule="evenodd"/>
        <path id="Trazado_893253" data-name="Trazado 893253" d="M10.594,91.68,7.4,88.674,17.13,71.783a1.382,1.382,0,0,0-1.2-2.072H0V65.486H25.644Z" transform="translate(0 -41.321)" fill="#39a935" fill-rule="evenodd"/>
        <path id="Trazado_893254" data-name="Trazado 893254" d="M96.9,91.68l3.2-3.006L90.364,71.783a1.382,1.382,0,0,1,1.2-2.072h15.933V65.486H81.849Z" transform="translate(-51.646 -41.321)" fill="#39a935" fill-rule="evenodd"/>
        <path id="Trazado_893255" data-name="Trazado 893255" d="M51.041,77.486l.035-.06,14.45,23.885-3.838,2L52.377,87.713a1.41,1.41,0,0,0-2.425,0L40.7,103.308l-3.756-1.858,14.1-23.964" transform="translate(-23.312 -48.855)" fill="#39a935" fill-rule="evenodd"/>
        <path id="Trazado_893256" data-name="Trazado 893256" d="M71.441,5.961A5.96,5.96,0,1,1,65.481,0a5.96,5.96,0,0,1,5.96,5.96" transform="translate(-37.558 -0.001)" fill="#39a935"/>
        <line id="Línea_623" data-name="Línea 623" y2="56.172" transform="translate(81.526 0.705)" fill="none" stroke="#9b9a9a" stroke-miterlimit="10" stroke-width="2.949"/>
        <path id="Trazado_893257" data-name="Trazado 893257" d="M469.134,27.351h-6.616l-.832,3.63h5.463l-.4,1.739h-5.463l-1.248,5.369H458l2.892-12.476h8.658Z" transform="translate(-288.996 -16.161)" fill="#6fc5de"/>
        <path id="Trazado_893258" data-name="Trazado 893258" d="M497.582,37.954a5.654,5.654,0,0,1-2.665-.633,4.746,4.746,0,0,1-1.928-1.872,5.83,5.83,0,0,1-.718-2.977,8.964,8.964,0,0,1,.435-2.817,7.475,7.475,0,0,1,1.248-2.344,5.821,5.821,0,0,1,2.032-1.616,6.274,6.274,0,0,1,2.789-.6,5.429,5.429,0,0,1,2.637.643A4.835,4.835,0,0,1,503.3,27.6a5.835,5.835,0,0,1,.709,2.977,9.387,9.387,0,0,1-.416,2.807,7.067,7.067,0,0,1-1.238,2.353,5.967,5.967,0,0,1-2.022,1.617,6.114,6.114,0,0,1-2.751.6m.152-1.777a3.412,3.412,0,0,0,1.824-.482,4.191,4.191,0,0,0,1.314-1.285,6.076,6.076,0,0,0,.794-1.806,7.888,7.888,0,0,0,.265-2.023,4.447,4.447,0,0,0-.416-2,2.952,2.952,0,0,0-1.163-1.266,3.416,3.416,0,0,0-1.749-.435,3.463,3.463,0,0,0-1.834.482,4.248,4.248,0,0,0-1.332,1.285,5.946,5.946,0,0,0-.8,1.8,7.84,7.84,0,0,0-.265,2.032,4.439,4.439,0,0,0,.416,2,2.925,2.925,0,0,0,1.172,1.266,3.5,3.5,0,0,0,1.777.435" transform="translate(-310.62 -15.838)" fill="#6fc5de"/>
        <path id="Trazado_893259" data-name="Trazado 893259" d="M530.64,38.089l2.892-12.476h2.306l2.854,7.883.737,2.363h.019l.435-2.193,1.872-8.053h1.871l-2.892,12.476h-2.287l-2.911-7.864-.718-2.344H534.8l-.416,2.155-1.871,8.053Z" transform="translate(-334.832 -16.161)" fill="#6fc5de"/>
        <path id="Trazado_893260" data-name="Trazado 893260" d="M570.291,38.088l2.892-12.476h3.856a5.656,5.656,0,0,1,2.807.652,4.42,4.42,0,0,1,1.777,1.806,5.546,5.546,0,0,1,.614,2.646,8.465,8.465,0,0,1-.492,2.93,6.916,6.916,0,0,1-1.418,2.344,6.362,6.362,0,0,1-2.221,1.55,7.319,7.319,0,0,1-2.883.548Zm2.438-1.72h2.628a4.342,4.342,0,0,0,2-.454,4.417,4.417,0,0,0,1.493-1.228,5.73,5.73,0,0,0,.926-1.758,6.532,6.532,0,0,0,.321-2.041,4.422,4.422,0,0,0-.359-1.824,2.843,2.843,0,0,0-1.087-1.267,3.415,3.415,0,0,0-1.862-.463h-1.966Z" transform="translate(-359.851 -16.161)" fill="#6fc5de"/>
        <path id="Trazado_893261" data-name="Trazado 893261" d="M616.43,37.954a5.654,5.654,0,0,1-2.665-.633,4.744,4.744,0,0,1-1.928-1.872,5.834,5.834,0,0,1-.718-2.977,8.954,8.954,0,0,1,.435-2.817,7.459,7.459,0,0,1,1.248-2.344,5.817,5.817,0,0,1,2.032-1.616,6.271,6.271,0,0,1,2.788-.6,5.429,5.429,0,0,1,2.637.643,4.835,4.835,0,0,1,1.89,1.862,5.835,5.835,0,0,1,.709,2.977,9.388,9.388,0,0,1-.416,2.807,7.068,7.068,0,0,1-1.238,2.353,5.967,5.967,0,0,1-2.023,1.617,6.115,6.115,0,0,1-2.751.6m.151-1.777a3.413,3.413,0,0,0,1.824-.482,4.191,4.191,0,0,0,1.314-1.285,6.075,6.075,0,0,0,.794-1.806,7.888,7.888,0,0,0,.265-2.023,4.447,4.447,0,0,0-.416-2,2.953,2.953,0,0,0-1.163-1.266,3.415,3.415,0,0,0-1.748-.435,3.463,3.463,0,0,0-1.834.482,4.248,4.248,0,0,0-1.332,1.285,5.946,5.946,0,0,0-.8,1.8,7.84,7.84,0,0,0-.265,2.032,4.439,4.439,0,0,0,.416,2,2.925,2.925,0,0,0,1.172,1.266,3.5,3.5,0,0,0,1.777.435" transform="translate(-385.613 -15.838)" fill="#6fc5de"/>
        <path id="Trazado_893262" data-name="Trazado 893262" d="M447.32,86.836l3.837-16.552h13.417l-.878,3.837h-8.3l-.627,2.684h6.546l-.8,3.561h-6.546l-.6,2.634h8.477l-.9,3.837Z" transform="translate(-282.257 -44.349)" fill="#23325d"/>
        <path id="Trazado_893263" data-name="Trazado 893263" d="M489.865,86.836,493.7,70.284h6.37l.652,7.223.151,4.163h.025l2.031-4.163,3.787-7.223h7.223L510.1,86.836h-4.489l1.53-6.621,1.179-5.041H508.3l-6.345,11.662h-3.887l-1.2-11.537h-.05l-.9,4.915-1.53,6.621Z" transform="translate(-309.103 -44.349)" fill="#23325d"/>
        <path id="Trazado_893264" data-name="Trazado 893264" d="M552.866,86.836,556.7,70.284h6.721a7.947,7.947,0,0,1,4.9,1.342,4.49,4.49,0,0,1,1.768,3.8,6.089,6.089,0,0,1-.89,3.286,5.994,5.994,0,0,1-2.546,2.232,8.943,8.943,0,0,1-3.937.8h-5.969l.828-3.711H562.4a2.962,2.962,0,0,0,1.43-.314,2.338,2.338,0,0,0,.89-.815,2.085,2.085,0,0,0,.313-1.128,1.692,1.692,0,0,0-.514-1.3A2.455,2.455,0,0,0,562.823,74h-1.856l-2.959,12.841Z" transform="translate(-348.856 -44.349)" fill="#23325d"/>
        <path id="Trazado_893265" data-name="Trazado 893265" d="M599.285,86.836l3.837-16.552h7.7a6.479,6.479,0,0,1,4.213,1.266,4.293,4.293,0,0,1,1.555,3.524,5.606,5.606,0,0,1-.9,3.248,5.7,5.7,0,0,1-2.47,2.006,9.131,9.131,0,0,1-3.6.715l-.828.251h-3.536l.778-3.486h2.859a3.386,3.386,0,0,0,1.442-.276,2.18,2.18,0,0,0,.915-.765,2.009,2.009,0,0,0,.326-1.141A1.357,1.357,0,0,0,611,74.4a2.613,2.613,0,0,0-1.455-.376h-2.257l-2.959,12.816Zm10.784,0-2.683-7.223,4.564-.727,3.235,7.95Z" transform="translate(-378.146 -44.349)" fill="#23325d"/>
        <path id="Trazado_893266" data-name="Trazado 893266" d="M646.248,86.836l3.837-16.552H663.5l-.878,3.837h-8.3L653.7,76.8h6.546l-.8,3.561h-6.546l-.6,2.634h8.476l-.9,3.837Z" transform="translate(-407.78 -44.349)" fill="#23325d"/>
        <path id="Trazado_893267" data-name="Trazado 893267" d="M688.793,86.836l3.837-16.552h5.392l2.583,8.4.677,2.508h.05l.727-3.737,1.655-7.173H708.2l-3.837,16.552H699.05l-2.683-8.2-.7-2.508h-.05l-.677,3.536-1.655,7.173Z" transform="translate(-434.626 -44.349)" fill="#23325d"/>
        <path id="Trazado_893268" data-name="Trazado 893268" d="M739.155,86.835l3.837-16.552h6.22a8.711,8.711,0,0,1,4.063.853,5.76,5.76,0,0,1,2.458,2.37,7.3,7.3,0,0,1,.828,3.549,12.409,12.409,0,0,1-.614,4.013,8.372,8.372,0,0,1-1.818,3.085,8.249,8.249,0,0,1-2.909,1.981,10.2,10.2,0,0,1-3.912.7Zm6.019-3.737h1.856A3.567,3.567,0,0,0,749,82.559a4.232,4.232,0,0,0,1.367-1.43,7.161,7.161,0,0,0,.79-1.982,9.207,9.207,0,0,0,.263-2.169,3.846,3.846,0,0,0-.3-1.593,2.19,2.19,0,0,0-.9-1.016,3.062,3.062,0,0,0-1.555-.351h-1.4Z" transform="translate(-466.404 -44.348)" fill="#23325d"/>
        <path id="Trazado_893269" data-name="Trazado 893269" d="M787.272,86.836l3.837-16.552h13.417l-.878,3.837h-8.3L794.72,76.8h6.546l-.8,3.561h-6.545l-.6,2.634h8.476l-.9,3.837Z" transform="translate(-496.766 -44.349)" fill="#23325d"/>
        <path id="Trazado_893270" data-name="Trazado 893270" d="M829.818,86.836l3.837-16.552h7.7a6.479,6.479,0,0,1,4.213,1.266,4.293,4.293,0,0,1,1.555,3.524,5.606,5.606,0,0,1-.9,3.248,5.7,5.7,0,0,1-2.47,2.006,9.131,9.131,0,0,1-3.6.715l-.828.251h-3.536l.778-3.486h2.859a3.386,3.386,0,0,0,1.442-.276,2.181,2.181,0,0,0,.915-.765,2.009,2.009,0,0,0,.326-1.141,1.357,1.357,0,0,0-.577-1.229,2.613,2.613,0,0,0-1.455-.376h-2.257l-2.959,12.816Zm10.784,0-2.683-7.223,4.564-.727,3.235,7.95Z" transform="translate(-523.612 -44.349)" fill="#23325d"/>
        <path id="Trazado_893271" data-name="Trazado 893271" d="M293.6,15.5l35.759-.11s5.869-.1,6.536,4.9c.256,5.178-5.742,4.793-5.742,4.793s-36.216-5.092-37.245-5.255-4.358-1.128-4.178-2.615c.589-1.538,4.87-1.717,4.87-1.717" transform="translate(-182.186 -9.71)" fill="#23325d"/>
        <path id="Trazado_893272" data-name="Trazado 893272" d="M288.583,37.051s-.206-1.942,5.77-.728c.43.093,35.792,8.394,35.946,8.422,8.688,2.719,6.458,12.491-1.737,8.982-.461-.2-26.889-9.934-26.889-9.934s0,5.9-.038,5.527c.392,5.863-11.11-2.073-13.071-5.658,0-.28.019-6.61.019-6.61" transform="translate(-182.083 -22.668)" fill="#9cc222"/>
        <path id="Trazado_893273" data-name="Trazado 893273" d="M346.006,80.965c-1.846-.8-4.048-1.461-5.1.158-1.073,1.655,2.308,5.268,4.013,6.284.3.211,16.809,10.314,16.809,10.314s5.544,3.52,6.794-.176c.965-4.417-4.719-8.321-5.421-8.625-.3-.13-15.245-7.151-17.091-7.956" transform="translate(-214.977 -50.559)" fill="#6fc5de"/>
      </g>
    </g>
  </g>
</svg>
