<svg xmlns="http://www.w3.org/2000/svg" xmlns:xlink="http://www.w3.org/1999/xlink" width="295" height="246" viewBox="0 0 295 246">
  <defs>
    <clipPath id="clip-path">
      <rect id="Rectángulo_402432" data-name="Rectángulo 402432" width="243.138" height="239.588" fill="none"/>
    </clipPath>
    <clipPath id="clip-path-3">
      <rect id="Rectángulo_402421" data-name="Rectángulo 402421" width="86.867" height="35.735" fill="none"/>
    </clipPath>
    <clipPath id="clip-path-4">
      <rect id="Rectángulo_402422" data-name="Rectángulo 402422" width="63.042" height="30.683" fill="none"/>
    </clipPath>
    <clipPath id="clip-path-5">
      <rect id="Rectángulo_402423" data-name="Rectángulo 402423" width="20.692" height="17.845" fill="none"/>
    </clipPath>
    <clipPath id="clip-path-6">
      <rect id="Rectángulo_402424" data-name="Rectángulo 402424" width="9.319" height="2.252" fill="none"/>
    </clipPath>
    <clipPath id="clip-path-7">
      <rect id="Rectángulo_402425" data-name="Rectángulo 402425" width="32.621" height="11.508" fill="none"/>
    </clipPath>
    <clipPath id="clip-path-8">
      <rect id="Rectángulo_402428" data-name="Rectángulo 402428" width="4.054" height="42.193" fill="none"/>
    </clipPath>
  </defs>
  <g id="Grupo_1102061" data-name="Grupo 1102061" transform="translate(-600 -414)">
    <path id="Trazado_876484" data-name="Trazado 876484" d="M0,0H295V246H0Z" transform="translate(600 414)" fill="#b8dcf3"/>
    <g id="Grupo_1101974" data-name="Grupo 1101974" transform="translate(625.931 420.284)">
      <g id="Grupo_1101973" data-name="Grupo 1101973" clip-path="url(#clip-path)">
        <g id="Grupo_1101972" data-name="Grupo 1101972">
          <g id="Grupo_1101971" data-name="Grupo 1101971" clip-path="url(#clip-path)">
            <path id="Trazado_892974" data-name="Trazado 892974" d="M109.492,110.681c-.25-9.529-1.621-54.19-1.64-54.189C54.611,58.458,14.2,68.054,14.2,79.6c0,9.034,25.192,41.409,61.052,34.594v-1.148c10.547-1.141,22.068-1.948,34.237-2.36" transform="translate(-7.107 -28.267)" fill="#bca492"/>
            <g id="Grupo_1101955" data-name="Grupo 1101955" transform="translate(14.848 51.123)" opacity="0.15">
              <g id="Grupo_1101954" data-name="Grupo 1101954">
                <g id="Grupo_1101953" data-name="Grupo 1101953" clip-path="url(#clip-path-3)">
                  <path id="Trazado_892975" data-name="Trazado 892975" d="M83.018,137.122v-1.148c10.351-1.119,21.647-1.916,33.567-2.334-.453-15.01-.958-31.318-.969-31.318-39.365,1.454-71.709,7.079-85.9,14.577,10.091,11.8,29.307,24.783,53.3,20.223" transform="translate(-29.718 -102.322)" fill="#29292c"/>
                </g>
              </g>
            </g>
            <path id="Trazado_892976" data-name="Trazado 892976" d="M141.535,71.089H110.817a1.253,1.253,0,0,1-1.253-1.253v-38.4a1.253,1.253,0,0,1,1.253-1.253h30.718a1.253,1.253,0,0,1,1.253,1.253v38.4a1.253,1.253,0,0,1-1.253,1.253" transform="translate(-54.823 -15.101)" fill="#090909"/>
            <path id="Trazado_892977" data-name="Trazado 892977" d="M150.828,46.006V39.7a6.31,6.31,0,1,0,6.31,6.31Z" transform="translate(-72.313 -19.863)" fill="#f8eee2"/>
            <path id="Trazado_892978" data-name="Trazado 892978" d="M164.931,43.536a5.392,5.392,0,0,0-5.392-5.392v5.392Z" transform="translate(-79.829 -19.086)" fill="#87b6f9"/>
            <path id="Trazado_892979" data-name="Trazado 892979" d="M127.781,42.583H117.653a.25.25,0,1,1,0-.5h10.128a.25.25,0,0,1,0,.5" transform="translate(-58.745 -21.057)" fill="#f8eee2"/>
            <path id="Trazado_892980" data-name="Trazado 892980" d="M151.479,99.518h-8.452a.25.25,0,1,1,0-.5h8.452a.25.25,0,1,1,0,.5" transform="translate(-71.442 -49.546)" fill="#f8eee2"/>
            <path id="Trazado_892981" data-name="Trazado 892981" d="M126.736,54.98h-9.083a.25.25,0,1,1,0-.5h9.083a.25.25,0,1,1,0,.5" transform="translate(-58.745 -27.26)" fill="#f8eee2"/>
            <path id="Trazado_892982" data-name="Trazado 892982" d="M129.262,64.956H117.653a.25.25,0,1,1,0-.5h11.609a.25.25,0,0,1,0,.5" transform="translate(-58.745 -32.252)" fill="#f8eee2"/>
            <path id="Trazado_892983" data-name="Trazado 892983" d="M138.782,75.032h-21.13a.25.25,0,1,1,0-.5h21.13a.25.25,0,1,1,0,.5" transform="translate(-58.745 -37.294)" fill="#f8eee2"/>
            <path id="Trazado_892984" data-name="Trazado 892984" d="M138.782,85.923h-21.13a.25.25,0,1,1,0-.5h21.13a.25.25,0,1,1,0,.5" transform="translate(-58.745 -42.743)" fill="#f8eee2"/>
            <path id="Trazado_892985" data-name="Trazado 892985" d="M74.1,103.443a.749.749,0,0,1-.519-1.29L97.321,79.4a.957.957,0,0,1,1.449.146l4.978,7.2,18.47-23.718a.957.957,0,0,1,1.651.252l3.123,8.321,17.561-21.582a.75.75,0,1,1,1.163.947L127.559,73.283a.957.957,0,0,1-1.638-.269l-3.114-8.3L104.478,88.253a.983.983,0,0,1-.782.369.962.962,0,0,1-.76-.413L97.9,80.921,74.617,103.235a.746.746,0,0,1-.519.208" transform="translate(-36.702 -24.892)" fill="#5669ae"/>
            <path id="Trazado_892986" data-name="Trazado 892986" d="M211.432,54.91a.684.684,0,0,1-.09-.005.748.748,0,0,1-.655-.833l.653-5.457-5.29,1.735a.75.75,0,1,1-.467-1.424l6.1-2a.956.956,0,0,1,1.248,1.023l-.754,6.3a.749.749,0,0,1-.743.661" transform="translate(-102.61 -23.456)" fill="#5669ae"/>
            <path id="Trazado_892987" data-name="Trazado 892987" d="M106.414,105.539H86.171a1.379,1.379,0,0,1-1.379-1.38V86.487a1.379,1.379,0,0,1,1.379-1.379h20.242a1.38,1.38,0,0,1,1.38,1.379v17.672a1.38,1.38,0,0,1-1.38,1.38" transform="translate(-42.428 -42.586)" fill="#5669ae"/>
            <path id="Trazado_892988" data-name="Trazado 892988" d="M106.163,105.539H85.921a1.632,1.632,0,0,1-1.63-1.629V86.238a1.632,1.632,0,0,1,1.63-1.63h20.242a1.631,1.631,0,0,1,1.629,1.63V103.91a1.631,1.631,0,0,1-1.629,1.629M85.921,85.108a1.132,1.132,0,0,0-1.13,1.13V103.91a1.131,1.131,0,0,0,1.13,1.13h20.242a1.131,1.131,0,0,0,1.13-1.13V86.238a1.131,1.131,0,0,0-1.13-1.13Z" transform="translate(-42.177 -42.336)" fill="#5669ae"/>
            <path id="Trazado_892989" data-name="Trazado 892989" d="M107.232,104.467H94.077a.757.757,0,0,1-.757-.757V94.835a.757.757,0,0,1,.757-.756h13.155a.757.757,0,0,1,.756.756v8.875a.757.757,0,0,1-.756.757" transform="translate(-46.695 -47.075)" fill="#f8eee2"/>
            <path id="Trazado_892990" data-name="Trazado 892990" d="M93.071,109.612a.25.25,0,0,1-.16-.441l7.145-5.98a.249.249,0,0,1,.317,0l7.335,5.911a.25.25,0,0,1-.314.389l-7.175-5.782-6.988,5.848a.246.246,0,0,1-.16.058" transform="translate(-46.445 -51.605)" fill="#5669ae"/>
            <path id="Trazado_892991" data-name="Trazado 892991" d="M93.32,94.486l5.512,4.387a2.76,2.76,0,0,0,3.449-.008l5.519-4.437" transform="translate(-46.695 -47.249)" fill="#f8eee2"/>
            <path id="Trazado_892992" data-name="Trazado 892992" d="M100.3,99.478a3,3,0,0,1-1.875-.66l-5.512-4.388a.25.25,0,1,1,.311-.391l5.512,4.387a2.5,2.5,0,0,0,3.137-.007l5.518-4.437a.25.25,0,1,1,.313.389l-5.518,4.437a3,3,0,0,1-1.887.669" transform="translate(-46.445 -46.999)" fill="#5669ae"/>
            <path id="Trazado_892993" data-name="Trazado 892993" d="M397.481,80.873c0-9.911-29.8-18.388-71.932-21.83-.171-.014-.267,39.619-.256,51.57,12.381,1,23.7,2.438,33.526,4.217,23.517-5.923,38.662-26.953,38.662-33.957" transform="translate(-162.768 -29.544)" fill="#bca492"/>
            <g id="Grupo_1101958" data-name="Grupo 1101958" transform="translate(162.567 54.603)" opacity="0.15">
              <g id="Grupo_1101957" data-name="Grupo 1101957">
                <g id="Grupo_1101956" data-name="Grupo 1101956" clip-path="url(#clip-path-4)">
                  <path id="Trazado_892994" data-name="Trazado 892994" d="M388.42,121.907c-11.9-5.745-34.595-10.312-62.828-12.619-.1-.008-.172,13.072-.214,26.469,12.364,1,23.67,2.437,33.484,4.214,12.609-3.176,22.806-10.693,29.558-18.064" transform="translate(-325.378 -109.288)" fill="#29292c"/>
                </g>
              </g>
            </g>
            <path id="Trazado_892995" data-name="Trazado 892995" d="M373.163,111.238h-17.9a1.252,1.252,0,0,1-1.253-1.253v-17.9a1.253,1.253,0,0,1,1.253-1.254h17.9a1.254,1.254,0,0,1,1.253,1.254v17.9a1.253,1.253,0,0,1-1.253,1.253" transform="translate(-177.136 -45.449)" fill="#090909"/>
            <path id="Trazado_892996" data-name="Trazado 892996" d="M369.279,109.918a.477.477,0,0,1-.332-.134.49.49,0,0,1-.15-.352v-5.8h-5.811a.478.478,0,0,1-.343-.146.468.468,0,0,1-.133-.343,6.541,6.541,0,1,1,6.787,6.775h-.018m-.232-6.786h.25v6.3a6.119,6.119,0,0,0,4.327-2.107,6.041,6.041,0,1,0-10.614-4.164Z" transform="translate(-181.391 -48.457)" fill="#f8eee2"/>
            <path id="Trazado_892997" data-name="Trazado 892997" d="M365.907,119.089h-.02a7.059,7.059,0,0,1-6.728-6.727.512.512,0,0,1,.144-.379.532.532,0,0,1,.38-.162h6.223a.521.521,0,0,1,.521.521v6.223a.529.529,0,0,1-.162.379.514.514,0,0,1-.358.145m-6.224-6.769-.025.021a6.557,6.557,0,0,0,6.248,6.248l.021-6.248Z" transform="translate(-179.713 -55.952)" fill="#5669ae"/>
            <path id="Trazado_892998" data-name="Trazado 892998" d="M419.253,70.446H390.57a1.38,1.38,0,0,1-1.38-1.38V43.015a1.38,1.38,0,0,1,1.38-1.38h28.684a1.38,1.38,0,0,1,1.38,1.38V69.066a1.38,1.38,0,0,1-1.38,1.38" transform="translate(-194.741 -20.833)" fill="#5669ae"/>
            <path id="Trazado_892999" data-name="Trazado 892999" d="M419,70.447H390.319a1.631,1.631,0,0,1-1.63-1.63V42.766a1.631,1.631,0,0,1,1.63-1.63H419a1.631,1.631,0,0,1,1.63,1.63V68.817a1.631,1.631,0,0,1-1.63,1.63M390.319,41.636a1.132,1.132,0,0,0-1.13,1.13V68.817a1.132,1.132,0,0,0,1.13,1.13H419a1.132,1.132,0,0,0,1.13-1.13V42.766a1.132,1.132,0,0,0-1.13-1.13Z" transform="translate(-194.49 -20.583)" fill="#5669ae"/>
            <path id="Trazado_893000" data-name="Trazado 893000" d="M420.643,61.257a9.2,9.2,0,1,1-9.2-9.2,9.2,9.2,0,0,1,9.2,9.2" transform="translate(-201.275 -26.049)" fill="#f8eee2"/>
            <path id="Trazado_893001" data-name="Trazado 893001" d="M423.569,65.333h-3.412V59.957a.25.25,0,1,1,.5,0v4.877h2.913a.25.25,0,1,1,0,.5" transform="translate(-210.236 -29.876)" fill="#5669ae"/>
            <path id="Trazado_893002" data-name="Trazado 893002" d="M332.724,101.749a6.428,6.428,0,1,1-6.428-6.428,6.428,6.428,0,0,1,6.428,6.428" transform="translate(-160.053 -47.696)" fill="#87b6f9"/>
            <path id="Trazado_893003" data-name="Trazado 893003" d="M329.672,105.2a.608.608,0,0,1-.431-.177l-2.294-2.295a.25.25,0,0,1,.353-.353l2.294,2.294a.11.11,0,0,0,.155,0l6.009-6.01a.25.25,0,0,1,.353.353l-6.009,6.01a.609.609,0,0,1-.431.178" transform="translate(-163.559 -49.331)" fill="#090909"/>
            <path id="Trazado_893004" data-name="Trazado 893004" d="M334.495,38.375a1.763,1.763,0,0,0-1.761,1.761V52.194a1.763,1.763,0,0,0,1.761,1.761h3.218a2.519,2.519,0,0,1,2.516,2.516v2.861a.858.858,0,0,0,1.464.606l5.246-5.246a2.533,2.533,0,0,1,1.779-.737h6.454a1.763,1.763,0,0,0,1.762-1.761V40.136a1.763,1.763,0,0,0-1.762-1.761Z" transform="translate(-166.492 -19.202)" fill="#87b6f9"/>
            <path id="Trazado_893005" data-name="Trazado 893005" d="M344.45,54.945a1.693,1.693,0,1,1,1.693-1.693,1.7,1.7,0,0,1-1.693,1.693m0-2.886a1.193,1.193,0,1,0,1.193,1.193,1.195,1.195,0,0,0-1.193-1.193" transform="translate(-171.507 -25.799)" fill="#090909"/>
            <path id="Trazado_893006" data-name="Trazado 893006" d="M355.2,54.945a1.693,1.693,0,1,1,1.693-1.693,1.7,1.7,0,0,1-1.693,1.693m0-2.886a1.193,1.193,0,1,0,1.193,1.193A1.195,1.195,0,0,0,355.2,52.06" transform="translate(-176.886 -25.799)" fill="#090909"/>
            <path id="Trazado_893007" data-name="Trazado 893007" d="M365.828,54.945a1.693,1.693,0,1,1,1.693-1.693,1.695,1.695,0,0,1-1.693,1.693m0-2.886a1.193,1.193,0,1,0,1.194,1.193,1.195,1.195,0,0,0-1.194-1.193" transform="translate(-182.204 -25.799)" fill="#090909"/>
            <path id="Trazado_893008" data-name="Trazado 893008" d="M57.532,61.383A1.023,1.023,0,0,0,56.51,62.4V69.4a1.023,1.023,0,0,0,1.022,1.021h3.742a1.47,1.47,0,0,1,1.032.427l3.042,3.042a.5.5,0,0,0,.849-.351V71.876a1.461,1.461,0,0,1,1.458-1.459h1.866A1.022,1.022,0,0,0,70.542,69.4V62.4a1.022,1.022,0,0,0-1.021-1.021Z" transform="translate(-28.276 -30.714)" fill="#87b6f9"/>
            <path id="Trazado_893009" data-name="Trazado 893009" d="M75.731,70.992a1.087,1.087,0,1,1,1.087-1.087,1.088,1.088,0,0,1-1.087,1.087m0-1.674a.587.587,0,1,0,.587.587.588.588,0,0,0-.587-.587" transform="translate(-37.35 -34.435)" fill="#090909"/>
            <path id="Trazado_893010" data-name="Trazado 893010" d="M69.5,70.992a1.087,1.087,0,1,1,1.086-1.087A1.088,1.088,0,0,1,69.5,70.992m0-1.674a.587.587,0,1,0,.587.587.588.588,0,0,0-.587-.587" transform="translate(-34.231 -34.435)" fill="#090909"/>
            <path id="Trazado_893011" data-name="Trazado 893011" d="M63.334,70.992a1.087,1.087,0,1,1,1.087-1.087,1.088,1.088,0,0,1-1.087,1.087m0-1.674a.587.587,0,1,0,.587.587.588.588,0,0,0-.587-.587" transform="translate(-31.147 -34.435)" fill="#090909"/>
            <path id="Trazado_893012" data-name="Trazado 893012" d="M206.377,8.214a1.4,1.4,0,1,1-1.4-1.4,1.4,1.4,0,0,1,1.4,1.4" transform="translate(-101.868 -3.411)" fill="#5669ae"/>
            <path id="Trazado_893013" data-name="Trazado 893013" d="M13.632,276.256a1.4,1.4,0,1,1-1.4-1.4,1.4,1.4,0,0,1,1.4,1.4" transform="translate(-5.423 -137.532)" fill="#5669ae"/>
            <path id="Trazado_893014" data-name="Trazado 893014" d="M404.366,285.311a1.4,1.4,0,1,1-1.4-1.4,1.4,1.4,0,0,1,1.4,1.4" transform="translate(-200.936 -142.063)" fill="#5669ae"/>
            <path id="Trazado_893015" data-name="Trazado 893015" d="M469.776,13.806a1.4,1.4,0,1,1-1.4-1.4,1.4,1.4,0,0,1,1.4,1.4" transform="translate(-233.666 -6.209)" fill="#5669ae"/>
            <path id="Trazado_893016" data-name="Trazado 893016" d="M483.844,82.737a.7.7,0,1,1-.7-.7.7.7,0,0,1,.7.7" transform="translate(-241.404 -41.05)" fill="#5669ae"/>
            <path id="Trazado_893017" data-name="Trazado 893017" d="M482.9,83.436a.948.948,0,1,1,.948-.948.949.949,0,0,1-.948.948m0-1.4a.449.449,0,1,0,.449.449.449.449,0,0,0-.449-.449" transform="translate(-241.154 -40.8)" fill="#5669ae"/>
            <path id="Trazado_893018" data-name="Trazado 893018" d="M95.244,287.409a.7.7,0,1,1-.7-.7.7.7,0,0,1,.7.7" transform="translate(-46.959 -143.462)" fill="#5669ae"/>
            <path id="Trazado_893019" data-name="Trazado 893019" d="M94.3,288.108a.948.948,0,1,1,.948-.949.95.95,0,0,1-.948.949m0-1.4a.449.449,0,1,0,.449.448.449.449,0,0,0-.449-.448" transform="translate(-46.709 -143.213)" fill="#5669ae"/>
            <path id="Trazado_893020" data-name="Trazado 893020" d="M2.633,41.676A1.235,1.235,0,1,1,1.4,42.911a1.235,1.235,0,0,1,1.235-1.235" transform="translate(-0.7 -20.854)" fill="#5669ae"/>
            <path id="Trazado_893021" data-name="Trazado 893021" d="M2.383,44.146a1.485,1.485,0,1,1,1.485-1.485,1.487,1.487,0,0,1-1.485,1.485m0-2.47a.985.985,0,1,0,.985.985.986.986,0,0,0-.985-.985" transform="translate(-0.449 -20.603)" fill="#5669ae"/>
            <path id="Trazado_893022" data-name="Trazado 893022" d="M123.66.5a.479.479,0,1,1-.48.479A.479.479,0,0,1,123.66.5" transform="translate(-61.636 -0.25)" fill="#5669ae"/>
            <path id="Trazado_893023" data-name="Trazado 893023" d="M123.41,1.457a.729.729,0,1,1,.729-.729.729.729,0,0,1-.729.729m0-.958a.229.229,0,1,0,.229.229A.23.23,0,0,0,123.41.5" transform="translate(-61.386)" fill="#5669ae"/>
            <path id="Trazado_893024" data-name="Trazado 893024" d="M84.595,36.277a.7.7,0,1,1-.7-.7.7.7,0,0,1,.7.7" transform="translate(-41.63 -17.803)" fill="#090909"/>
            <path id="Trazado_893025" data-name="Trazado 893025" d="M1.4,162.416a.7.7,0,1,1-.7-.7.7.7,0,0,1,.7.7" transform="translate(0 -80.92)" fill="#090909"/>
            <path id="Trazado_893026" data-name="Trazado 893026" d="M364.635,2.272a.7.7,0,1,1-.7-.7.7.7,0,0,1,.7.7" transform="translate(-181.755 -0.788)" fill="#090909"/>
            <path id="Trazado_893027" data-name="Trazado 893027" d="M485.242,254.037a.7.7,0,1,1-.7-.7.7.7,0,0,1,.7.7" transform="translate(-242.104 -126.764)" fill="#090909"/>
            <path id="Trazado_893028" data-name="Trazado 893028" d="M256.952,419.583a45.789,45.789,0,0,0-10.52-31.882l-4.082-5.065-3.9-4.836-2.8-3.471-27.708,1.652-27.707-1.652-2.8,3.471-3.9,4.836L169.46,387.7a47.077,47.077,0,0,0-10.162,22.77c-.053.368-.682,7.37-1.554,15.921h99.015Z" transform="translate(-78.931 -187.305)" fill="#090909"/>
            <path id="Trazado_893029" data-name="Trazado 893029" d="M184.272,439.784l-.051,0a.5.5,0,0,1-.447-.548c.564-5.525,1.022-10.369,1.3-13.264.171-1.8.241-2.541.261-2.678A47.8,47.8,0,0,1,195.6,400.279a.5.5,0,1,1,.778.627,46.8,46.8,0,0,0-10.056,22.529c-.017.118-.117,1.171-.255,2.629-.274,2.9-.732,7.742-1.3,13.272a.5.5,0,0,1-.5.449" transform="translate(-91.955 -200.196)" fill="#f8eee2"/>
            <path id="Trazado_893030" data-name="Trazado 893030" d="M242.3,121.132a20.621,20.621,0,0,0-6.826-12.417c-.837-.876-1.632-1.663-2.365-2.36-2.545-2.42-6.021-4.84-6.2-8.152-.61-11.416-18.414-20.134-24.163-15.158a21.7,21.7,0,0,0-11.852-.981,11.091,11.091,0,1,0-15.862,12.866c-.161.486-.322.977-.5,1.475-2.178,5.964-5.756,10.282-11.031,14.848l-.716.62c-9.735,8.426-8.95,22.559-1.487,28.721l2.152,1.8q.5.417,1.027.795a3.983,3.983,0,0,1,1.764,3.747,19.247,19.247,0,0,0,.772,8.3c3.337,10.413,15.209,17.223,28.04,16a29.739,29.739,0,0,0,20.933-11.11c5.4-7.106,11.978-13.529,18.778-19.732,5.558-5.07,8.577-12.051,7.539-19.25" transform="translate(-77.851 -37.049)" fill="#090909"/>
            <path id="Trazado_893031" data-name="Trazado 893031" d="M253.655,150.979l-1.8-19.841-8.8-.158-.357-6.5-2.674,6.169-7.754-.9-1.786-3.072a2.009,2.009,0,0,0-1.931-1.009c-.608,7.129-3.989,13.369-7.431,13.926l-4.646-1.011.006-.088-1.466.033a7.012,7.012,0,0,0-6.833,7.146l0,.159a7.012,7.012,0,0,0,7.146,6.833l2.852-.064-1.022,25.63c-.038,6.913,6.157,10.888,12.584,10.923h.266c6.426.036,11.715-5.591,11.754-12.5l.05-9.017a15.711,15.711,0,0,0,11.844-16.663" transform="translate(-104.166 -62.288)" fill="#ffa484"/>
            <path id="Trazado_893032" data-name="Trazado 893032" d="M220.065,166.379a.5.5,0,0,1-.268-.921l1.808-1.147-2.02-2.3a.5.5,0,0,1,.751-.659l2.405,2.743a.5.5,0,0,1-.108.751l-2.3,1.459a.5.5,0,0,1-.267.078" transform="translate(-109.812 -80.649)" fill="#fd6a48"/>
            <path id="Trazado_893033" data-name="Trazado 893033" d="M258.456,204.732s-13.715.566-15.984-4.327h0s-.667,7.443,15.844,11.419Z" transform="translate(-120.822 -99.189)" fill="#fd6a48"/>
            <path id="Trazado_893034" data-name="Trazado 893034" d="M216.4,180.5c-.089,0-.18,0-.27-.01a3.614,3.614,0,1,1,.27.01m0-5.246a1.627,1.627,0,1,0,.12,0c-.04,0-.08,0-.12,0" transform="translate(-106.468 -86.695)" fill="#f8eee2"/>
            <path id="Trazado_893035" data-name="Trazado 893035" d="M291.628,155.708a1.354,1.354,0,1,1-1.321-1.387,1.355,1.355,0,0,1,1.321,1.387" transform="translate(-144.568 -77.218)" fill="#090909"/>
            <path id="Trazado_893036" data-name="Trazado 893036" d="M262.957,155.708a1.354,1.354,0,1,1-1.321-1.387,1.355,1.355,0,0,1,1.321,1.387" transform="translate(-130.222 -77.218)" fill="#090909"/>
            <path id="Trazado_893037" data-name="Trazado 893037" d="M253.45,160.362c-3.555,0-6.461-3.34-6.487-7.463-.015-2.45,3.23-3.567,6.452-3.588s6.483,1.056,6.5,3.506c.026,4.138-2.857,7.522-6.428,7.545Zm.057-9.553h-.082c-2.79.018-4.97.931-4.963,2.08.02,3.3,2.256,5.974,4.988,5.974h.026c2.744-.017,4.959-2.726,4.938-6.037h0c-.007-1.138-2.156-2.017-4.907-2.017" transform="translate(-123.574 -74.711)" fill="#fff"/>
            <path id="Trazado_893038" data-name="Trazado 893038" d="M285,159.748a6.032,6.032,0,0,1-4.6-2.214,8.121,8.121,0,0,1-1.888-5.249c-.015-2.451,3.23-3.568,6.453-3.588a10.992,10.992,0,0,1,4.24.734,3.157,3.157,0,0,1,2.257,2.772,8.115,8.115,0,0,1-1.821,5.272,6.025,6.025,0,0,1-4.606,2.272Zm.057-9.552h-.081c-2.79.018-4.971.931-4.964,2.079a6.618,6.618,0,0,0,1.526,4.282,4.385,4.385,0,0,0,6.954-.043,6.618,6.618,0,0,0,1.472-4.3c-.007-1.137-2.156-2.017-4.907-2.017" transform="translate(-139.363 -74.404)" fill="#fff"/>
            <path id="Trazado_893039" data-name="Trazado 893039" d="M273.789,152.333l.089,4.49a1,1,0,0,0,1.022.983l1-.02a1.366,1.366,0,0,1,1.393,1.339,3.385,3.385,0,0,1-3.317,3.451l-1.56.031" transform="translate(-136.308 -76.224)" fill="#ffa484"/>
            <path id="Trazado_893040" data-name="Trazado 893040" d="M271.911,162.606a.5.5,0,0,1-.01-1l1.561-.031a2.886,2.886,0,0,0,2.827-2.941.868.868,0,0,0-.884-.85l-1,.02a1.5,1.5,0,0,1-1.531-1.473l-.089-4.489a.5.5,0,0,1,.49-.509h.01a.5.5,0,0,1,.5.489l.089,4.49a.5.5,0,0,0,.154.353.481.481,0,0,0,.359.14l1-.02a1.867,1.867,0,0,1,1.9,1.829,3.885,3.885,0,0,1-3.807,3.961l-1.56.031Z" transform="translate(-135.807 -75.723)" fill="#fd6a48"/>
            <path id="Trazado_893041" data-name="Trazado 893041" d="M237.073,154.436a.754.754,0,0,1-.218-.032l-10.5-3.194a.749.749,0,1,1,.436-1.434l10.5,3.193a.75.75,0,0,1-.218,1.467" transform="translate(-112.994 -74.928)" fill="#fff"/>
            <path id="Trazado_893042" data-name="Trazado 893042" d="M270.49,157.792a.749.749,0,0,1-.437-1.358,4.525,4.525,0,0,1,5.351,0,.749.749,0,0,1-.935,1.172,3.086,3.086,0,0,0-3.549.054.745.745,0,0,1-.43.136" transform="translate(-134.971 -77.829)" fill="#fff"/>
            <path id="Trazado_893043" data-name="Trazado 893043" d="M274.236,196.494a.281.281,0,0,1-.189-.011,2.4,2.4,0,0,0-2.652.537.282.282,0,1,1-.418-.379,3.013,3.013,0,0,1,3.294-.676.281.281,0,0,1-.036.529" transform="translate(-135.554 -97.942)" fill="#fd6a48"/>
            <path id="Trazado_893044" data-name="Trazado 893044" d="M252.617,142.783a4.32,4.32,0,0,0,1.775-.239c.615-.168,1.237-.321,1.782-.435s1.178-.225,1.808-.319a4.284,4.284,0,0,0,1.718-.494c.427-.3.5-.9-.2-1.485a4.939,4.939,0,0,0-3.989-.648,4.79,4.79,0,0,0-3.347,2.187c-.386.81-.06,1.334.456,1.432" transform="translate(-126.09 -69.565)" fill="#090909"/>
            <path id="Trazado_893045" data-name="Trazado 893045" d="M292.226,143.254a3.392,3.392,0,0,1-1.4-.133c-.489-.113-.983-.214-1.414-.287s-.933-.14-1.432-.194a3.37,3.37,0,0,1-1.366-.335c-.345-.22-.42-.7.113-1.174a3.889,3.889,0,0,1,3.117-.633,3.773,3.773,0,0,1,2.7,1.617c.328.625.088,1.047-.315,1.141" transform="translate(-143.276 -70.266)" fill="#090909"/>
            <path id="Trazado_893046" data-name="Trazado 893046" d="M265.535,180.1H265.5l-3.9-.24a2.827,2.827,0,0,1-2.652-2.835l0-.532a.5.5,0,0,1,.5-.5h0a.5.5,0,0,1,.5.5l0,.533a1.827,1.827,0,0,0,1.714,1.833l3.9.24a.5.5,0,0,1-.03,1" transform="translate(-129.574 -88.063)" fill="#fd6a48"/>
            <path id="Trazado_893047" data-name="Trazado 893047" d="M218.111,253.059,246.2,252.9l.173-.435,8.559-21.51a.265.265,0,0,1,.237-.162l-45.925-.007,8.626,21.679Z" transform="translate(-104.702 -115.478)" fill="#ffa484"/>
            <g id="Grupo_1101961" data-name="Grupo 1101961" transform="translate(128.726 117.524)" opacity="0.46">
              <g id="Grupo_1101960" data-name="Grupo 1101960">
                <g id="Grupo_1101959" data-name="Grupo 1101959" clip-path="url(#clip-path-5)">
                  <path id="Trazado_893048" data-name="Trazado 893048" d="M277.477,235.577l-9.411,4.6a17.131,17.131,0,0,0-7.048,6.386l-3.373,5.462,1.116,1.041,3.345-5.415a17.13,17.13,0,0,1,7.048-6.386l8.418-4.117.766-1.927a7.715,7.715,0,0,0-.859.353" transform="translate(-257.644 -235.224)" fill="#fd6a48"/>
                </g>
              </g>
            </g>
            <path id="Trazado_893049" data-name="Trazado 893049" d="M239.466,306.566a1.621,1.621,0,0,0,3.073,0l12.542-31.521-28.092.162Z" transform="translate(-113.579 -137.625)" fill="#ffa484"/>
            <path id="Trazado_893050" data-name="Trazado 893050" d="M259.9,268.835l-22.8-26.612c-6.569-7.482-9.707-11.2-19.5-11.431h-.023l-.146,0c-.005,0-.01,0-.015,0a.266.266,0,0,0-.237.162l-8.559,21.51-.173.435-12.542,31.521a1.621,1.621,0,0,1-3.073,0l-12.478-31.359-.238-.6-8.626-21.679h0l-.242,0h-.058c-8.876.154-19.1,3.817-26.88,9.731a26.975,26.975,0,0,0-10.3,24.841,27.358,27.358,0,0,0,1.393,5.691l.5,1.42q2.511,7.137,5.638,14.037c.756,1.668,1.351,2.978,1.362,2.989l5.538,1.008a.262.262,0,0,0,.39-.008l14.688,18.6a.262.262,0,0,0,.171.244l11.5,4.236a60.259,60.259,0,0,0,38.361,0l14.28-5.564a.261.261,0,0,0,.159-.306S240.2,290.617,240.3,290.5l19.587-21.32a.262.262,0,0,0,.006-.347" transform="translate(-66.948 -115.478)" fill="#87b6f9"/>
            <path id="Trazado_893051" data-name="Trazado 893051" d="M193.633,316.712a57.294,57.294,0,0,1-18.773-3.15l-11.508-4.237a.517.517,0,0,1-.325-.379l-14.511-18.377a.525.525,0,0,1-.125.018.515.515,0,0,1-.314-.1l-5.472-1a.255.255,0,0,1-.136-.073c-.042-.044-.043-.045-1.409-3.058-2.078-4.586-3.978-9.315-5.646-14.057l-.5-1.42a27.119,27.119,0,0,1,8.994-30.813c7.736-5.879,18.092-9.627,27.027-9.783l.062.249-.005-.25.243,0a.248.248,0,0,1,.239.157l21.341,53.635a1.372,1.372,0,0,0,2.609,0L216.7,230.61a.514.514,0,0,1,.428-.317.292.292,0,0,1,.079-.006l.129,0c9.8.231,13.024,3.906,19.45,11.227l.255.29,22.8,26.615a.512.512,0,0,1-.012.679l-19.587,21.32c-.183.234-8.056,11.247-12.241,17.1a.515.515,0,0,1-.326.47l-14.28,5.564a57.244,57.244,0,0,1-19.273,3.152l-.487,0m.487-.5a56.647,56.647,0,0,0,19.1-3.121l14.271-5.561a.289.289,0,0,1,.046-.219c2.866-4.012,12.225-17.11,12.333-17.228l19.588-21.32.19-.178-.19.162-23.048-26.9c-6.33-7.212-9.506-10.832-19.063-11.057l-.138,0-.02,0-8.757,21.95L195.89,284.26a1.871,1.871,0,0,1-3.537,0l-21.278-53.474h-.13c-8.834.153-19.078,3.863-26.733,9.681a26.622,26.622,0,0,0-8.826,30.25l.5,1.42c1.663,4.729,3.556,9.444,5.629,14.018.878,1.938,1.2,2.635,1.305,2.868l5.412.985a.247.247,0,0,1,.138.075.274.274,0,0,1,.2-.088.27.27,0,0,1,.2.1l14.688,18.6a.254.254,0,0,1,.053.153l11.511,4.247a56.616,56.616,0,0,0,19.092,3.119" transform="translate(-66.699 -115.228)" fill="#5669ae"/>
            <path id="Trazado_893052" data-name="Trazado 893052" d="M277.207,341.326h-31a3.493,3.493,0,0,1-3.493-3.492V296.255a3.493,3.493,0,0,1,3.493-3.492h31a3.492,3.492,0,0,1,3.492,3.492v41.578a3.492,3.492,0,0,1-3.492,3.492" transform="translate(-121.447 -146.491)" fill="#1f191a"/>
            <path id="Trazado_893053" data-name="Trazado 893053" d="M279.206,289.5H267.767a1.511,1.511,0,0,1-1.511-1.51v-1.264a1.511,1.511,0,0,1,1.511-1.511h11.439a1.511,1.511,0,0,1,1.511,1.511v1.264a1.511,1.511,0,0,1-1.511,1.51" transform="translate(-133.228 -142.713)" fill="#f8eee2"/>
            <path id="Trazado_893054" data-name="Trazado 893054" d="M278.956,289.5H267.517a1.763,1.763,0,0,1-1.761-1.76v-1.265a1.763,1.763,0,0,1,1.761-1.761h11.439a1.763,1.763,0,0,1,1.761,1.761v1.265a1.763,1.763,0,0,1-1.761,1.76m-11.439-4.286a1.263,1.263,0,0,0-1.261,1.261v1.265A1.262,1.262,0,0,0,267.517,289h11.439a1.263,1.263,0,0,0,1.261-1.261v-1.265a1.263,1.263,0,0,0-1.261-1.261Z" transform="translate(-132.977 -142.463)" fill="#1f191a"/>
            <path id="Trazado_893055" data-name="Trazado 893055" d="M280.233,294.907H261.687a.48.48,0,0,1-.48-.48v-1.051a.48.48,0,0,1,.48-.48h18.546a.48.48,0,0,1,.48.48v1.051a.48.48,0,0,1-.48.48" transform="translate(-130.701 -146.558)" fill="#f8eee2"/>
            <path id="Trazado_893056" data-name="Trazado 893056" d="M279.983,294.907H261.437a.73.73,0,0,1-.73-.729v-1.051a.731.731,0,0,1,.73-.73h18.546a.731.731,0,0,1,.73.73v1.051a.73.73,0,0,1-.73.729M261.437,292.9a.231.231,0,0,0-.23.231v1.051a.231.231,0,0,0,.23.23h18.546a.231.231,0,0,0,.23-.23v-1.051a.231.231,0,0,0-.23-.231Z" transform="translate(-130.451 -146.307)" fill="#1f191a"/>
            <path id="Trazado_893057" data-name="Trazado 893057" d="M259.233,337.687c.479,1.911,2.228,1.818,3.937,1.385-1.018.43-1.773,1.111-1.4,2.374.4,2.333,2.619,2.429,4.475,1.91-1.6,1.014.435,3.466,2.915,3.43,3.48.126,6.93.238,10.411.434a12.416,12.416,0,0,0,6.953-1.174l2.65.112-.558-18.33-4.349.807c-.512-.35-1.032-.684-1.565-.986,0,0-9.205-4.125-12.557-4.92a3.266,3.266,0,0,0-1.1-.124,1.2,1.2,0,0,0-.921.539,1.589,1.589,0,0,0,.085,1.386c.591,1.371,1.114,2.559,1.645,3.6-1.3.067-1.656.079-3.179.128-3.2.335-8.549.238-7.867,4.4.36,1.425,1.524,1.649,2.727,1.487-1.644.555-3.122,1.539-2.3,3.538m2.584,1.909c.276-.081.531-.151.756-.2-.22.067-.478.13-.756.2" transform="translate(-129.472 -161.418)" fill="#ffa484"/>
            <g id="Grupo_1101964" data-name="Grupo 1101964" transform="translate(139.414 164.657)" opacity="0.36">
              <g id="Grupo_1101963" data-name="Grupo 1101963">
                <g id="Grupo_1101962" data-name="Grupo 1101962" clip-path="url(#clip-path-6)">
                  <path id="Trazado_893058" data-name="Trazado 893058" d="M280.007,331.619l8.348.194s-7.994-2.326-9.318-2.25Z" transform="translate(-279.036 -329.56)" fill="#fd6a48"/>
                </g>
              </g>
            </g>
            <path id="Trazado_893059" data-name="Trazado 893059" d="M317.707,351.862l4.238.009a1.233,1.233,0,0,0,1.236-1.23l.046-21.954a1.233,1.233,0,0,0-1.23-1.235l-4.238-.009a1.233,1.233,0,0,0-1.235,1.23l-.046,21.953a1.233,1.233,0,0,0,1.23,1.236" transform="translate(-158.357 -163.844)" fill="#f2f0eb"/>
            <path id="Trazado_893060" data-name="Trazado 893060" d="M324.422,315.9v24.7a2.031,2.031,0,0,0,2.384,2l19.764-3.493a19.605,19.605,0,0,0,10.356-32.8l-1.907-1.989-28.512,8.754a2.952,2.952,0,0,0-2.086,2.822" transform="translate(-162.332 -152.273)" fill="#87b6f9"/>
            <path id="Trazado_893061" data-name="Trazado 893061" d="M332.23,368.844a1.341,1.341,0,1,1-1.8-.608,1.341,1.341,0,0,1,1.8.608" transform="translate(-164.967 -184.186)" fill="#87b6f9"/>
            <path id="Trazado_893062" data-name="Trazado 893062" d="M326.2,342.63a2.281,2.281,0,0,1-2.279-2.28v-24.7a3.185,3.185,0,0,1,2.262-3.061l28.512-8.754a.247.247,0,0,1,.254.066l1.906,1.989A19.855,19.855,0,0,1,346.368,339.1L326.6,342.595a2.3,2.3,0,0,1-.4.035m28.5-38.278-28.365,8.708a2.689,2.689,0,0,0-1.909,2.584v24.7a1.782,1.782,0,0,0,2.091,1.754l19.763-3.494A19.355,19.355,0,0,0,356.5,306.23Z" transform="translate(-162.082 -152.023)" fill="#87b6f9"/>
            <line id="Línea_604" data-name="Línea 604" x1="5.118" y2="0.75" transform="translate(131.755 172.011)" fill="#d96448"/>
            <path id="Trazado_893063" data-name="Trazado 893063" d="M263.457,345.03a.25.25,0,0,1-.035-.5l5.118-.75a.254.254,0,0,1,.283.211.25.25,0,0,1-.211.283l-5.118.75-.036,0" transform="translate(-131.702 -172.019)" fill="#ff705e"/>
            <line id="Línea_605" data-name="Línea 605" x1="4.195" y2="0.979" transform="translate(133.698 176.676)" fill="#d96448"/>
            <path id="Trazado_893064" data-name="Trazado 893064" d="M267.346,354.595a.25.25,0,0,1-.056-.493l4.2-.979a.25.25,0,1,1,.113.487l-4.2.979a.247.247,0,0,1-.056.006" transform="translate(-133.648 -176.69)" fill="#ff705e"/>
            <line id="Línea_606" data-name="Línea 606" x1="4.029" y2="1.101" transform="translate(136.546 181.012)" fill="#d96448"/>
            <path id="Trazado_893065" data-name="Trazado 893065" d="M273.047,363.4a.25.25,0,0,1-.066-.491l4.029-1.1a.25.25,0,1,1,.131.482l-4.029,1.1a.253.253,0,0,1-.066.009" transform="translate(-136.501 -181.034)" fill="#ff705e"/>
            <path id="Trazado_893066" data-name="Trazado 893066" d="M324.173,323.893a.25.25,0,0,1-.25-.25v-3.738a3.777,3.777,0,0,1,2.786-3.64l16.384-4.423a.25.25,0,0,1,.13.482l-16.384,4.423a3.276,3.276,0,0,0-2.417,3.158v3.738a.25.25,0,0,1-.25.25" transform="translate(-162.083 -156.034)" fill="#090909"/>
            <path id="Trazado_893067" data-name="Trazado 893067" d="M328.644,309.3a.25.25,0,0,1-.215-.123l-6.151-10.409a.25.25,0,1,1,.43-.254l6.152,10.409a.25.25,0,0,1-.215.377" transform="translate(-161.242 -149.306)" fill="#090909"/>
            <path id="Trazado_893068" data-name="Trazado 893068" d="M255.9,255.962l5.334-8.635a17.126,17.126,0,0,1,7.048-6.386l9.412-4.6a7.759,7.759,0,0,1,4.357-.73l18.139-1.034a.591.591,0,0,1,.574.829l-.014.031a3.3,3.3,0,0,1-2.627,1.945l-8.524,1.046.419.039a2.981,2.981,0,0,1,2.528,1.947l.7,1.923.6.633a3.079,3.079,0,0,1,.624,3.239l-4.23,10.743a1.212,1.212,0,0,1-1.657.646,3.461,3.461,0,0,1-1.769-4.219l1.211-3.59-5.841,7.171a9.6,9.6,0,0,1-3.581,2.726l-4.5,1.979-3.173,8.889Z" transform="translate(-128.044 -117.374)" fill="#ffa484"/>
            <line id="Línea_607" data-name="Línea 607" y1="0.273" x2="6.201" transform="translate(155.291 121.267)" fill="#d96448"/>
            <path id="Trazado_893069" data-name="Trazado 893069" d="M316.846,242.683a.3.3,0,0,1-.121.032l-6.2.273a.3.3,0,1,1-.026-.608l6.2-.273a.3.3,0,0,1,.148.576" transform="translate(-155.219 -121.144)" fill="#fd6a48"/>
            <line id="Línea_608" data-name="Línea 608" y1="0.785" x2="7.543" transform="translate(157.419 124.988)" fill="#d96448"/>
            <path id="Trazado_893070" data-name="Trazado 893070" d="M322.447,250.132a.3.3,0,0,1-.1.029l-7.543.785a.3.3,0,1,1-.063-.6l7.542-.785a.3.3,0,0,1,.166.574" transform="translate(-157.351 -124.872)" fill="#fd6a48"/>
            <line id="Línea_609" data-name="Línea 609" x1="0.818" y2="2.065" transform="translate(159.976 130.347)" fill="#d96448"/>
            <path id="Trazado_893071" data-name="Trazado 893071" d="M320.022,262.924a.3.3,0,0,1-.417-.384l.817-2.065a.3.3,0,0,1,.565.223l-.817,2.066a.3.3,0,0,1-.148.16" transform="translate(-159.912 -130.238)" fill="#fd6a48"/>
            <path id="Trazado_893072" data-name="Trazado 893072" d="M270.578,287.273l-3.127,3.354a1.232,1.232,0,0,1-1.742.061l-16.984-15.834a1.233,1.233,0,0,1-.061-1.742l3.127-3.354a1.232,1.232,0,0,1,1.742-.061l16.984,15.834a1.233,1.233,0,0,1,.061,1.742" transform="translate(-124.259 -134.784)" fill="#f2f0eb"/>
            <path id="Trazado_893073" data-name="Trazado 893073" d="M149.767,314.831c.882,1.67,2.155,3.877,3.6,6.3a19.33,19.33,0,0,0,29.136,4.855c4.138-3.511,8.578-7.409,12.91-11.274,9.01-8.037,17.553-15.929,21.949-19.889a2.186,2.186,0,0,0,.024-3.227l-19.335-17.938a1.627,1.627,0,0,0-2.176-.033L172.4,294.1l-28.641,5.6s3.516,10.407,6.012,15.131" transform="translate(-71.931 -136.714)" fill="#87b6f9"/>
            <path id="Trazado_893074" data-name="Trazado 893074" d="M169.719,330.583a19.555,19.555,0,0,1-16.817-9.577c-1.578-2.645-2.791-4.767-3.606-6.309-2.477-4.687-5.993-15.064-6.028-15.168a.249.249,0,0,1,.189-.325l28.575-5.583,23.429-20.437a1.872,1.872,0,0,1,2.511.039l19.334,17.938a2.434,2.434,0,0,1-.027,3.6c-1.51,1.36-3.509,3.185-5.85,5.32-4.538,4.14-10.185,9.294-16.1,14.57-4.94,4.406-9.165,8.095-12.916,11.277a19.349,19.349,0,0,1-8.186,4.138,19.823,19.823,0,0,1-4.509.522m-25.885-30.944c.572,1.667,3.669,10.6,5.9,14.824.811,1.534,2.019,3.649,3.594,6.286a19.063,19.063,0,0,0,20.782,8.824,18.865,18.865,0,0,0,7.978-4.031c3.748-3.18,7.97-6.866,12.906-11.27,5.913-5.275,11.559-10.426,16.1-14.566,2.34-2.136,4.341-3.961,5.852-5.322a1.943,1.943,0,0,0,.641-1.425,1.916,1.916,0,0,0-.62-1.432l-19.334-17.938a1.374,1.374,0,0,0-1.843-.028l-23.48,20.481a.242.242,0,0,1-.116.056Z" transform="translate(-71.681 -136.462)" fill="#5669ae"/>
            <path id="Trazado_893075" data-name="Trazado 893075" d="M192.713,374.039q-.684,0-1.37-.037a.25.25,0,0,1-.235-.263.244.244,0,0,1,.263-.235,25.279,25.279,0,0,0,18.5-6.709l7.394-6.889a.25.25,0,1,1,.341.366l-7.394,6.889a25.78,25.78,0,0,1-17.5,6.879" transform="translate(-95.625 -180.054)" fill="#090909"/>
            <path id="Trazado_893076" data-name="Trazado 893076" d="M181.614,308.136a.25.25,0,0,1-.162-.44l25.178-21.425a.25.25,0,0,1,.324.381l-25.178,21.425a.249.249,0,0,1-.162.059" transform="translate(-90.75 -143.213)" fill="#090909"/>
            <path id="Trazado_893077" data-name="Trazado 893077" d="M185.067,301.044a.249.249,0,0,1-.216-.124l-9.919-17.131a.25.25,0,1,1,.432-.251l9.919,17.131a.25.25,0,0,1-.216.375" transform="translate(-87.514 -141.813)" fill="#090909"/>
            <path id="Trazado_893078" data-name="Trazado 893078" d="M277.7,310.979a1.341,1.341,0,1,1-1.8-.608,1.342,1.342,0,0,1,1.8.608" transform="translate(-137.68 -155.232)" fill="#f2f0eb"/>
            <path id="Trazado_893079" data-name="Trazado 893079" d="M14.2,102.735v58.911c0,9.034,24.761,16.875,61.052,20.8V123.534c-36.29-3.924-61.052-11.765-61.052-20.8" transform="translate(-7.107 -51.406)" fill="#dbeefa"/>
            <path id="Trazado_893080" data-name="Trazado 893080" d="M75.014,152.478l-.027,0c-29.94-3.237-48.538-9.639-48.538-16.708a.25.25,0,0,1,.5,0c0,6.689,18.877,13.052,48.092,16.211a.25.25,0,0,1-.026.5" transform="translate(-13.234 -67.81)" fill="#f8eee2"/>
            <path id="Trazado_893081" data-name="Trazado 893081" d="M59.96,176.548a.246.246,0,0,1-.057-.007,92.37,92.37,0,0,1-12.032-3.561.25.25,0,0,1,.179-.466,91.933,91.933,0,0,0,11.966,3.541.25.25,0,0,1-.056.493" transform="translate(-23.873 -86.313)" fill="#f8eee2"/>
            <path id="Trazado_893082" data-name="Trazado 893082" d="M105.585,185.883h-.027c-6.389-.691-12.381-1.541-17.808-2.528a.25.25,0,0,1,.089-.492c5.415.985,11.4,1.834,17.772,2.523a.25.25,0,0,1-.026.5" transform="translate(-43.805 -91.497)" fill="#090909"/>
            <path id="Trazado_893083" data-name="Trazado 893083" d="M29.718,209.491l6.9,2.209v-9.832l-6.9-2.65Z" transform="translate(-14.87 -99.684)" fill="#090909"/>
            <path id="Trazado_893084" data-name="Trazado 893084" d="M36.613,205.651l-7.4-2.369V186.447l7.4,2.842Zm-6.9-2.733,6.4,2.048V189.633l-6.4-2.458Z" transform="translate(-14.62 -93.293)" fill="#f8eee2"/>
            <path id="Trazado_893085" data-name="Trazado 893085" d="M56.5,219.3l-7.4-2.368v-9.342l7.4,2.842Zm-6.9-2.733,6.4,2.048V210.78l-6.4-2.458Z" transform="translate(-24.573 -103.875)" fill="#f8eee2"/>
            <path id="Trazado_893086" data-name="Trazado 893086" d="M425.816,102.735v58.911c0,7.464-16.9,14.113-43.241,18.412-.746.122-.889-58.767-.255-58.87,26.486-4.3,43.5-10.965,43.5-18.453" transform="translate(-191.102 -51.406)" fill="#dbeefa"/>
            <path id="Trazado_893087" data-name="Trazado 893087" d="M432.823,146.372a.25.25,0,0,1-.057-.493c6.258-1.487,10.948-3.18,13.941-5.031a.25.25,0,1,1,.262.425c-3.038,1.88-7.778,3.593-14.088,5.092a.226.226,0,0,1-.057.007" transform="translate(-216.449 -70.458)" fill="#090909"/>
            <path id="Trazado_893088" data-name="Trazado 893088" d="M433.539,162.61a.25.25,0,0,1-.057-.493c6.1-1.448,10.667-3.1,13.583-4.9a.25.25,0,1,1,.263.425c-2.962,1.833-7.581,3.5-13.731,4.963a.226.226,0,0,1-.057.007" transform="translate(-216.807 -78.648)" fill="#f8eee2"/>
            <g id="Grupo_1101967" data-name="Grupo 1101967" transform="translate(44.129 104.909)" opacity="0.69">
              <g id="Grupo_1101966" data-name="Grupo 1101966">
                <g id="Grupo_1101965" data-name="Grupo 1101965" clip-path="url(#clip-path-7)">
                  <path id="Trazado_893089" data-name="Trazado 893089" d="M98.231,221.483l-9.7-10a.749.749,0,1,1,1.076-1.043l8.67,8.943,10.025-9.405,12.348,9.575a.75.75,0,0,1-.919,1.185L108.4,211.944Z" transform="translate(-88.324 -209.975)" fill="#121936"/>
                </g>
              </g>
            </g>
            <path id="Trazado_893090" data-name="Trazado 893090" d="M89.821,209.427a2.514,2.514,0,1,1-2.515-2.515,2.514,2.514,0,0,1,2.515,2.515" transform="translate(-42.428 -103.533)" fill="#b9c5f7"/>
            <path id="Trazado_893091" data-name="Trazado 893091" d="M128.41,209.427a2.514,2.514,0,1,1-2.515-2.515,2.514,2.514,0,0,1,2.515,2.515" transform="translate(-61.737 -103.533)" fill="#b9c5f7"/>
            <path id="Trazado_893092" data-name="Trazado 893092" d="M108.2,227.807a2.514,2.514,0,1,1-2.515-2.515,2.514,2.514,0,0,1,2.515,2.515" transform="translate(-51.625 -112.73)" fill="#5574d6"/>
            <path id="Trazado_893093" data-name="Trazado 893093" d="M152.111,227.807a2.515,2.515,0,1,1-2.515-2.515,2.514,2.514,0,0,1,2.515,2.515" transform="translate(-73.596 -112.73)" fill="#5574d6"/>
            <rect id="Rectángulo_402426" data-name="Rectángulo 402426" width="4.054" height="28.829" transform="translate(174.18 85.744)" fill="#5669ae"/>
            <path id="Trazado_893094" data-name="Trazado 893094" d="M352.674,200.444H348.12V171.115h4.554Zm-4.054-.5h3.554V171.615H348.62Z" transform="translate(-174.19 -85.622)" fill="#5669ae"/>
            <path id="Trazado_893095" data-name="Trazado 893095" d="M368.148,192.625h-4.554V155.488h4.554Zm-4.054-.5h3.554V155.988h-3.554Z" transform="translate(-181.933 -77.802)" fill="#090909"/>
            <path id="Trazado_893096" data-name="Trazado 893096" d="M400.308,192.625h-4.554V155.488h4.554Zm-4.054-.5h3.554V155.988h-3.554Z" transform="translate(-198.025 -77.802)" fill="#090909"/>
            <g id="Grupo_1101970" data-name="Grupo 1101970" transform="translate(205.486 72.38)" opacity="0.46">
              <g id="Grupo_1101969" data-name="Grupo 1101969">
                <g id="Grupo_1101968" data-name="Grupo 1101968" clip-path="url(#clip-path-8)">
                  <rect id="Rectángulo_402427" data-name="Rectángulo 402427" width="4.054" height="42.192" transform="translate(0 0)" fill="#fff"/>
                </g>
              </g>
            </g>
            <rect id="Rectángulo_402429" data-name="Rectángulo 402429" width="4.054" height="27.553" transform="translate(205.487 87.02)" fill="#5669ae"/>
            <path id="Trazado_893097" data-name="Trazado 893097" d="M415.335,201.722h-4.554V173.67h4.554Zm-4.054-.5h3.554V174.17H411.28Z" transform="translate(-205.544 -86.9)" fill="#5669ae"/>
            <rect id="Rectángulo_402430" data-name="Rectángulo 402430" width="4.054" height="25.826" transform="translate(190.171 88.747)" fill="#5669ae"/>
            <path id="Trazado_893098" data-name="Trazado 893098" d="M384.681,203.451h-4.554V177.126h4.554Zm-4.054-.5h3.554V177.626h-3.554Z" transform="translate(-190.206 -88.629)" fill="#5669ae"/>
          </g>
        </g>
      </g>
    </g>
  </g>
</svg>
