<svg xmlns="http://www.w3.org/2000/svg" xmlns:xlink="http://www.w3.org/1999/xlink" width="526.579" height="398.987" viewBox="0 0 526.579 398.987">
  <defs>
    <clipPath id="clip-path">
      <rect id="Rectángulo_402370" data-name="Rectángulo 402370" width="367.764" height="383.117" fill="none"/>
    </clipPath>
    <clipPath id="clip-path-3">
      <rect id="Rectángulo_402339" data-name="Rectángulo 402339" width="33.199" height="77.559" fill="none"/>
    </clipPath>
    <clipPath id="clip-path-4">
      <rect id="Rectángulo_402340" data-name="Rectángulo 402340" width="32.304" height="49.585" fill="none"/>
    </clipPath>
    <clipPath id="clip-path-5">
      <rect id="Rectángulo_402341" data-name="Rectángulo 402341" width="7.699" height="139.216" fill="none"/>
    </clipPath>
    <clipPath id="clip-path-6">
      <rect id="Rectángulo_402342" data-name="Rectángulo 402342" width="63.996" height="71.722" fill="none"/>
    </clipPath>
    <clipPath id="clip-path-7">
      <rect id="Rectángulo_402343" data-name="Rectángulo 402343" width="7.529" height="4.346" fill="none"/>
    </clipPath>
    <clipPath id="clip-path-8">
      <rect id="Rectángulo_402344" data-name="Rectángulo 402344" width="107.184" height="67.274" fill="none"/>
    </clipPath>
    <clipPath id="clip-path-9">
      <rect id="Rectángulo_402345" data-name="Rectángulo 402345" width="63.996" height="97.804" fill="none"/>
    </clipPath>
    <clipPath id="clip-path-11">
      <rect id="Rectángulo_402348" data-name="Rectángulo 402348" width="80.088" height="65.299" fill="none"/>
    </clipPath>
    <clipPath id="clip-path-14">
      <rect id="Rectángulo_402350" data-name="Rectángulo 402350" width="119.51" height="74.853" fill="none"/>
    </clipPath>
    <clipPath id="clip-path-15">
      <rect id="Rectángulo_402351" data-name="Rectángulo 402351" width="25.328" height="17.65" fill="none"/>
    </clipPath>
    <clipPath id="clip-path-16">
      <rect id="Rectángulo_402352" data-name="Rectángulo 402352" width="46.586" height="56.767" fill="none"/>
    </clipPath>
    <clipPath id="clip-path-17">
      <rect id="Rectángulo_402353" data-name="Rectángulo 402353" width="19.521" height="10.12" fill="none"/>
    </clipPath>
    <clipPath id="clip-path-18">
      <rect id="Rectángulo_402354" data-name="Rectángulo 402354" width="17.294" height="23.25" fill="none"/>
    </clipPath>
    <clipPath id="clip-path-19">
      <rect id="Rectángulo_402356" data-name="Rectángulo 402356" width="45.357" height="42.86" fill="none"/>
    </clipPath>
    <clipPath id="clip-path-21">
      <rect id="Rectángulo_402357" data-name="Rectángulo 402357" width="41.832" height="54.023" fill="none"/>
    </clipPath>
    <clipPath id="clip-path-24">
      <rect id="Rectángulo_402360" data-name="Rectángulo 402360" width="127.533" height="153.016" fill="none"/>
    </clipPath>
    <clipPath id="clip-path-25">
      <rect id="Rectángulo_402361" data-name="Rectángulo 402361" width="30.834" height="12.854" fill="none"/>
    </clipPath>
    <clipPath id="clip-path-27">
      <rect id="Rectángulo_402363" data-name="Rectángulo 402363" width="40.139" height="46.623" fill="none"/>
    </clipPath>
    <clipPath id="clip-path-28">
      <rect id="Rectángulo_402364" data-name="Rectángulo 402364" width="90.517" height="90.517" fill="none"/>
    </clipPath>
    <clipPath id="clip-path-29">
      <rect id="Rectángulo_402365" data-name="Rectángulo 402365" width="9.55" height="11.248" fill="none"/>
    </clipPath>
    <clipPath id="clip-path-30">
      <rect id="Rectángulo_402366" data-name="Rectángulo 402366" width="67.703" height="52.117" fill="none"/>
    </clipPath>
    <clipPath id="clip-path-31">
      <rect id="Rectángulo_402367" data-name="Rectángulo 402367" width="32.205" height="79.974" fill="none"/>
    </clipPath>
    <clipPath id="clip-path-32">
      <rect id="Rectángulo_402368" data-name="Rectángulo 402368" width="13.352" height="49.086" fill="none"/>
    </clipPath>
  </defs>
  <g id="Grupo_1102060" data-name="Grupo 1102060" transform="translate(6396.076 10293.042)">
    <rect id="Rectángulo_402165" data-name="Rectángulo 402165" width="526.579" height="398.987" transform="translate(-6396.076 -10293.042)" fill="#d6e6ce"/>
    <g id="Grupo_1101914" data-name="Grupo 1101914" transform="translate(-6321 -10282.129)">
      <g id="Grupo_1101913" data-name="Grupo 1101913" clip-path="url(#clip-path)">
        <g id="Grupo_1101912" data-name="Grupo 1101912">
          <g id="Grupo_1101911" data-name="Grupo 1101911" clip-path="url(#clip-path)">
            <path id="Trazado_892643" data-name="Trazado 892643" d="M66.66,259.587c-64.571,37.28-64.57,97.723,0,135s169.265,37.28,233.835,0,64.57-97.724,0-135-169.264-37.28-233.835,0" transform="translate(-3.104 -39.434)" fill="#f5f5f5"/>
            <g id="Grupo_1101823" data-name="Grupo 1101823" transform="translate(274.097 234.965)" opacity="0.55">
              <g id="Grupo_1101822" data-name="Grupo 1101822">
                <g id="Grupo_1101821" data-name="Grupo 1101821" clip-path="url(#clip-path-3)">
                  <path id="Trazado_892644" data-name="Trazado 892644" d="M331.342,353.9l11.846,6.839c-.158-4.228-.526-10.516.057-14.749,3.577-25.89,13.663-34.426,18.459-47.027,5.05-13.271-1.109-17.541-9.111-15.155-7.135,2.127-17.46,12.687-20.711,32.007-2.161,12.854-1.779,26.813-.54,38.085" transform="translate(-330.337 -283.175)" fill="#d7e7ce"/>
                </g>
              </g>
            </g>
            <path id="Trazado_892645" data-name="Trazado 892645" d="M338.951,358.953l1.186.684c-4.237-30.185,6.083-56.362,16.269-67.174a.519.519,0,0,0-.756-.713c-10.181,10.817-20.5,37.171-16.7,67.2" transform="translate(-57.569 -49.643)" fill="#fff"/>
            <path id="Trazado_892646" data-name="Trazado 892646" d="M341.813,364.947l6.666,3.849h0c3.543-10.434,7.182-14.614,11.7-21.476,4.117-6.246,8.9-10.114,11.448-14.5,2.253-3.888,3.945-8.77.6-11.726-5.328-4.706-12.281.273-17.063,5.653-4.132,4.652-12.443,17.029-13.357,38.2" transform="translate(-58.193 -54.345)" fill="#80a06d"/>
            <g id="Grupo_1101826" data-name="Grupo 1101826" transform="translate(283.884 265.13)" opacity="0.3">
              <g id="Grupo_1101825" data-name="Grupo 1101825">
                <g id="Grupo_1101824" data-name="Grupo 1101824" clip-path="url(#clip-path-4)">
                  <path id="Trazado_892647" data-name="Trazado 892647" d="M342.132,365.266l6.666,3.85h0c3.543-10.435,7.182-14.614,11.7-21.477,4.117-6.246,8.9-10.114,11.448-14.5,2.253-3.887,3.945-8.77.6-11.726-5.328-4.706-12.281.273-17.063,5.653-4.132,4.652-12.443,17.029-13.357,38.2" transform="translate(-342.132 -319.53)" fill="#fff"/>
                </g>
              </g>
            </g>
            <path id="Trazado_892648" data-name="Trazado 892648" d="M345.11,367.918l.971.564c2.8-16.5,14.007-35.6,20.974-40.108a.531.531,0,0,0,.153-.737.522.522,0,0,0-.731-.158c-7.211,4.677-18.4,23.681-21.367,40.438" transform="translate(-58.755 -55.738)" fill="#fff"/>
            <path id="Trazado_892649" data-name="Trazado 892649" d="M79.243,332.779l68.608-39.611,68.61,39.611-68.609,39.613Z" transform="translate(-13.491 -49.912)" fill="#e1e1e1"/>
            <path id="Trazado_892650" data-name="Trazado 892650" d="M219.4,359.963c-25.575,14.766-25.575,38.707,0,53.473s67.042,14.766,92.618,0,25.575-38.707,0-53.473-67.042-14.766-92.618,0" transform="translate(-34.087 -59.398)" fill="#e1e1e1"/>
            <path id="Trazado_892651" data-name="Trazado 892651" d="M165.634,418.616l-11.519-13.093,0,.008-.012-.008h0L67.313,355.25l0,0-2.445-1.412-3.981-2.3-.274-.158a.289.289,0,0,1,.093.042l-3.833-2.195v-.022l-15.656-9.021c-3.024-2.067-7.557,2.128-9.322,6.352l0,.005a10.144,10.144,0,0,0-.615,1.969c-.341,1.753-.046,3.338,1.256,4.232l12.77,7.355,3.468,2c.011.007.013.023.024.03l2.862,1.647.268.147,3.312,1.912a.654.654,0,0,0,.133.106l2.78,1.577,88.269,51.13,0-.009,0,.008,16.807,3.325,4.574.9a.641.641,0,0,0,.579-.164.659.659,0,0,0,.045-.919Z" transform="translate(-5.303 -57.824)" fill="#e1e1e1"/>
            <path id="Trazado_892652" data-name="Trazado 892652" d="M100.955,36.41c-1.246-.715-2.962-.615-4.854.475l-.54.316L5.442,89.234a9.185,9.185,0,0,0-1.107.757c-.175.15-.341.308-.516.465A12.165,12.165,0,0,0,0,98.66V227.173a3.818,3.818,0,0,0,1.587,3.515c.3.172,1.465.845,1.758,1.014a3.8,3.8,0,0,0,3.84-.387l92.107-53.18a12.052,12.052,0,0,0,5.441-9.434V41.868c0-2.182-.772-3.719-2.015-4.441l-1.765-1.017" transform="translate(0 -6.121)" fill="#9ac288"/>
            <g id="Grupo_1101829" data-name="Grupo 1101829" transform="translate(0.002 86.725)" opacity="0.3">
              <g id="Grupo_1101828" data-name="Grupo 1101828">
                <g id="Grupo_1101827" data-name="Grupo 1101827" clip-path="url(#clip-path-5)">
                  <path id="Trazado_892653" data-name="Trazado 892653" d="M7.7,242.241v.451l-.519.3a3.816,3.816,0,0,1-3.838.389L1.59,242.363A3.818,3.818,0,0,1,0,238.846V110.333A11.323,11.323,0,0,1,1.88,104.52l2.075,1.2a11.028,11.028,0,0,0-1.824,5.623V239.853a4.207,4.207,0,0,0,.748,2.624,2.313,2.313,0,0,0,1.869.877,4.6,4.6,0,0,0,2.244-.7Z" transform="translate(-0.003 -104.519)"/>
                </g>
              </g>
            </g>
            <path id="Trazado_892654" data-name="Trazado 892654" d="M5.186,231.966a2.305,2.305,0,0,1-1.868-.874,4.2,4.2,0,0,1-.749-2.627V99.953a11.836,11.836,0,0,1,3.7-7.921l.165-.151c.113-.1.224-.207.339-.3a8.952,8.952,0,0,1,1.047-.715L97.936,38.83l.543-.318a5.9,5.9,0,0,1,2.868-.881c2.121,0,3.438,1.734,3.438,4.524V168.987a11.6,11.6,0,0,1-5.247,9.1L7.429,231.267a4.593,4.593,0,0,1-2.243.7" transform="translate(-0.437 -6.407)" fill="#fafafa"/>
            <path id="Trazado_892655" data-name="Trazado 892655" d="M101.268,37.938h0c1.909,0,3.049,1.547,3.049,4.136V168.908a11.347,11.347,0,0,1-5.053,8.764L7.154,230.853a4.205,4.205,0,0,1-2.047.646c-1.4,0-2.23-1.164-2.23-3.113V99.872A11.415,11.415,0,0,1,6.44,92.244l.177-.162c.108-.1.214-.2.3-.271a8.454,8.454,0,0,1,1.014-.694L98.054,39.082l.537-.314a5.517,5.517,0,0,1,2.678-.831m0-.774A6.221,6.221,0,0,0,98.2,38.1l-.541.316L7.544,90.446a9.427,9.427,0,0,0-1.107.758c-.174.149-.341.308-.515.465a12.162,12.162,0,0,0-3.819,8.2V228.385c0,2.464,1.224,3.888,3,3.888a4.923,4.923,0,0,0,2.437-.751l92.107-53.18a12.052,12.052,0,0,0,5.441-9.434V42.074c0-3.108-1.561-4.91-3.825-4.91" transform="translate(-0.358 -6.327)" fill="#7d9e6c"/>
            <path id="Trazado_892656" data-name="Trazado 892656" d="M101.347,37.63a5.879,5.879,0,0,0-2.868.882l-.543.316L7.816,90.861a8.953,8.953,0,0,0-1.047.715c-.115.1-.226.2-.339.3l-.166.15a11.841,11.841,0,0,0-3.695,7.922v16L104.784,56.92V42.155c0-2.79-1.317-4.525-3.438-4.525" transform="translate(-0.437 -6.406)" fill="#375a64"/>
            <path id="Trazado_892657" data-name="Trazado 892657" d="M13.916,105.842q1.088-.629,1.691-.187c.4.295.6.948.6,1.964a5.689,5.689,0,0,1-.6,2.672,4.325,4.325,0,0,1-1.691,1.779l-1.437.831v3.086a.7.7,0,0,1-.072.3.447.447,0,0,1-.171.209l-.729.422a.129.129,0,0,1-.17-.013.291.291,0,0,1-.072-.221v-8.941a.694.694,0,0,1,.072-.3.455.455,0,0,1,.17-.209Zm-1.437,5.328,1.393-.8a2.322,2.322,0,0,0,.818-.783,2.355,2.355,0,0,0,.3-1.264c0-.517-.1-.815-.3-.9a.98.98,0,0,0-.818.175l-1.393.8Z" transform="translate(-1.918 -17.957)" fill="#fafafa"/>
            <path id="Trazado_892658" data-name="Trazado 892658" d="M20.966,101.781q1.124-.65,1.708-.183a2.357,2.357,0,0,1,.585,1.891,5.829,5.829,0,0,1-.3,1.9,4.705,4.705,0,0,1-.885,1.571l1.24,2.7a.359.359,0,0,1,.027.137.58.58,0,0,1-.058.249.37.37,0,0,1-.139.17l-.764.441c-.119.07-.208.077-.265.022a.5.5,0,0,1-.122-.173l-1.177-2.545-1.195.69v3.225a.7.7,0,0,1-.072.3.458.458,0,0,1-.171.21l-.729.42a.127.127,0,0,1-.17-.012.291.291,0,0,1-.072-.222v-8.941a.693.693,0,0,1,.072-.3.467.467,0,0,1,.17-.21Zm-1.348,5.137,1.3-.752a2.437,2.437,0,0,0,.819-.749,2.171,2.171,0,0,0,.305-1.228q0-.775-.305-.861a1.132,1.132,0,0,0-.819.209l-1.3.753Z" transform="translate(-3.133 -17.264)" fill="#fafafa"/>
            <path id="Trazado_892659" data-name="Trazado 892659" d="M25.4,102.8a8.947,8.947,0,0,1,.193-1.572,6.87,6.87,0,0,1,.49-1.473,5.767,5.767,0,0,1,.809-1.27,4.278,4.278,0,0,1,1.15-.962,2.275,2.275,0,0,1,1.142-.368,1.13,1.13,0,0,1,.81.336,2.106,2.106,0,0,1,.495.9,5.6,5.6,0,0,1,.2,1.353c.006.172.011.363.013.574s0,.428,0,.655,0,.446,0,.66-.007.411-.013.589a9.233,9.233,0,0,1-.193,1.571A6.886,6.886,0,0,1,30,105.267a5.559,5.559,0,0,1-.813,1.265,4.344,4.344,0,0,1-1.147.953,2.3,2.3,0,0,1-1.15.374,1.146,1.146,0,0,1-.809-.329,2.024,2.024,0,0,1-.49-.908,5.69,5.69,0,0,1-.193-1.349q-.01-.256-.013-.573t-.006-.655c0-.227,0-.446.006-.661s.007-.41.013-.588m4.072-2.282a1.775,1.775,0,0,0-.419-1.3q-.382-.327-1.011.037a2.591,2.591,0,0,0-1.011,1.13,4.308,4.308,0,0,0-.418,1.784q-.017.538-.018,1.182t.018,1.159a1.752,1.752,0,0,0,.418,1.294q.382.319,1.011-.045a2.593,2.593,0,0,0,1.011-1.123,4.249,4.249,0,0,0,.419-1.778q.017-.535.017-1.178t-.017-1.16" transform="translate(-4.321 -16.54)" fill="#fafafa"/>
            <path id="Trazado_892660" data-name="Trazado 892660" d="M35.667,93.3a2.534,2.534,0,0,1,1.155-.4,1.1,1.1,0,0,1,.817.3,1.969,1.969,0,0,1,.5.914,6.149,6.149,0,0,1,.212,1.455q.035,1,0,2.049a9.709,9.709,0,0,1-.212,1.7,6.9,6.9,0,0,1-.5,1.493,5.227,5.227,0,0,1-.8,1.231,4.442,4.442,0,0,1-1.128.922l-2.265,1.309a.129.129,0,0,1-.17-.013.291.291,0,0,1-.073-.221V95.1a.7.7,0,0,1,.073-.3.445.445,0,0,1,.17-.209Zm1.474,2.968a3.293,3.293,0,0,0-.113-.758,1.1,1.1,0,0,0-.279-.5.633.633,0,0,0-.462-.177,1.422,1.422,0,0,0-.665.225l-1.2.7v6.228l1.249-.721a2.438,2.438,0,0,0,.638-.527,3.106,3.106,0,0,0,.449-.7,3.719,3.719,0,0,0,.275-.823,5.414,5.414,0,0,0,.113-.9q.035-1.045,0-2.049" transform="translate(-5.653 -15.817)" fill="#fafafa"/>
            <path id="Trazado_892661" data-name="Trazado 892661" d="M45.684,87.3a.131.131,0,0,1,.171.013.291.291,0,0,1,.071.22v5.675a8.128,8.128,0,0,1-.161,1.644,6.5,6.5,0,0,1-.485,1.469,5.229,5.229,0,0,1-.81,1.235,4.422,4.422,0,0,1-1.123.919,2.431,2.431,0,0,1-1.129.383,1.086,1.086,0,0,1-.8-.3,1.908,1.908,0,0,1-.48-.913,5.808,5.808,0,0,1-.158-1.459V90.512a.693.693,0,0,1,.072-.3.461.461,0,0,1,.17-.21l.729-.42a.13.13,0,0,1,.171.012.3.3,0,0,1,.071.222v5.6a3.41,3.41,0,0,0,.1.911,1,1,0,0,0,.279.5.55.55,0,0,0,.432.125,1.453,1.453,0,0,0,.548-.2,2.577,2.577,0,0,0,.553-.438,2.491,2.491,0,0,0,.436-.625,3.568,3.568,0,0,0,.283-.821,4.714,4.714,0,0,0,.1-1.029V88.233a.7.7,0,0,1,.072-.3.451.451,0,0,1,.171-.211Z" transform="translate(-6.942 -14.859)" fill="#fafafa"/>
            <path id="Trazado_892662" data-name="Trazado 892662" d="M52.434,90.183a.819.819,0,0,1,.095-.324.5.5,0,0,1,.166-.186l.729-.42a.145.145,0,0,1,.175,0,.259.259,0,0,1,.067.23,6.569,6.569,0,0,1-.183,1.241,6.022,6.022,0,0,1-1.3,2.522,4.544,4.544,0,0,1-1.195.982,2.192,2.192,0,0,1-1.1.35,1.173,1.173,0,0,1-.81-.324,2.044,2.044,0,0,1-.516-.912,5.716,5.716,0,0,1-.221-1.409q-.017-.515-.017-1.152t.017-1.173a9.375,9.375,0,0,1,.221-1.664,7.216,7.216,0,0,1,.516-1.509,5.741,5.741,0,0,1,.81-1.255,4.172,4.172,0,0,1,1.1-.919,2.468,2.468,0,0,1,1.195-.4,1.246,1.246,0,0,1,.818.275,1.6,1.6,0,0,1,.481.753,3.876,3.876,0,0,1,.183,1.022.576.576,0,0,1-.067.308.478.478,0,0,1-.175.207l-.729.419a.162.162,0,0,1-.17.009c-.054-.028-.086-.1-.1-.213a1.424,1.424,0,0,0-.126-.466.741.741,0,0,0-.27-.314.689.689,0,0,0-.431-.091,1.5,1.5,0,0,0-.611.222,2.245,2.245,0,0,0-.612.519,3.223,3.223,0,0,0-.436.7,3.894,3.894,0,0,0-.27.82,5.338,5.338,0,0,0-.113.88c-.011.358-.017.748-.017,1.173s.006.808.017,1.153A3.3,3.3,0,0,0,49.67,92a1.164,1.164,0,0,0,.27.5.651.651,0,0,0,.436.191,1.136,1.136,0,0,0,.612-.186,2.648,2.648,0,0,0,.611-.485,3.165,3.165,0,0,0,.436-.592,3.1,3.1,0,0,0,.275-.629,2.871,2.871,0,0,0,.125-.612" transform="translate(-8.228 -14.278)" fill="#fafafa"/>
            <path id="Trazado_892663" data-name="Trazado 892663" d="M60.116,79a.13.13,0,0,1,.17.013.293.293,0,0,1,.071.221v.983a.7.7,0,0,1-.071.3.458.458,0,0,1-.17.21l-1.619.933v7.585a.694.694,0,0,1-.072.3.451.451,0,0,1-.17.209l-.729.421a.13.13,0,0,1-.171-.012.3.3,0,0,1-.072-.221V82.364l-1.617.933a.13.13,0,0,1-.171-.012.3.3,0,0,1-.072-.222v-.982a.7.7,0,0,1,.072-.3.459.459,0,0,1,.171-.21Z" transform="translate(-9.436 -13.445)" fill="#fafafa"/>
            <path id="Trazado_892664" data-name="Trazado 892664" d="M13.247,130.456v1.04c0,.564.4.793.885.511l81.618-47.18a1.956,1.956,0,0,0,.885-1.533V82.25c0-.564-.4-.793-.885-.511L14.132,128.922a1.958,1.958,0,0,0-.885,1.533" transform="translate(-2.255 -13.895)" fill="#e1e1e1"/>
            <path id="Trazado_892665" data-name="Trazado 892665" d="M13.247,138.447v1.04c0,.564.4.793.885.511l81.618-47.18a1.956,1.956,0,0,0,.885-1.533V90.241c0-.564-.4-.793-.885-.511L14.132,136.913a1.956,1.956,0,0,0-.885,1.533" transform="translate(-2.255 -15.256)" fill="#e1e1e1"/>
            <path id="Trazado_892666" data-name="Trazado 892666" d="M13.247,146.438v1.041c0,.564.4.793.885.511l81.618-47.18a1.956,1.956,0,0,0,.885-1.533V98.232c0-.564-.4-.793-.885-.511L14.132,144.9a1.956,1.956,0,0,0-.885,1.533" transform="translate(-2.255 -16.616)" fill="#e1e1e1"/>
            <path id="Trazado_892667" data-name="Trazado 892667" d="M13.795,185.256a.454.454,0,0,1-.455-.455V169.726a.454.454,0,0,1,.227-.394l12.964-7.484a.455.455,0,0,1,.683.394l0,15.075a.456.456,0,0,1-.227.394L14.022,185.2a.453.453,0,0,1-.227.061m.456-15.267v14.024L26.3,177.054l0-14.024Z" transform="translate(-2.271 -27.544)" fill="#375a64"/>
            <path id="Trazado_892668" data-name="Trazado 892668" d="M36.157,155.853v1.041c0,.564.4.793.885.511l28.874-16.711a1.957,1.957,0,0,0,.885-1.533v-1.045c0-.564-.4-.793-.885-.511L37.042,154.32a1.958,1.958,0,0,0-.885,1.533" transform="translate(-6.156 -23.406)" fill="#e1e1e1"/>
            <path id="Trazado_892669" data-name="Trazado 892669" d="M36.157,159.768v1.041c0,.564.4.793.885.511l62.609-36.195a1.956,1.956,0,0,0,.885-1.533v-1.044c0-.565-.4-.793-.885-.511l-62.609,36.2a1.956,1.956,0,0,0-.885,1.533" transform="translate(-6.156 -20.756)" fill="#e1e1e1"/>
            <path id="Trazado_892670" data-name="Trazado 892670" d="M36.157,167.3v1.04c0,.564.4.793.885.511l62.609-36.195a1.956,1.956,0,0,0,.885-1.533v-1.044c0-.565-.4-.793-.885-.511l-62.609,36.2a1.956,1.956,0,0,0-.885,1.533" transform="translate(-6.156 -22.038)" fill="#e1e1e1"/>
            <path id="Trazado_892671" data-name="Trazado 892671" d="M20.891,177.655l-3.015-2.9,1-2.137,1.718,1.652,7.433-15.728,1.3,1.25Z" transform="translate(-3.043 -26.992)" fill="#1a2e35"/>
            <path id="Trazado_892672" data-name="Trazado 892672" d="M13.795,217.827a.454.454,0,0,1-.455-.455V202.3a.454.454,0,0,1,.227-.394l12.964-7.484a.455.455,0,0,1,.683.394l0,15.075a.456.456,0,0,1-.227.394l-12.963,7.484a.453.453,0,0,1-.227.061m.456-15.267v14.024L26.3,209.625l0-14.024Z" transform="translate(-2.271 -33.089)" fill="#375a64"/>
            <path id="Trazado_892673" data-name="Trazado 892673" d="M36.157,188.425v1.041c0,.564.4.793.885.511l28.874-16.711a1.957,1.957,0,0,0,.885-1.533v-1.045c0-.564-.4-.793-.885-.511L37.042,186.892a1.958,1.958,0,0,0-.885,1.533" transform="translate(-6.156 -28.952)" fill="#e1e1e1"/>
            <path id="Trazado_892674" data-name="Trazado 892674" d="M36.157,192.339v1.04c0,.564.4.793.885.511L99.651,157.7a1.956,1.956,0,0,0,.885-1.533v-1.044c0-.564-.4-.793-.885-.511l-62.609,36.2a1.958,1.958,0,0,0-.885,1.533" transform="translate(-6.156 -26.301)" fill="#e1e1e1"/>
            <path id="Trazado_892675" data-name="Trazado 892675" d="M36.157,199.87v1.041c0,.564.4.793.885.511l62.609-36.195a1.958,1.958,0,0,0,.885-1.533V162.65c0-.564-.4-.793-.885-.511l-62.609,36.2a1.958,1.958,0,0,0-.885,1.533" transform="translate(-6.156 -27.584)" fill="#e1e1e1"/>
            <path id="Trazado_892676" data-name="Trazado 892676" d="M20.891,210.227l-3.015-2.9,1-2.137,1.718,1.652,7.433-15.728,1.3,1.25Z" transform="translate(-3.043 -32.537)" fill="#9ac288"/>
            <path id="Trazado_892677" data-name="Trazado 892677" d="M13.795,250.5a.454.454,0,0,1-.455-.455V234.966a.454.454,0,0,1,.227-.394l12.964-7.484a.455.455,0,0,1,.683.394l0,15.075a.456.456,0,0,1-.227.394l-12.963,7.484a.453.453,0,0,1-.227.061m.456-15.267v14.024L26.3,242.294l0-14.024Z" transform="translate(-2.271 -38.651)" fill="#375a64"/>
            <path id="Trazado_892678" data-name="Trazado 892678" d="M36.157,221.094v1.041c0,.564.4.793.885.511l28.874-16.711A1.957,1.957,0,0,0,66.8,204.4v-1.045c0-.564-.4-.793-.885-.511L37.042,219.561a1.958,1.958,0,0,0-.885,1.533" transform="translate(-6.156 -34.514)" fill="#e1e1e1"/>
            <path id="Trazado_892679" data-name="Trazado 892679" d="M36.157,225.008v1.041c0,.564.4.793.885.511l62.609-36.195a1.956,1.956,0,0,0,.885-1.533v-1.044c0-.565-.4-.793-.885-.511l-62.609,36.2a1.956,1.956,0,0,0-.885,1.533" transform="translate(-6.156 -31.863)" fill="#e1e1e1"/>
            <path id="Trazado_892680" data-name="Trazado 892680" d="M36.157,232.539v1.041c0,.564.4.793.885.511L99.651,197.9a1.958,1.958,0,0,0,.885-1.533v-1.044c0-.564-.4-.793-.885-.511l-62.609,36.2a1.958,1.958,0,0,0-.885,1.533" transform="translate(-6.156 -33.145)" fill="#e1e1e1"/>
            <path id="Trazado_892681" data-name="Trazado 892681" d="M20.891,242.9l-3.015-2.9,1-2.137,1.718,1.652,7.433-15.728,1.3,1.25Z" transform="translate(-3.043 -38.099)" fill="#375a64"/>
            <path id="Trazado_892682" data-name="Trazado 892682" d="M161.929,286.862v-69.55l64,36.949-60.231,34.774Z" transform="translate(-27.568 -36.997)" fill="#9ac288"/>
            <path id="Trazado_892683" data-name="Trazado 892683" d="M148.8,286.862v-69.55l-64,36.949,60.232,34.774Z" transform="translate(-14.437 -36.997)" fill="#9ac288"/>
            <g id="Grupo_1101832" data-name="Grupo 1101832" transform="translate(70.364 180.316)" opacity="0.1">
              <g id="Grupo_1101831" data-name="Grupo 1101831">
                <g id="Grupo_1101830" data-name="Grupo 1101830" clip-path="url(#clip-path-6)">
                  <path id="Trazado_892684" data-name="Trazado 892684" d="M148.8,286.862v-69.55l-64,36.949,60.232,34.774Z" transform="translate(-84.802 -217.313)" fill="#9ac288"/>
                </g>
              </g>
            </g>
            <path id="Trazado_892685" data-name="Trazado 892685" d="M161.156,305.479l-3.765-2.173,3.765-2.173,3.765,2.173Z" transform="translate(-26.796 -51.268)" fill="#9ac288"/>
            <g id="Grupo_1101835" data-name="Grupo 1101835" transform="translate(130.596 249.865)" opacity="0.3">
              <g id="Grupo_1101834" data-name="Grupo 1101834">
                <g id="Grupo_1101833" data-name="Grupo 1101833" clip-path="url(#clip-path-7)">
                  <path id="Trazado_892686" data-name="Trazado 892686" d="M161.156,305.479l-3.765-2.173,3.765-2.173,3.765,2.173Z" transform="translate(-157.392 -301.133)" fill="#9ac288"/>
                </g>
              </g>
            </g>
            <path id="Trazado_892687" data-name="Trazado 892687" d="M98.964,268.752c2.28-5.039,7.374-7.172,13.371-5.351a18.692,18.692,0,0,1,4.009-12.568,13.609,13.609,0,0,1,11.941-4.941c4.455.613,8.488,4.2,9.126,8.646a7.3,7.3,0,1,1,14.048,3.114,11.675,11.675,0,0,1,14.04.3c-2.079-3.222-.348-7.8,2.737-10.072a11.252,11.252,0,0,1,17.47,12.244,11.478,11.478,0,0,1,9.34,2.185,21.721,21.721,0,0,1,6.13,7.673c3,5.759,4.534,12.693,2.251,18.771a25.7,25.7,0,0,1-6.057,8.714,61.721,61.721,0,0,1-33.514,17.275,68.125,68.125,0,0,1-37.544-4.532A56.9,56.9,0,0,1,107.963,298.1c-4.107-4.134-9.106-10.6-10.254-16.416a25.258,25.258,0,0,1,.356-10.162,13.666,13.666,0,0,1,.9-2.77" transform="translate(-16.572 -41.839)" fill="#fff"/>
            <g id="Grupo_1101838" data-name="Grupo 1101838" transform="translate(80.769 206.529)" opacity="0.1">
              <g id="Grupo_1101837" data-name="Grupo 1101837">
                <g id="Grupo_1101836" data-name="Grupo 1101836" clip-path="url(#clip-path-8)">
                  <path id="Trazado_892688" data-name="Trazado 892688" d="M203.428,289.289c2.283-6.079.748-13.013-2.25-18.772a21.735,21.735,0,0,0-6.13-7.672,13.431,13.431,0,0,0-2.19-1.3,13.8,13.8,0,0,1-6.2,10.228c-5.168,3.3-11.822,3.339-17.8,1.979,1.773,1.853,1.1,5.166-.886,6.792s-4.79,1.858-7.319,1.436a17.1,17.1,0,0,1-10.43-6.119A2.681,2.681,0,0,1,149,279.17a5.265,5.265,0,0,1-3.776.358,10.666,10.666,0,0,1-6.793-4.891,7.889,7.889,0,0,1-13.444-8.144c-3.447-.331-6.255-3.278-7.2-6.608a16.422,16.422,0,0,1,.9-10.169c.1-.271.214-.541.328-.811a14.432,14.432,0,0,0-2.675,2.465,18.689,18.689,0,0,0-4.009,12.568c-6-1.821-11.091.313-13.371,5.352a13.7,13.7,0,0,0-.9,2.77,25.272,25.272,0,0,0-.356,10.162c1.149,5.811,6.147,12.282,10.255,16.416a56.9,56.9,0,0,0,18.35,12.108,68.118,68.118,0,0,0,37.544,4.531A61.722,61.722,0,0,0,197.372,298a25.7,25.7,0,0,0,6.056-8.714" transform="translate(-97.341 -248.905)" fill="#d268cc"/>
                </g>
              </g>
            </g>
            <path id="Trazado_892689" data-name="Trazado 892689" d="M161.929,359.646V298.79l64-36.948-7.528,65.2Z" transform="translate(-27.568 -44.579)" fill="#a7c693"/>
            <g id="Grupo_1101841" data-name="Grupo 1101841" transform="translate(134.361 217.264)" opacity="0.45">
              <g id="Grupo_1101840" data-name="Grupo 1101840">
                <g id="Grupo_1101839" data-name="Grupo 1101839" clip-path="url(#clip-path-9)">
                  <path id="Trazado_892690" data-name="Trazado 892690" d="M161.929,359.646V298.79l64-36.948-7.528,65.2Z" transform="translate(-161.929 -261.842)" fill="#a7c693"/>
                </g>
              </g>
            </g>
            <path id="Trazado_892691" data-name="Trazado 892691" d="M220.839,305.889l5.085-44.038v-.008l-64,36.948v0l10.572,35Z" transform="translate(-27.568 -44.579)" fill="#a7c693"/>
            <path id="Trazado_892692" data-name="Trazado 892692" d="M148.8,359.646V298.79l-64-36.948,7.528,65.2Z" transform="translate(-14.438 -44.579)" fill="#80a06d"/>
            <g id="Grupo_1101844" data-name="Grupo 1101844" transform="translate(70.365 217.264)" opacity="0.3">
              <g id="Grupo_1101843" data-name="Grupo 1101843">
                <g id="Grupo_1101842" data-name="Grupo 1101842" clip-path="url(#clip-path-9)">
                  <path id="Trazado_892693" data-name="Trazado 892693" d="M148.8,359.646V298.79l-64-36.948,7.528,65.2Z" transform="translate(-84.803 -261.842)" fill="#80a06d"/>
                </g>
              </g>
            </g>
            <path id="Trazado_892694" data-name="Trazado 892694" d="M89.888,305.889,84.8,261.851v-.008l64,36.948v0l-10.572,35Z" transform="translate(-14.438 -44.579)" fill="#80a06d"/>
            <g id="Grupo_1101850" data-name="Grupo 1101850" transform="translate(54.272 217.264)" opacity="0.55">
              <g id="Grupo_1101849" data-name="Grupo 1101849">
                <g id="Grupo_1101848" data-name="Grupo 1101848" clip-path="url(#clip-path-11)">
                  <path id="Trazado_892695" data-name="Trazado 892695" d="M81.5,261.842l-16.092,28.35,64,36.949L145.5,298.79Z" transform="translate(-65.408 -261.842)" fill="#d7e7ce"/>
                  <g id="Grupo_1101847" data-name="Grupo 1101847" opacity="0.55">
                    <g id="Grupo_1101846" data-name="Grupo 1101846">
                      <g id="Grupo_1101845" data-name="Grupo 1101845" clip-path="url(#clip-path-11)">
                        <path id="Trazado_892696" data-name="Trazado 892696" d="M81.5,261.842l-16.092,28.35,64,36.949L145.5,298.79Z" transform="translate(-65.408 -261.842)" fill="#d7e7ce"/>
                      </g>
                    </g>
                  </g>
                </g>
              </g>
            </g>
            <path id="Trazado_892697" data-name="Trazado 892697" d="M225.924,261.842l16.092,28.35-64,36.949L161.928,298.79Z" transform="translate(-27.568 -44.579)" fill="#ebf2e7"/>
            <g id="Grupo_1101853" data-name="Grupo 1101853" transform="translate(134.36 217.264)" opacity="0.55">
              <g id="Grupo_1101852" data-name="Grupo 1101852">
                <g id="Grupo_1101851" data-name="Grupo 1101851" clip-path="url(#clip-path-11)">
                  <path id="Trazado_892698" data-name="Trazado 892698" d="M225.924,261.842l16.092,28.35-64,36.949L161.928,298.79Z" transform="translate(-161.928 -261.842)" fill="#ebf2e7"/>
                </g>
              </g>
            </g>
            <path id="Trazado_892699" data-name="Trazado 892699" d="M49.758,355.184l1.571.9,1.889,1.094,98.538,57.044c-.587-1.318-.126-3.951,1.22-6.478,1.568-2.944,3.968-5.272,5.7-5.36L60.643,345.628l-3.62-2.077c2.269,1.474-4.969,13.082-7.265,11.633" transform="translate(-8.471 -58.489)" fill="#375a64"/>
            <path id="Trazado_892700" data-name="Trazado 892700" d="M60.385,345.493l-3.508-2c-1-.615-2.89,1.179-4.547,3.549-2.21,3.144-4,7.307-2.681,8.123l2.584,1.483.933.514c-1.32-.817.47-4.981,2.678-8.125,1.59-2.27,3.409-4.013,4.426-3.592l.011.006a.241.241,0,0,1,.1.047" transform="translate(-8.376 -58.458)" fill="#ececec"/>
            <path id="Trazado_892701" data-name="Trazado 892701" d="M60.045,345.31c-2.314-1.433-9.537,10.233-7.222,11.665l3.5,2.019c-2.313-1.434,4.908-13.1,7.222-11.665Z" transform="translate(-8.916 -58.768)" fill="#d268cc"/>
            <path id="Trazado_892702" data-name="Trazado 892702" d="M67.568,349.65l-3.459-1.994c-2.263-1.423-9.345,9.769-7.427,11.55a.629.629,0,0,0,.12.1l3.5,1.981c-2.269-1.474,4.969-13.082,7.265-11.633" transform="translate(-9.595 -59.167)" fill="#ececec"/>
            <path id="Trazado_892703" data-name="Trazado 892703" d="M53.749,341.756v.025l-.051-.022c-.991-.637-2.88,1.169-4.54,3.546-2.185,3.085-3.97,7.163-2.739,8.068l-14.625-8.4c-1.176-.806-1.443-2.235-1.137-3.817.816-4.261,5.8-9.675,8.96-7.519Z" transform="translate(-5.2 -56.717)" fill="#ff9090"/>
            <path id="Trazado_892704" data-name="Trazado 892704" d="M188.791,427.483c-1.208,1.636-1.088,2.439-1.088,2.439l-15.165-2.985c-1.508-2.3-.517-6.03,1.567-8.69l.665.375Z" transform="translate(-29.251 -71.207)" fill="#ff9090"/>
            <path id="Trazado_892705" data-name="Trazado 892705" d="M195.089,432.63l-4.127-.812s-.188-.8,1.087-2.439l3.6,2.275a.593.593,0,0,1-.04.828.577.577,0,0,1-.521.148" transform="translate(-32.51 -73.101)" fill="#2b454e"/>
            <path id="Trazado_892706" data-name="Trazado 892706" d="M179.918,414.447l.012.007,0-.007,10.4,11.8a1.875,1.875,0,0,0-1.075.587l-14.022-8.86-.665-.375a7.325,7.325,0,0,1,5.344-3.154" transform="translate(-29.721 -70.559)" fill="#ffaaa9"/>
            <path id="Trazado_892707" data-name="Trazado 892707" d="M192.275,429.256a1.435,1.435,0,0,1,1.076-.588l2.524,2.863Z" transform="translate(-32.735 -72.98)" fill="#375a64"/>
            <g id="Grupo_1101856" data-name="Grupo 1101856" transform="translate(25.342 280.88)" opacity="0.2">
              <g id="Grupo_1101855" data-name="Grupo 1101855">
                <g id="Grupo_1101854" data-name="Grupo 1101854" clip-path="url(#clip-path-14)">
                  <path id="Trazado_892708" data-name="Trazado 892708" d="M150.053,404.673,32.136,338.511a10.725,10.725,0,0,0-1.474,3.554c-.313,1.59-.037,3,1.138,3.814l14.687,8.448,1.57.9,1.889,1.094,98.539,57.044c-1.846-2.854.18-7.07,1.568-8.691" transform="translate(-30.542 -338.511)"/>
                </g>
              </g>
            </g>
            <path id="Trazado_892709" data-name="Trazado 892709" d="M364.265,144.339v8.825a2.062,2.062,0,0,0,.78,1.5l6.982,4.914a2.841,2.841,0,0,1,.977,1.482,46.162,46.162,0,0,0,1.769,5.923,1.464,1.464,0,0,1-.382,1.514l-3.936,3.392a1.2,1.2,0,0,0-.246,1.448l5.619,9.731a1.2,1.2,0,0,0,1.377.511l4.905-1.713a1.462,1.462,0,0,1,1.5.426,45.982,45.982,0,0,0,4.244,4.493,2.841,2.841,0,0,1,.795,1.587l.766,8.5a2.057,2.057,0,0,0,.911,1.427l7.642,4.413a.623.623,0,0,0,.628.047v0l5.747-3.3,0,0a.638.638,0,0,0,.295-.52l.432-4.31a1.7,1.7,0,0,1,.746.571l5.651,8.5a1.03,1.03,0,0,0,1.354.317l3.748-2.164.009,0,6.908-3.97a1.03,1.03,0,0,0,.4-1.332l-4.534-9.141a1.705,1.705,0,0,1-.118-.953l3.926,1.77a.643.643,0,0,0,.592.008l0,0,5.753-3.3,0,0a.621.621,0,0,0,.271-.567V175.55a2.056,2.056,0,0,0-.78-1.5l-6.981-4.915a2.836,2.836,0,0,1-.978-1.481,45.868,45.868,0,0,0-1.769-5.924,1.465,1.465,0,0,1,.383-1.514l3.936-3.391a1.2,1.2,0,0,0,.246-1.449l-5.618-9.731a1.2,1.2,0,0,0-1.377-.511l-4.905,1.713a1.463,1.463,0,0,1-1.5-.426,46.1,46.1,0,0,0-4.246-4.494,2.841,2.841,0,0,1-.795-1.587l-.765-8.5a2.059,2.059,0,0,0-.912-1.426l-7.642-4.413a.626.626,0,0,0-.617-.055h0l-5.763,3.306,0,0a.639.639,0,0,0-.289.516l-.432,4.309a1.7,1.7,0,0,1-.746-.571l-5.65-8.5a1.029,1.029,0,0,0-1.354-.317l-5.719,3.287c-.008,0-.018,0-.027.009l-4.92,2.84a1.03,1.03,0,0,0-.4,1.332l4.535,9.141a1.713,1.713,0,0,1,.118.953l-3.926-1.77a.643.643,0,0,0-.592-.008v0l-5.754,3.3v0a.622.622,0,0,0-.271.567m40.66,36.1c-1.859.44-4.228-.079-7.018-1.689-7.13-4.117-12.91-14.128-12.91-22.363,0-3.019.586-5.327,1.674-6.845,2.111-.517,4.691-.051,7.479,1.558,7.13,4.116,12.911,14.129,12.911,22.362a10.561,10.561,0,0,1-2.135,6.977" transform="translate(-62.016 -21.205)" fill="#1a2e35"/>
            <g id="Grupo_1101859" data-name="Grupo 1101859" transform="translate(336.647 163.88)" opacity="0.1">
              <g id="Grupo_1101858" data-name="Grupo 1101858">
                <g id="Grupo_1101857" data-name="Grupo 1101857" clip-path="url(#clip-path-15)">
                  <path id="Trazado_892710" data-name="Trazado 892710" d="M420.771,201.485a1.883,1.883,0,0,0-.1,1.65l4.537,9.141a1.026,1.026,0,0,1-.4,1.328l-1.162.675,6.907-3.967a1.037,1.037,0,0,0,.4-1.335l-4.537-9.141a1.7,1.7,0,0,1-.128-.96l-2.865-1.289a.806.806,0,0,0-1.132.524,15.44,15.44,0,0,1-1.515,3.375M411.4,211.894v-.007a.632.632,0,0,0,.293-.518l.435-4.311a1.754,1.754,0,0,0-.735-.158,15.575,15.575,0,0,1-3.682-.375.806.806,0,0,0-1.02.72l-.742,7.424a.769.769,0,0,1-.233.487Z" transform="translate(-405.721 -197.505)"/>
                </g>
              </g>
            </g>
            <path id="Trazado_892711" data-name="Trazado 892711" d="M375.651,127.924a1.05,1.05,0,0,1,1.237.375l5.646,8.5a1.4,1.4,0,0,0,.375.375l5.752-3.307a1.438,1.438,0,0,1-.374-.36l-5.655-8.5a1.024,1.024,0,0,0-1.35-.322ZM364.59,143.77v.007a.411.411,0,0,1,.2-.068.407.407,0,0,1,.232.008.806.806,0,0,1,.173.06l6.8,3.067a.611.611,0,0,0,.188.061.791.791,0,0,0,.42-.022.824.824,0,0,0,.225-.12,1.05,1.05,0,0,0,.1-.09.976.976,0,0,0,.2-.353,1.05,1.05,0,0,1,.06-.165,15.2,15.2,0,0,1,1.455-3.209,1.967,1.967,0,0,0,.233-.69l-3.93-1.777a.659.659,0,0,0-.592-.007v-.007ZM389.8,129.214a.675.675,0,0,1,.585.076l7.642,4.417a2.011,2.011,0,0,1,.772.923l5.737-3.3a2,2,0,0,0-.765-.923L396.131,126a.618.618,0,0,0-.615-.06Zm25.984,42.648a2.464,2.464,0,0,0,.54.569l6.982,4.912a1.61,1.61,0,0,1,.472.525l5.737-3.292a1.9,1.9,0,0,0-.465-.533l-6.982-4.911a2.456,2.456,0,0,1-.533-.57Zm-4.169-23.488a1.178,1.178,0,0,1,.908.563l5.624,9.734a1.141,1.141,0,0,1,.128.72l5.744-3.307a1.164,1.164,0,0,0-.127-.713l-5.617-9.726a1.206,1.206,0,0,0-.982-.57Z" transform="translate(-62.071 -21.205)" fill="#2b454e"/>
            <path id="Trazado_892712" data-name="Trazado 892712" d="M365.046,155.343l6.982,4.914a2.841,2.841,0,0,1,.977,1.482,45.9,45.9,0,0,0,1.769,5.923,1.465,1.465,0,0,1-.383,1.514l-3.936,3.391a1.2,1.2,0,0,0-.246,1.449l5.618,9.731a1.2,1.2,0,0,0,1.377.511l4.906-1.713a1.462,1.462,0,0,1,1.5.426,45.883,45.883,0,0,0,4.244,4.493,2.841,2.841,0,0,1,.795,1.587l.765,8.5a2.062,2.062,0,0,0,.911,1.426l7.643,4.413a.57.57,0,0,0,.921-.472l.746-7.425a.806.806,0,0,1,1.02-.719,15.282,15.282,0,0,0,3.679.373,1.882,1.882,0,0,1,1.48.734l5.65,8.5a1.03,1.03,0,0,0,1.354.317l4.92-2.84a1.029,1.029,0,0,0,.4-1.331l-4.535-9.142a1.88,1.88,0,0,1,.1-1.649,15.243,15.243,0,0,0,1.516-3.372.807.807,0,0,1,1.133-.525l6.8,3.067a.57.57,0,0,0,.87-.562v-8.824a2.056,2.056,0,0,0-.78-1.5l-6.982-4.915a2.844,2.844,0,0,1-.977-1.481,45.994,45.994,0,0,0-1.768-5.924,1.465,1.465,0,0,1,.382-1.513l3.937-3.392a1.2,1.2,0,0,0,.246-1.448l-5.618-9.732a1.2,1.2,0,0,0-1.377-.511l-4.906,1.713a1.463,1.463,0,0,1-1.5-.426,46,46,0,0,0-4.246-4.494,2.841,2.841,0,0,1-.795-1.588l-.765-8.5a2.061,2.061,0,0,0-.911-1.426l-7.643-4.412a.57.57,0,0,0-.921.472l-.746,7.424a.807.807,0,0,1-1.02.719,15.2,15.2,0,0,0-3.679-.373,1.879,1.879,0,0,1-1.479-.734l-5.651-8.5a1.028,1.028,0,0,0-1.353-.317l-4.92,2.84a1.03,1.03,0,0,0-.4,1.332l4.534,9.141a1.878,1.878,0,0,1-.1,1.648,15.268,15.268,0,0,0-1.517,3.373.808.808,0,0,1-1.133.524l-6.8-3.066a.57.57,0,0,0-.87.562v8.825a2.062,2.062,0,0,0,.78,1.5m16.193,3.884c0-8.234,5.78-11.571,12.911-7.454s12.911,14.129,12.911,22.362-5.781,11.571-12.912,7.454-12.91-14.128-12.91-22.362" transform="translate(-62.016 -21.882)" fill="#375a64"/>
            <path id="Trazado_892713" data-name="Trazado 892713" d="M335.637,208.232a1.452,1.452,0,0,1-.8,1.617l-2.346,1a1.162,1.162,0,0,0-.607,1.548l2.73,6.119a1.863,1.863,0,0,0,1.667,1.025l2.9-.144a2.33,2.33,0,0,1,1.837.932c.657.962,1.357,1.891,2.1,2.776a3.4,3.4,0,0,1,.7,2.079l-.27,4.3a2.524,2.524,0,0,0,.858,1.916l4.516,3.551a.781.781,0,0,0,.865.134v.006l.055-.032.006,0,4.719-2.721,0,0a.877.877,0,0,0,.388-.528l.13-.432a2.807,2.807,0,0,1,1.128,1.043l2.834,5.4a1.632,1.632,0,0,0,1.708.791l3.013-.674a1.071,1.071,0,0,0,.334-.15l.006.016,4.765-2.751,0,0a1,1,0,0,0,.4-1.225l-1.661-4.493,1.719,1.131a.763.763,0,0,0,.819.082v.007l4.773-2.755-.006,0a.823.823,0,0,0,.361-.591l.752-4.364a2.424,2.424,0,0,0-.672-1.971l-4-3.679a3.656,3.656,0,0,1-.978-1.984,27.353,27.353,0,0,0-.5-2.919,1.425,1.425,0,0,1,.076-.833l3.219-1.857,0-.006a1.156,1.156,0,0,0,.465-1.469l-2.729-6.12a1.865,1.865,0,0,0-1.668-1.025l-2.9.144a2.331,2.331,0,0,1-1.838-.932c-.657-.962-1.357-1.891-2.1-2.776a3.4,3.4,0,0,1-.7-2.079l.27-4.3a2.528,2.528,0,0,0-.858-1.916l-4.517-3.551a.774.774,0,0,0-.891-.122l0-.006-4.759,2.746v0a.88.88,0,0,0-.382.524l-.13.432A2.807,2.807,0,0,1,349.3,188.1l-2.834-5.4a1.634,1.634,0,0,0-1.708-.791l-3.014.674a1.109,1.109,0,0,0-.314.126l0,0-4.744,2.737.02.013a.988.988,0,0,0-.46,1.242l1.661,4.493-1.719-1.132a.758.758,0,0,0-.827-.076v-.008l-4.741,2.736.005,0a.813.813,0,0,0-.383.6l-.752,4.364a2.424,2.424,0,0,0,.671,1.971l4,3.68a3.651,3.651,0,0,1,.978,1.983,27.148,27.148,0,0,0,.5,2.919m23.019,12.254a9.9,9.9,0,0,1-5.129-2.293c-4.9-3.848-8.146-11.137-7.26-16.278a7.753,7.753,0,0,1,.563-1.893,9.9,9.9,0,0,1,5.149,2.3c4.9,3.848,8.146,11.137,7.26,16.278a7.357,7.357,0,0,1-.583,1.89" transform="translate(-56.09 -30.964)" fill="#9ac288"/>
            <g id="Grupo_1101862" data-name="Grupo 1101862" transform="translate(273.068 150.908)" opacity="0.2">
              <g id="Grupo_1101861" data-name="Grupo 1101861">
                <g id="Grupo_1101860" data-name="Grupo 1101860" clip-path="url(#clip-path-16)">
                  <path id="Trazado_892714" data-name="Trazado 892714" d="M335.273,208.232a1.452,1.452,0,0,1-.8,1.617l-2.346,1a1.162,1.162,0,0,0-.607,1.548l2.73,6.119a1.863,1.863,0,0,0,1.667,1.025l2.9-.144a2.33,2.33,0,0,1,1.837.932c.657.962,1.357,1.891,2.1,2.776a3.4,3.4,0,0,1,.7,2.079l-.27,4.3a2.524,2.524,0,0,0,.858,1.916l4.516,3.551a.781.781,0,0,0,.865.134v.006l.055-.032.006,0,4.719-2.721,0,0a.877.877,0,0,0,.388-.528l.13-.432a2.807,2.807,0,0,1,1.128,1.043l2.834,5.4a1.632,1.632,0,0,0,1.708.791l3.013-.674a1.071,1.071,0,0,0,.334-.15l.006.016,4.765-2.751,0,0a1,1,0,0,0,.4-1.225l-1.661-4.493,1.719,1.131a.763.763,0,0,0,.819.082v.007l4.773-2.755-.006,0a.821.821,0,0,0,.361-.591l.752-4.364a2.424,2.424,0,0,0-.672-1.971l-4-3.679a3.656,3.656,0,0,1-.978-1.984,27.352,27.352,0,0,0-.5-2.919,1.425,1.425,0,0,1,.076-.833l3.219-1.857,0-.006a1.156,1.156,0,0,0,.465-1.469l-2.729-6.12a1.865,1.865,0,0,0-1.668-1.025l-2.9.144a2.331,2.331,0,0,1-1.838-.932c-.657-.962-1.357-1.891-2.1-2.776a3.4,3.4,0,0,1-.7-2.079l.27-4.3a2.529,2.529,0,0,0-.858-1.916l-4.517-3.551a.774.774,0,0,0-.891-.122l0-.006-4.759,2.746v0a.88.88,0,0,0-.382.524l-.13.432a2.807,2.807,0,0,1-1.128-1.043l-2.834-5.4a1.634,1.634,0,0,0-1.708-.791l-3.014.674a1.109,1.109,0,0,0-.314.126l0,0-4.744,2.737.02.013a.988.988,0,0,0-.46,1.242l1.662,4.493-1.72-1.132a.758.758,0,0,0-.827-.076v-.008l-4.741,2.736.005,0a.814.814,0,0,0-.383.6l-.752,4.364a2.424,2.424,0,0,0,.671,1.971l4,3.68a3.651,3.651,0,0,1,.978,1.983,27.148,27.148,0,0,0,.5,2.919m23.019,12.254a9.9,9.9,0,0,1-5.129-2.293c-4.9-3.848-8.146-11.137-7.26-16.278a7.754,7.754,0,0,1,.563-1.893,9.9,9.9,0,0,1,5.149,2.3c4.9,3.848,8.146,11.137,7.26,16.278a7.357,7.357,0,0,1-.583,1.89" transform="translate(-329.097 -181.871)" fill="#9ac288"/>
                </g>
              </g>
            </g>
            <g id="Grupo_1101865" data-name="Grupo 1101865" transform="translate(293.727 196.674)" opacity="0.1">
              <g id="Grupo_1101864" data-name="Grupo 1101864">
                <g id="Grupo_1101863" data-name="Grupo 1101863" clip-path="url(#clip-path-17)">
                  <path id="Trazado_892715" data-name="Trazado 892715" d="M367.115,238.531a2,2,0,0,0-.466,1.9l2.042,5.52a1,1,0,0,1-.354,1.193l4.71-2.713a1,1,0,0,0,.4-1.221l-1.66-4.495-2.284-1.5a1.151,1.151,0,0,0-1.6.363,7.832,7.832,0,0,1-.783.951m-8.374,3.2v-.009a.9.9,0,0,0,.392-.523l.13-.438a2.365,2.365,0,0,0-.587-.242,12.713,12.713,0,0,1-1.855-.616,1.033,1.033,0,0,0-1.427.653l-1.016,3.385a.856.856,0,0,1-.383.523Z" transform="translate(-353.994 -237.028)"/>
                </g>
              </g>
            </g>
            <g id="Grupo_1101868" data-name="Grupo 1101868" transform="translate(285.273 169.043)" opacity="0.1">
              <g id="Grupo_1101867" data-name="Grupo 1101867">
                <g id="Grupo_1101866" data-name="Grupo 1101866" clip-path="url(#clip-path-18)">
                  <path id="Trazado_892716" data-name="Trazado 892716" d="M351.216,224.656c4.224,3.32,8.29,3,9.884-.457a9.837,9.837,0,0,1-5.129-2.284c-4.9-3.852-8.15-11.134-7.264-16.281a7.494,7.494,0,0,1,.568-1.884c-2.685-.233-4.764,1.38-5.325,4.625-.885,5.148,2.369,12.431,7.264,16.281" transform="translate(-343.806 -203.727)"/>
                </g>
              </g>
            </g>
            <g id="Grupo_1101874" data-name="Grupo 1101874" transform="translate(274.518 150.907)" opacity="0.25">
              <g id="Grupo_1101873" data-name="Grupo 1101873">
                <g id="Grupo_1101872" data-name="Grupo 1101872" clip-path="url(#clip-path-19)">
                  <path id="Trazado_892717" data-name="Trazado 892717" d="M360.973,203.693a1.929,1.929,0,0,0,.83.158l2.909-.14a1.86,1.86,0,0,1,1.2.439l4.755-2.742a1.813,1.813,0,0,0-1.2-.438l-2.91.14a1.965,1.965,0,0,1-.83-.178Zm-9.8-15.517v.01a.766.766,0,0,1,.9.121l4.513,3.543a2.417,2.417,0,0,1,.746,1.184l4.756-2.741a2.5,2.5,0,0,0-.746-1.185l-4.523-3.553a.766.766,0,0,0-.885-.121Zm15.7,31.8,3.954,3.627a2.305,2.305,0,0,1,.625,1.128L376.2,222a2.336,2.336,0,0,0-.616-1.138l-3.954-3.637Zm-29.961-34.54a1.465,1.465,0,0,1,.308-.111l3.012-.681a1.632,1.632,0,0,1,1.706.792l2.835,5.4a2.457,2.457,0,0,0,.643.728l4.756-2.742a2.472,2.472,0,0,1-.644-.728l-2.834-5.4a1.646,1.646,0,0,0-1.707-.792l-3.012.68a.863.863,0,0,0-.317.122Zm-6.07,7.264a.626.626,0,0,1,.187-.056.6.6,0,0,1,.335.019,1.241,1.241,0,0,1,.3.139l4,2.63a.807.807,0,0,0,.29.13,1.024,1.024,0,0,0,.531.028,1.128,1.128,0,0,0,.4-.158,2.023,2.023,0,0,0,.178-.131,2.287,2.287,0,0,0,.2-.233,7.837,7.837,0,0,1,.774-.951,1.992,1.992,0,0,0,.475-1.912l-.383-1.016-1.716-1.138a.782.782,0,0,0-.83-.075v-.009Z" transform="translate(-330.844 -181.87)" fill="#375a64"/>
                  <g id="Grupo_1101871" data-name="Grupo 1101871" opacity="0.7">
                    <g id="Grupo_1101870" data-name="Grupo 1101870">
                      <g id="Grupo_1101869" data-name="Grupo 1101869" clip-path="url(#clip-path-19)">
                        <path id="Trazado_892718" data-name="Trazado 892718" d="M360.973,203.693a1.929,1.929,0,0,0,.83.158l2.909-.14a1.86,1.86,0,0,1,1.2.439l4.755-2.742a1.813,1.813,0,0,0-1.2-.438l-2.91.14a1.965,1.965,0,0,1-.83-.178Zm-9.8-15.517v.01a.766.766,0,0,1,.9.121l4.513,3.543a2.417,2.417,0,0,1,.746,1.184l4.756-2.741a2.5,2.5,0,0,0-.746-1.185l-4.523-3.553a.766.766,0,0,0-.885-.121Zm15.7,31.8,3.954,3.627a2.305,2.305,0,0,1,.625,1.128L376.2,222a2.336,2.336,0,0,0-.616-1.138l-3.954-3.637Zm-29.961-34.54a1.465,1.465,0,0,1,.308-.111l3.012-.681a1.632,1.632,0,0,1,1.706.792l2.835,5.4a2.457,2.457,0,0,0,.643.728l4.756-2.742a2.472,2.472,0,0,1-.644-.728l-2.834-5.4a1.646,1.646,0,0,0-1.707-.792l-3.012.68a.863.863,0,0,0-.317.122Zm-6.07,7.264a.626.626,0,0,1,.187-.056.6.6,0,0,1,.335.019,1.241,1.241,0,0,1,.3.139l4,2.63a.807.807,0,0,0,.29.13,1.024,1.024,0,0,0,.531.028,1.128,1.128,0,0,0,.4-.158,2.023,2.023,0,0,0,.178-.131,2.287,2.287,0,0,0,.2-.233,7.837,7.837,0,0,1,.774-.951,1.992,1.992,0,0,0,.475-1.912l-.383-1.016-1.716-1.138a.782.782,0,0,0-.83-.075v-.009Z" transform="translate(-330.844 -181.87)" fill="#375a64"/>
                      </g>
                    </g>
                  </g>
                </g>
              </g>
            </g>
            <g id="Grupo_1101877" data-name="Grupo 1101877" transform="translate(273.369 153.652)" opacity="0.3">
              <g id="Grupo_1101876" data-name="Grupo 1101876">
                <g id="Grupo_1101875" data-name="Grupo 1101875" clip-path="url(#clip-path-21)">
                  <path id="Trazado_892719" data-name="Trazado 892719" d="M330.154,200.212l4,3.681a3.654,3.654,0,0,1,.978,1.982,27.162,27.162,0,0,0,.5,2.92,1.452,1.452,0,0,1-.8,1.616l-2.346,1a1.162,1.162,0,0,0-.607,1.548l2.73,6.12a1.864,1.864,0,0,0,1.667,1.024l2.9-.144a2.332,2.332,0,0,1,1.838.932c.656.963,1.357,1.891,2.1,2.776a3.392,3.392,0,0,1,.7,2.079l-.27,4.3a2.529,2.529,0,0,0,.859,1.917l4.516,3.551a.753.753,0,0,0,1.275-.4l1.019-3.382a1.027,1.027,0,0,1,1.425-.651,14.478,14.478,0,0,0,1.856.613,2.973,2.973,0,0,1,1.713,1.288l2.834,5.4a1.633,1.633,0,0,0,1.708.792l3.013-.674a1.008,1.008,0,0,0,.746-1.372l-2.039-5.515a1.983,1.983,0,0,1,.469-1.905,8.2,8.2,0,0,0,.779-.954,1.159,1.159,0,0,1,1.6-.362l4,2.631a.718.718,0,0,0,1.192-.517l.752-4.364a2.424,2.424,0,0,0-.671-1.971l-4-3.679a3.657,3.657,0,0,1-.979-1.984,27.133,27.133,0,0,0-.5-2.919,1.453,1.453,0,0,1,.8-1.617l2.346-1a1.161,1.161,0,0,0,.607-1.548l-2.73-6.12a1.863,1.863,0,0,0-1.668-1.025l-2.9.144a2.332,2.332,0,0,1-1.838-.932c-.656-.962-1.357-1.891-2.1-2.776a3.4,3.4,0,0,1-.7-2.079l.27-4.3a2.529,2.529,0,0,0-.858-1.916l-4.517-3.551a.754.754,0,0,0-1.274.4l-1.019,3.383a1.027,1.027,0,0,1-1.425.651,14.586,14.586,0,0,0-1.857-.614,2.964,2.964,0,0,1-1.712-1.287l-2.834-5.4a1.632,1.632,0,0,0-1.708-.792l-3.014.675a1.008,1.008,0,0,0-.746,1.371l2.04,5.516a1.983,1.983,0,0,1-.469,1.905,8.2,8.2,0,0,0-.779.954,1.161,1.161,0,0,1-1.606.362l-4-2.631a.718.718,0,0,0-1.192.516l-.752,4.365a2.422,2.422,0,0,0,.671,1.971m11.358,5.008c.885-5.142,5.572-6.189,10.466-2.34s8.146,11.136,7.261,16.278-5.572,6.189-10.467,2.341-8.146-11.137-7.26-16.279" transform="translate(-329.459 -185.178)" fill="#6a8459"/>
                </g>
              </g>
            </g>
            <g id="Grupo_1101880" data-name="Grupo 1101880" transform="translate(273.369 153.652)" opacity="0.55">
              <g id="Grupo_1101879" data-name="Grupo 1101879">
                <g id="Grupo_1101878" data-name="Grupo 1101878" clip-path="url(#clip-path-21)">
                  <path id="Trazado_892720" data-name="Trazado 892720" d="M330.154,200.212l4,3.681a3.654,3.654,0,0,1,.978,1.982,27.162,27.162,0,0,0,.5,2.92,1.452,1.452,0,0,1-.8,1.616l-2.346,1a1.162,1.162,0,0,0-.607,1.548l2.73,6.12a1.864,1.864,0,0,0,1.667,1.024l2.9-.144a2.332,2.332,0,0,1,1.838.932c.656.963,1.357,1.891,2.1,2.776a3.392,3.392,0,0,1,.7,2.079l-.27,4.3a2.529,2.529,0,0,0,.859,1.917l4.516,3.551a.753.753,0,0,0,1.275-.4l1.019-3.382a1.027,1.027,0,0,1,1.425-.651,14.478,14.478,0,0,0,1.856.613,2.973,2.973,0,0,1,1.713,1.288l2.834,5.4a1.633,1.633,0,0,0,1.708.792l3.013-.674a1.008,1.008,0,0,0,.746-1.372l-2.039-5.515a1.983,1.983,0,0,1,.469-1.905,8.2,8.2,0,0,0,.779-.954,1.159,1.159,0,0,1,1.6-.362l4,2.631a.718.718,0,0,0,1.192-.517l.752-4.364a2.424,2.424,0,0,0-.671-1.971l-4-3.679a3.657,3.657,0,0,1-.979-1.984,27.133,27.133,0,0,0-.5-2.919,1.453,1.453,0,0,1,.8-1.617l2.346-1a1.161,1.161,0,0,0,.607-1.548l-2.73-6.12a1.863,1.863,0,0,0-1.668-1.025l-2.9.144a2.332,2.332,0,0,1-1.838-.932c-.656-.962-1.357-1.891-2.1-2.776a3.4,3.4,0,0,1-.7-2.079l.27-4.3a2.529,2.529,0,0,0-.858-1.916l-4.517-3.551a.754.754,0,0,0-1.274.4l-1.019,3.383a1.027,1.027,0,0,1-1.425.651,14.586,14.586,0,0,0-1.857-.614,2.964,2.964,0,0,1-1.712-1.287l-2.834-5.4a1.632,1.632,0,0,0-1.708-.792l-3.014.675a1.008,1.008,0,0,0-.746,1.371l2.04,5.516a1.983,1.983,0,0,1-.469,1.905,8.2,8.2,0,0,0-.779.954,1.161,1.161,0,0,1-1.606.362l-4-2.631a.718.718,0,0,0-1.192.516l-.752,4.365a2.422,2.422,0,0,0,.671,1.971m11.358,5.008c.885-5.142,5.572-6.189,10.466-2.34s8.146,11.136,7.261,16.278-5.572,6.189-10.467,2.341-8.146-11.137-7.26-16.279" transform="translate(-329.459 -185.178)" fill="#fff"/>
                </g>
              </g>
            </g>
            <g id="Grupo_1101883" data-name="Grupo 1101883" transform="translate(273.369 153.652)" opacity="0.55">
              <g id="Grupo_1101882" data-name="Grupo 1101882">
                <g id="Grupo_1101881" data-name="Grupo 1101881" clip-path="url(#clip-path-21)">
                  <path id="Trazado_892721" data-name="Trazado 892721" d="M340.292,185.9a.934.934,0,0,1,.777.437l2.834,5.4a3.677,3.677,0,0,0,2.172,1.651,13.78,13.78,0,0,1,1.764.582,1.894,1.894,0,0,0,.719.143,1.715,1.715,0,0,0,1.666-1.254l1.019-3.382a.335.335,0,0,1,.049-.105c.008.008.042.023.091.061l4.516,3.551a1.838,1.838,0,0,1,.585,1.305l-.27,4.3a4.117,4.117,0,0,0,.869,2.587c.716.856,1.408,1.772,2.055,2.72a3.063,3.063,0,0,0,2.361,1.247l.107,0,2.9-.144h0a1.177,1.177,0,0,1,.973.6l2.73,6.12a.442.442,0,0,1-.233.592l-2.346,1a2.183,2.183,0,0,0-1.224,2.439,26.5,26.5,0,0,1,.489,2.841,4.377,4.377,0,0,0,1.206,2.432l4,3.679a1.732,1.732,0,0,1,.449,1.319l-.752,4.364a.484.484,0,0,1-.018.075.421.421,0,0,1-.068-.037l-4-2.631a1.827,1.827,0,0,0-1-.3,1.955,1.955,0,0,0-1.586.855,7.466,7.466,0,0,1-.711.872,2.7,2.7,0,0,0-.622,2.65l2.039,5.516a.291.291,0,0,1-.227.418l-3.014.674a.6.6,0,0,1-.136.014.937.937,0,0,1-.777-.437l-2.834-5.4a3.672,3.672,0,0,0-2.172-1.651,13.77,13.77,0,0,1-1.763-.583,1.909,1.909,0,0,0-.719-.143,1.717,1.717,0,0,0-1.666,1.254l-1.019,3.382a.354.354,0,0,1-.049.106c-.008-.009-.043-.024-.091-.062l-4.516-3.55a1.841,1.841,0,0,1-.584-1.306l.27-4.3a4.12,4.12,0,0,0-.87-2.587c-.716-.856-1.408-1.771-2.055-2.72a3.063,3.063,0,0,0-2.361-1.247l-.107,0-2.9.144h0a1.176,1.176,0,0,1-.973-.6l-2.73-6.12a.442.442,0,0,1,.232-.592l2.347-1a2.184,2.184,0,0,0,1.225-2.439,26.3,26.3,0,0,1-.49-2.841,4.372,4.372,0,0,0-1.206-2.431l-4-3.68a1.733,1.733,0,0,1-.45-1.319l.752-4.364a.482.482,0,0,1,.019-.075.494.494,0,0,1,.067.037l4,2.632a1.826,1.826,0,0,0,1,.3,1.955,1.955,0,0,0,1.586-.855,7.541,7.541,0,0,1,.711-.871,2.7,2.7,0,0,0,.622-2.651l-2.04-5.515a.291.291,0,0,1,.228-.419l3.014-.674a.654.654,0,0,1,.137-.014m14.1,38.641c2.909,0,4.984-1.966,5.552-5.259.923-5.367-2.452-12.978-7.526-16.966a10.122,10.122,0,0,0-6.07-2.474c-2.909,0-4.984,1.966-5.551,5.258-.924,5.367,2.451,12.978,7.525,16.967a10.122,10.122,0,0,0,6.07,2.474m-14.1-39.362a1.332,1.332,0,0,0-.294.032l-3.014.674a1.009,1.009,0,0,0-.746,1.371l2.04,5.517a1.979,1.979,0,0,1-.469,1.9,8.271,8.271,0,0,0-.779.954,1.232,1.232,0,0,1-1,.548,1.106,1.106,0,0,1-.609-.186l-4-2.632a.931.931,0,0,0-.507-.17c-.339,0-.609.247-.685.687l-.752,4.364a2.425,2.425,0,0,0,.671,1.971l4,3.68a3.648,3.648,0,0,1,.978,1.983,27.148,27.148,0,0,0,.5,2.919,1.451,1.451,0,0,1-.8,1.616l-2.346,1a1.162,1.162,0,0,0-.607,1.548l2.73,6.12a1.873,1.873,0,0,0,1.6,1.026l.066,0,2.9-.143.071,0a2.35,2.35,0,0,1,1.767.934c.657.962,1.357,1.891,2.1,2.776a3.4,3.4,0,0,1,.7,2.08l-.269,4.3a2.527,2.527,0,0,0,.857,1.917l4.517,3.551a.914.914,0,0,0,.559.216.767.767,0,0,0,.715-.619l1.019-3.382a1,1,0,0,1,.977-.742,1.2,1.2,0,0,1,.448.09,14.36,14.36,0,0,0,1.857.613,2.974,2.974,0,0,1,1.712,1.288l2.834,5.4a1.648,1.648,0,0,0,1.415.823,1.338,1.338,0,0,0,.294-.032l3.013-.674a1.009,1.009,0,0,0,.747-1.371l-2.04-5.516a1.981,1.981,0,0,1,.469-1.9,8.2,8.2,0,0,0,.779-.955,1.23,1.23,0,0,1,1-.548,1.1,1.1,0,0,1,.608.186l4,2.631a.931.931,0,0,0,.507.17.723.723,0,0,0,.685-.687l.751-4.364a2.421,2.421,0,0,0-.671-1.971l-4-3.68a3.652,3.652,0,0,1-.979-1.983,27.112,27.112,0,0,0-.5-2.92,1.453,1.453,0,0,1,.8-1.617l2.346-1a1.162,1.162,0,0,0,.607-1.548l-2.73-6.12a1.873,1.873,0,0,0-1.6-1.026h-.066l-2.9.144c-.024,0-.047,0-.072,0a2.353,2.353,0,0,1-1.767-.933c-.656-.963-1.357-1.892-2.1-2.776a3.4,3.4,0,0,1-.7-2.08l.27-4.3a2.528,2.528,0,0,0-.859-1.917l-4.516-3.551a.913.913,0,0,0-.559-.216.767.767,0,0,0-.715.619l-1.019,3.382a1,1,0,0,1-.977.742,1.2,1.2,0,0,1-.448-.09,14.493,14.493,0,0,0-1.857-.613,2.971,2.971,0,0,1-1.712-1.288l-2.834-5.4a1.645,1.645,0,0,0-1.414-.823m14.1,38.641a9.439,9.439,0,0,1-5.626-2.32c-4.9-3.849-8.146-11.137-7.26-16.279.525-3.051,2.39-4.661,4.842-4.661a9.436,9.436,0,0,1,5.625,2.321c4.9,3.848,8.146,11.136,7.261,16.278-.525,3.051-2.389,4.661-4.842,4.661" transform="translate(-329.459 -185.178)" fill="#fff"/>
                </g>
              </g>
            </g>
            <path id="Trazado_892722" data-name="Trazado 892722" d="M184.536,209.7c-5.224-1.3-6.431-5.49-2.7-9.365s11-5.965,16.222-4.668,6.431,5.49,2.7,9.366-11,5.965-16.222,4.667" transform="translate(-30.589 -33.247)" fill="#1a2e35"/>
            <path id="Trazado_892723" data-name="Trazado 892723" d="M203.056,202.761l-1.86.535a5.938,5.938,0,0,0-3.066-1.678,15.174,15.174,0,0,0-13.193,3.8,5.94,5.94,0,0,0-1.705,3.05l-1.859.535,3.107,2.766.007,0a6.457,6.457,0,0,0,2.642,1.266,15.174,15.174,0,0,0,13.193-3.8,6.45,6.45,0,0,0,1.565-2.477l.007,0Z" transform="translate(-30.879 -34.272)" fill="#1a2e35"/>
            <path id="Trazado_892724" data-name="Trazado 892724" d="M178.335,206c-7.72-1.938-9.487-8.143-3.949-13.858s16.285-8.778,24-6.839,9.487,8.143,3.949,13.859-16.286,8.777-24,6.839" transform="translate(-29.14 -31.449)" fill="#375a64"/>
            <path id="Trazado_892725" data-name="Trazado 892725" d="M176.971,203.288c-8.006-2.01-9.839-8.446-4.1-14.374s16.891-9.1,24.9-7.094,9.839,8.446,4.095,14.375-16.89,9.1-24.9,7.093" transform="translate(-28.862 -30.852)" fill="#2b454e"/>
            <path id="Trazado_892726" data-name="Trazado 892726" d="M175.693,200.266c-8.209-2.061-10.088-8.659-4.2-14.737s17.318-9.335,25.526-7.273,10.088,8.659,4.2,14.737-17.318,9.334-25.526,7.273" transform="translate(-28.613 -30.243)" fill="#375a64"/>
            <path id="Trazado_892727" data-name="Trazado 892727" d="M174.416,197.242c-8.411-2.113-10.337-8.873-4.3-15.1s17.745-9.564,26.156-7.452,10.338,8.873,4.3,15.1-17.745,9.565-26.156,7.452" transform="translate(-28.363 -29.633)" fill="#2b454e"/>
            <path id="Trazado_892728" data-name="Trazado 892728" d="M173.138,194.219c-8.614-2.163-10.586-9.087-4.406-15.465s18.172-9.794,26.786-7.631,10.587,9.087,4.407,15.465-18.173,9.794-26.787,7.631" transform="translate(-28.114 -29.023)" fill="#375a64"/>
            <path id="Trazado_892729" data-name="Trazado 892729" d="M171.861,191.2c-8.816-2.214-10.835-9.3-4.51-15.828s18.6-10.025,27.417-7.811,10.835,9.3,4.51,15.828-18.6,10.025-27.417,7.811" transform="translate(-27.864 -28.413)" fill="#2b454e"/>
            <path id="Trazado_892730" data-name="Trazado 892730" d="M199.967,161.405c-.858-2.993-3.693-5.422-8.3-6.58-9.227-2.317-22.072,1.343-28.692,8.174-3.31,3.416-4.436,6.977-3.58,9.973.332,1.162,1.632,5.733,1.965,6.9.856,3,3.693,5.427,8.309,6.582,9.232,2.312,22.077-1.348,28.692-8.174,3.31-3.415,4.433-6.978,3.573-9.975-.332-1.159-1.63-5.731-1.965-6.9" transform="translate(-27.09 -26.241)" fill="#9ac288"/>
            <path id="Trazado_892731" data-name="Trazado 892731" d="M126.9,2.444a63.443,63.443,0,0,0-43.632,78.4c13.8,48.437,56.055,45.093,61.617,64.616.885,3.11,3.827,5.635,8.614,6.836,9.573,2.4,22.9-1.392,29.769-8.481,3.434-3.544,4.6-7.24,3.717-10.35-5.562-19.522,32.111-38.95,18.312-87.387A63.442,63.442,0,0,0,126.9,2.444" transform="translate(-13.76 0)" fill="#9ac288"/>
            <g id="Grupo_1101886" data-name="Grupo 1101886" transform="translate(67.061)" opacity="0.8" style="mix-blend-mode: screen;isolation: isolate">
              <g id="Grupo_1101885" data-name="Grupo 1101885">
                <g id="Grupo_1101884" data-name="Grupo 1101884" clip-path="url(#clip-path-24)">
                  <path id="Trazado_892732" data-name="Trazado 892732" d="M126.9,2.444a63.443,63.443,0,0,0-43.632,78.4c13.8,48.437,56.055,45.093,61.617,64.616.885,3.11,3.827,5.635,8.614,6.836,9.573,2.4,22.9-1.392,29.769-8.481,3.434-3.544,4.6-7.24,3.717-10.35-5.562-19.522,32.111-38.95,18.312-87.387A63.442,63.442,0,0,0,126.9,2.444" transform="translate(-80.821 0)" fill="#fff"/>
                </g>
              </g>
            </g>
            <path id="Trazado_892733" data-name="Trazado 892733" d="M169.371,176.611c-8.006-2.01-9.839-8.445-4.1-14.374s16.89-9.1,24.9-7.093,9.84,8.446,4.095,14.374-16.89,9.1-24.9,7.093" transform="translate(-27.568 -26.31)" fill="#9ac288"/>
            <g id="Grupo_1101889" data-name="Grupo 1101889" transform="translate(138.187 138.052)" opacity="0.25">
              <g id="Grupo_1101888" data-name="Grupo 1101888">
                <g id="Grupo_1101887" data-name="Grupo 1101887" clip-path="url(#clip-path-25)">
                  <path id="Trazado_892734" data-name="Trazado 892734" d="M197.375,168.414a13.747,13.747,0,0,1-2.32,3.122c-5.749,5.925-16.9,9.1-24.9,7.094a13.765,13.765,0,0,1-3.617-1.431,13.552,13.552,0,0,1,2.32-3.122c5.746-5.932,16.894-9.107,24.9-7.093a13.365,13.365,0,0,1,3.617,1.43" transform="translate(-166.541 -166.378)" fill="#d268cc"/>
                </g>
              </g>
            </g>
            <g id="Grupo_1101892" data-name="Grupo 1101892" transform="translate(138.187 138.052)" opacity="0.8" style="mix-blend-mode: screen;isolation: isolate">
              <g id="Grupo_1101891" data-name="Grupo 1101891">
                <g id="Grupo_1101890" data-name="Grupo 1101890" clip-path="url(#clip-path-25)">
                  <path id="Trazado_892735" data-name="Trazado 892735" d="M197.375,168.414a13.747,13.747,0,0,1-2.32,3.122c-5.749,5.925-16.9,9.1-24.9,7.094a13.765,13.765,0,0,1-3.617-1.431,13.552,13.552,0,0,1,2.32-3.122c5.746-5.932,16.894-9.107,24.9-7.093a13.365,13.365,0,0,1,3.617,1.43" transform="translate(-166.541 -166.378)" fill="#fff"/>
                </g>
              </g>
            </g>
            <g id="Grupo_1101895" data-name="Grupo 1101895" transform="translate(147.911 15.579)" opacity="0.4">
              <g id="Grupo_1101894" data-name="Grupo 1101894">
                <g id="Grupo_1101893" data-name="Grupo 1101893" clip-path="url(#clip-path-27)">
                  <path id="Trazado_892736" data-name="Trazado 892736" d="M181.546,21.425a9.963,9.963,0,0,0-1.776,1.884,9.337,9.337,0,0,0-.6,9.16c2.546,5.656,9.275,7.716,13.874,11.367a54.479,54.479,0,0,1,12.692,14.37c.994,1.639,2.466,4.407,3.836,5.747a4.961,4.961,0,0,0,6.656.314c2.01-1.937,2.391-5.253,2.063-7.67-1.954-14.372-7.719-23.894-17.705-32.533-5.443-4.71-12.772-7.738-19.044-2.639" transform="translate(-178.26 -18.776)" fill="#fff"/>
                </g>
              </g>
            </g>
            <g id="Grupo_1101898" data-name="Grupo 1101898" transform="translate(81.954 6.616)" opacity="0.2">
              <g id="Grupo_1101897" data-name="Grupo 1101897">
                <g id="Grupo_1101896" data-name="Grupo 1101896" clip-path="url(#clip-path-28)">
                  <path id="Trazado_892737" data-name="Trazado 892737" d="M187.542,40.833A45.247,45.247,0,1,1,131.629,9.717a45.247,45.247,0,0,1,55.914,31.116" transform="translate(-98.77 -7.973)" fill="#fff"/>
                </g>
              </g>
            </g>
            <g id="Grupo_1101901" data-name="Grupo 1101901" transform="translate(180.353 65.745)" opacity="0.4">
              <g id="Grupo_1101900" data-name="Grupo 1101900">
                <g id="Grupo_1101899" data-name="Grupo 1101899" clip-path="url(#clip-path-29)">
                  <path id="Trazado_892738" data-name="Trazado 892738" d="M217.365,84.173a6.972,6.972,0,0,0,2.194,5.284,4.066,4.066,0,0,0,5.7-.305,6.552,6.552,0,0,0,1.393-6.109c-.67-2.226-2.8-4.2-5.349-3.739a5.2,5.2,0,0,0-3.941,4.87" transform="translate(-217.358 -79.235)" fill="#fff"/>
                </g>
              </g>
            </g>
            <g id="Grupo_1101904" data-name="Grupo 1101904" transform="translate(77.505 100.884)" opacity="0.36">
              <g id="Grupo_1101903" data-name="Grupo 1101903">
                <g id="Grupo_1101902" data-name="Grupo 1101902" clip-path="url(#clip-path-30)">
                  <path id="Trazado_892739" data-name="Trazado 892739" d="M153.256,157.466c-3.558-7.342-6.85-10.891-17.763-13.061s-29.5-4.893-42.086-22.821c17.88,27.907,48.126,28.265,52.772,44.574.886,3.11,3.828,5.635,8.614,6.837a25.894,25.894,0,0,0,6.318.708c-2.248-4.652-5.641-11.667-7.854-16.237" transform="translate(-93.407 -121.584)" fill="#aecd9e"/>
                </g>
              </g>
            </g>
            <g id="Grupo_1101907" data-name="Grupo 1101907" transform="translate(161.53 67.77)" opacity="0.36">
              <g id="Grupo_1101906" data-name="Grupo 1101906">
                <g id="Grupo_1101905" data-name="Grupo 1101905" clip-path="url(#clip-path-31)">
                  <path id="Trazado_892740" data-name="Trazado 892740" d="M194.926,143.712c-.846-8.116.081-12.867,8.213-20.462s22.492-19.706,23.739-41.575c-.489,33.139-26,49.385-21.358,65.692.886,3.111-.283,6.806-3.717,10.35a25.76,25.76,0,0,1-5,3.931c-.54-5.138-1.354-12.889-1.881-17.938" transform="translate(-194.673 -81.675)" fill="#aecd9e"/>
                </g>
              </g>
            </g>
            <path id="Trazado_892741" data-name="Trazado 892741" d="M183.085,157.353l-.707.2c-6.187-21.715-8.8-35.683-8.732-46.705a44.376,44.376,0,0,1,.8-8.465,39.187,39.187,0,0,1-15.915-4.153A39.2,39.2,0,0,1,147.2,110.148a44.354,44.354,0,0,1,5.144,6.771c5.865,9.333,11.007,22.58,17.193,44.295l-.707.2c-6.167-21.644-11.283-34.835-17.109-44.1a42.68,42.68,0,0,0-5.17-6.754,20.939,20.939,0,0,1-1.9,1.031c-6.755,3.2-11.475,2.337-13.637.455a4.8,4.8,0,0,1-1.365-5.281,4.882,4.882,0,0,1,4.306-3.287c3.212-.414,7.844,1.159,12.726,6.137a38.128,38.128,0,0,0,11.213-11.725,16.533,16.533,0,0,1-2.712-1.839c-4.764-4.1-5.811-8.522-5.2-11.293A5.079,5.079,0,0,1,158.7,82.27c1.979,2.033,3.42,6.343,1.533,12.338A16.711,16.711,0,0,1,158.9,97.6a38.116,38.116,0,0,0,15.709,4.055c1.525-6.8,4.632-10.581,7.581-11.923a4.876,4.876,0,0,1,5.391.525,4.8,4.8,0,0,1,1.622,5.207c-.846,2.738-4.4,5.963-11.827,6.8a20.814,20.814,0,0,1-2.157.125,42.628,42.628,0,0,0-.835,8.464c-.065,10.949,2.537,24.855,8.7,46.5m-7.708-55.7c.656-.012,1.294-.051,1.912-.12,7.083-.8,10.431-3.77,11.207-6.286a4.044,4.044,0,0,0-1.4-4.433,4.17,4.17,0,0,0-4.608-.412c-2.637,1.2-5.6,4.785-7.113,11.252m-42.19,2.724a3.953,3.953,0,0,0-2.839,2.6,4.044,4.044,0,0,0,1.147,4.5c1.986,1.73,6.407,2.487,12.84-.564q.841-.4,1.688-.905c-4.691-4.7-9.1-6.184-11.975-5.814a5.739,5.739,0,0,0-.86.175m20.59-22.84a4.285,4.285,0,0,0-3.079,3.374c-.709,3.221,1.24,7.373,4.964,10.578a16.049,16.049,0,0,0,2.593,1.763,16.028,16.028,0,0,0,1.274-2.866c1.475-4.686.943-9.241-1.357-11.6a4.288,4.288,0,0,0-4.4-1.244" transform="translate(-22.026 -13.727)" fill="#375a64"/>
            <path id="Trazado_892742" data-name="Trazado 892742" d="M261.434,403a2.813,2.813,0,0,1,1.508,1.709,8.487,8.487,0,0,1-.062,2.211c-.349.826-1.169,3.014-5.764,4.384a14.48,14.48,0,0,1-9.238-.395c-.407-.155-.809-.325-1.2-.507-2.586-1.183-4.434-2.835-7.111-3.78-2.868-1.013-5.817-1.784-8.676-2.821-3.005-1.09-5.962-2.665-7.886-5.218a4.408,4.408,0,0,1-.888-2.517,3.925,3.925,0,0,1,.626-2.584,4.224,4.224,0,0,1,1.83-1.066,14.369,14.369,0,0,1,1.452-.392,14.984,14.984,0,0,1,8.229.574,19.038,19.038,0,0,0,1.791.729c.709.178,1.439.32,2.152.509,1.346.356,2.683.745,4.024,1.116a38.451,38.451,0,0,1,5.459,1.972c1.65.738,2.9,2.044,4.432,2.992a15.6,15.6,0,0,0,4.847,1.86A17.561,17.561,0,0,1,261.434,403" transform="translate(-37.814 -66.687)" fill="#2b454e"/>
            <path id="Trazado_892743" data-name="Trazado 892743" d="M232.946,383.717c.965-.007,1.93-.01,2.888-.063,1.848-.1,8.059,1.1,8.485-1.3a23.3,23.3,0,0,0-.135-6.391q-.26-2.754-.57-5.5c-.509-4.517-.656-8.983-1.139-13.5-.006-.056-.012-.113-.018-.169l21.569-.336c-.349,4.029-1.133,6.729-1.483,10.759-.212,2.449-.867,5.549-1.08,8a50.38,50.38,0,0,0-.226,9.722c.316,2.5.662,4.041,1.151,6.517.362,1.832.937,4.593.43,6.489-.557,2.082-2.5,3.5-4.506,4.3-3.567,1.423-6.779.943-10.193-.6-3.184-1.438-8.127-4.807-11.513-5.766-1.942-.55-3.969-.753-5.923-1.261a10.763,10.763,0,0,1-5.332-2.9c-1.3-1.44-2.216-4.078-1.008-5.848a4.353,4.353,0,0,1,2.488-1.533,22.568,22.568,0,0,1,6.116-.618" transform="translate(-38.098 -60.685)" fill="#ffbea8"/>
            <path id="Trazado_892744" data-name="Trazado 892744" d="M253.362,408.641c3.578-.311,7.44-1.26,9.671-4.83.756-3.166-.168-5.256-.793-7.966a32.576,32.576,0,0,1-.675-7.116.988.988,0,0,0-.712-1.017l-.045,1.6a6.793,6.793,0,0,1-3.324,1.443c-3.37.655-6.562-.47-8.2.753s-3.087,2.435-4.641,2.513,1.558-1.867,1.635-3.267-1.728-2.41-2.069-4.628l.043-1.571s-.59.1-1.148,1.842a2.217,2.217,0,0,1-2.391,1.234c-2.629-.086-5.149-1.039-7.753-1.407a15.853,15.853,0,0,0-5.439.245,6.455,6.455,0,0,0-3.8,2.24,6.633,6.633,0,0,0-1.323,3.2,5.116,5.116,0,0,0,.541,2.7c1.825,3.625,6.034,5.943,10.054,6.949.939.236,1.887.439,2.821.694a38.232,38.232,0,0,1,6.986,2.779c1.127.563,2.237,1.16,3.342,1.765a13.428,13.428,0,0,0,7.22,1.849" transform="translate(-37.862 -65.47)" fill="#375a64"/>
            <path id="Trazado_892745" data-name="Trazado 892745" d="M231.574,401.406c-1.884-1.9-.782-9.722,2.463-11.874s4.348-1.928,4.348-1.928l.981.153s.548-.5-2.716-1.088-6.97-1.435-10.781.355c-3.884,1.825-3.95,5.373-3.746,7.342a13.3,13.3,0,0,0,9.452,7.04" transform="translate(-37.805 -65.707)" fill="#fafafa"/>
            <path id="Trazado_892746" data-name="Trazado 892746" d="M302.118,371.953a21.081,21.081,0,0,1,3.666-.791,2.049,2.049,0,0,0,1.429-.673,2.1,2.1,0,0,0,.29-.844c1.078-5.943.753-11.373-2.393-16.529-1.19-1.949-8.413-18.056-8.987-19.122.139-.045,19.084-6.367,19.084-6.367s.374,2.861.981,6.813c.554,3.614,1.364,7.625,3.712,10.715.729.959,3.351,3.109,4.123,4.034a10.706,10.706,0,0,1,2.262,3.964c.379,1.582-.157,3.355-.419,4.929-.273,1.637-1.932,3.214-2.112,4.868a19.475,19.475,0,0,1-.508,2.981,18.994,18.994,0,0,0-.264,3.609c-.073,1.264-.147,2.527-.208,3.79a7.013,7.013,0,0,0-.051,1.619c.108.529-7.963,4.92-11.217,6.606-.188.1-.377.178-.588.266-2.954,1.077-5.134-1.43-5.134-1.43-5.565-.717-6.916-4.088-6.916-4.088-.183-2.492,1.353-3.692,3.251-4.352" transform="translate(-50.415 -55.779)" fill="#ffbea8"/>
            <path id="Trazado_892747" data-name="Trazado 892747" d="M330.786,359.4c2.146,1.067,2.692,4.232-.543,8.5-2.478,3.274-2.535,5.9-2.24,8.886.329,3.342.573,4.838-.787,6.012s-12.009,5.845-12.009,5.845a40.692,40.692,0,0,0,2.779-12.4c.535-7.357,2.55-12.057,5.987-15.291s6.814-1.553,6.814-1.553" transform="translate(-53.664 -61.113)" fill="#1a2e35"/>
            <path id="Trazado_892748" data-name="Trazado 892748" d="M299.246,381.417s3.948,3.521,8.6,4.231,4.951-1.131,5.645-6.816,2.531-13.534,4.832-16.93,6.08-4.752,8.571-4.048a6.161,6.161,0,0,1,2.165,2.3,6.034,6.034,0,0,0-7.349,1.342c-2.956,2.9-5.143,8.991-5.476,14.624s-.8,12.156-5.188,12.691a16,16,0,0,1-12.016-3.838c-1.613-1.485.215-3.553.215-3.553" transform="translate(-50.797 -60.894)" fill="#2b454e"/>
            <path id="Trazado_892749" data-name="Trazado 892749" d="M326.975,356.129a8.437,8.437,0,0,0-3.792-5.309,8.648,8.648,0,0,1-2.868-3.1c-.293-.41-3.454-.234-6.674,2.049s-3.1,3.768-2.81,6.363.369,4.878-.137,5-1.385-2.588-2.615-4.1-3.981-1.575-4.566.592c-.176,1.171.937.963,2.342,2.107s2.049,6.5,2.049,8.723-.052,5.154-.7,5.6-5.269.251-6.85,2.123-1.655,2.968-1.413,4.118c1.413,1.561,7.209,5.132,10.487,4.663s4.273-1.932,4.859-7.084,1.017-11.691,3.454-15.689,5.125-6.068,9.236-6.049" transform="translate(-50.877 -59.169)" fill="#375a64"/>
            <path id="Trazado_892750" data-name="Trazado 892750" d="M310.279,390.306c-1.222-2.2-3.838-7.793-3.179-10.947a1.7,1.7,0,0,0,.341-.607s-1.306.357-2.688.607-4.35.6-5.657,2.522a4.656,4.656,0,0,0-.553,4.329c.631,1.693,7.8,5.707,11.735,4.1" transform="translate(-50.776 -64.482)" fill="#fafafa"/>
            <path id="Trazado_892751" data-name="Trazado 892751" d="M290.875,321.616s-3.048-6.457-11.976-25.659c-6.072-13.06-7.236-17.784-8.106-22.167s-1.4-12.369-1.4-12.369l-1.77,18.48c.934,5.749,3.306,16.559,1.474,30.256-1.937,14.485-4.52,33.377-4.52,33.377-1.16.921-7.012,2.07-10.029,1.844-7.548-.567-11.012-4.146-11.012-4.146s-4.021-32.259-4.971-42.279c-2.234-23.556-2.452-30.106-2.891-57.288-.384-23.834-1.686-37.265,4.746-57.8,16.4,7.464,45.387,3.944,54.463-4.545,2.684,6.8,6.175,15.562,5.777,30.3-.46,17-2.92,48.613-2.92,48.613,4.726,7.155,5.413,19.8,6.962,32.408,1.073,8.741,2.413,21.256,2.413,21.256-11.892-1.206-16.242,9.714-16.242,9.714" transform="translate(-40.061 -30.53)" fill="#375a64"/>
            <path id="Trazado_892752" data-name="Trazado 892752" d="M247.692,211.566a106.976,106.976,0,0,1,5.025-24.152c-.43-.11-.857-.227-1.284-.348a94.042,94.042,0,0,0-5.583,24.412c-4.321-2.476-5.587-7.323-5.486-10.842.06-2.1,1.135-7.7,1.467-9.771.229-1.425-1.484,1.13-1.25-.345a36.721,36.721,0,0,0-1.224,12.469c.369,3.78,2.028,7.853,6.359,9.9-.768,7.938-.917,15.986-1.007,23.907q-.362,31.84,1.89,63.632c.688,9.724,2.921,35.819,4.25,45.5a17.116,17.116,0,0,0,1.795.433c-.69-8.462-3.249-33.168-3.888-41.634q-1.185-15.69-1.738-31.421-.575-16.349-.479-32.716c.058-9.68.178-19.395,1.153-29.031" transform="translate(-40.73 -31.848)" fill="#2b454e"/>
            <path id="Trazado_892753" data-name="Trazado 892753" d="M276.391,268.369l4.2-40.347s5.856.354,14.807-7.889c0,0-1.377,6.931-11.028,11.768l-5.158,31.158-1.424,17.68c-.827-5.936-1.3-6.266-1.4-12.37" transform="translate(-47.055 -37.477)" fill="#2b454e"/>
            <path id="Trazado_892754" data-name="Trazado 892754" d="M279.178,270.209a24.949,24.949,0,0,0,.314-2.854c.046-.774.06-1.549.069-2.324.187,1.283.374,2.566.588,3.843a114.687,114.687,0,0,0,5.071,19.81c2.334,6.508,5.013,12.9,7.593,19.317,2.537,6.3,5.134,12.583,7.874,18.8.561,1.271.958,2.3,1.532,3.57-.364.364-.72.836-1.061,1.182-.315-.7-.5-1.333-.815-2.033-2.8-6.246-5.441-12.562-8.012-18.906-2.549-6.29-5.09-12.592-7.471-18.947a112.547,112.547,0,0,1-5.445-19.7c-.094-.527-.179-1.055-.269-1.583.011-.058.022-.118.032-.176" transform="translate(-47.524 -45.121)" fill="#2b454e"/>
            <path id="Trazado_892755" data-name="Trazado 892755" d="M277.084,93.8c.518-.716,2.9-2.762,2.8-3.691.17,1.578-1.168,3.573-1.8,5.032,3.826,1.665,11.62,2.966,17.508-.017,1.974-1,4.36-3.337,4.89-5.524a8,8,0,0,1-.875,4.816,7.136,7.136,0,0,0,4.424-7.324c-.212-2.508-1.823-6.616-2.01-9.126-.386-5.187,1.474-8.524,1.348-13.725-.073-3.019-1.522-9.472-7.786-11.551-4.538-7.388-12.557-8.3-20.734-7.273a25.5,25.5,0,0,0-12.668,5.966A16.815,16.815,0,0,0,256.7,67.76c.5,2.426,2.065,4.119,3.141,6.265a14.41,14.41,0,0,1,1.435,7.523c-.29,3.755-1.082,8.321-5.023,9.375,6.772,8.433,19.291,5,20.828,2.874" transform="translate(-43.627 -7.672)" fill="#2b454e"/>
            <path id="Trazado_892756" data-name="Trazado 892756" d="M298.833,76.243c-1.017-1.9-3.746-3.251-5.8-2.149a5.69,5.69,0,0,0-3.058,2.983c-.919,1.474-3.71.854-3.236-2.791.541-4.169,1.076-8.723-.9-11.9-2.625-4.237-7.83-3.425-11.065-1.859-1.5-2.727-4.764-3.21-7.665-1.9-2.023.916-4.092,2.412-5.11,7.218a20.883,20.883,0,0,0-.549,4.923,10,10,0,0,1-.974,3.289c-1.976,5.164-1.894,14.969,2.188,18.3,1.816,1.48,4.736,2.931,9.388,3.047l.158,3.834c-.029,1.435-1.255,2.087-3.347,2.6,2.062,2.567,12.8,2.371,16.711,1.417,5.072-1.237,4.851-2.06,5.017-2.523l-.636-11.582c-.564-1.894-1.108-3.131-1.05-4.623a3.131,3.131,0,0,0,1.679,2.117,5.351,5.351,0,0,0,6.051-1.613c3.037-3.227,3.428-6.473,2.19-8.784" transform="translate(-44.133 -9.862)" fill="#ffbea8"/>
            <path id="Trazado_892757" data-name="Trazado 892757" d="M278.022,70.734l4.112,2.037a2.2,2.2,0,0,0-.953-3.053,2.41,2.41,0,0,0-3.159,1.016" transform="translate(-47.333 -11.829)" fill="#1a2e35"/>
            <path id="Trazado_892758" data-name="Trazado 892758" d="M267.722,63.174a8.4,8.4,0,0,0,5.788,4.62,6.159,6.159,0,0,1-.62-4.379,6.234,6.234,0,0,0,1.664,3.947,12.507,12.507,0,0,0,10.5,4.382,12.847,12.847,0,0,1-1.94-4.283,7.872,7.872,0,0,0,6.21,4.091,1.154,1.154,0,0,0,1.109-.352,1.246,1.246,0,0,0,.127-.651c.026-2.031.182-4.064.085-6.094a13.97,13.97,0,0,0-1.407-5.88,11.461,11.461,0,0,0-4.9-4.7,17.311,17.311,0,0,0-6.611-1.773,16.086,16.086,0,0,0-5.619.444,8.992,8.992,0,0,0-4.6,2.683c-.89,1.172-.818,3.429-.669,4.812a9.632,9.632,0,0,0,.878,3.132" transform="translate(-45.415 -8.859)" fill="#2b454e"/>
            <path id="Trazado_892759" data-name="Trazado 892759" d="M262.97,70.261l4.237-.665a2.058,2.058,0,0,0-2.374-1.815,2.253,2.253,0,0,0-1.863,2.48" transform="translate(-44.768 -11.535)" fill="#1a2e35"/>
            <path id="Trazado_892760" data-name="Trazado 892760" d="M279.464,77.142a1.64,1.64,0,1,1-1.486-1.781,1.64,1.64,0,0,1,1.486,1.781" transform="translate(-47.021 -12.829)" fill="#1a2e35"/>
            <path id="Trazado_892761" data-name="Trazado 892761" d="M265.812,74.849a1.64,1.64,0,1,1-1.486-1.781,1.639,1.639,0,0,1,1.486,1.781" transform="translate(-44.697 -12.439)" fill="#1a2e35"/>
            <path id="Trazado_892762" data-name="Trazado 892762" d="M271.85,72.08l-2.729,10.437-5.188-3.168Z" transform="translate(-44.934 -12.272)" fill="#ff9b79"/>
            <path id="Trazado_892763" data-name="Trazado 892763" d="M274.29,88.266a.126.126,0,0,0-.125-.023,12.818,12.818,0,0,1-2.795,1.207,6.4,6.4,0,0,1-1.423.124,5.389,5.389,0,0,1-.739-.073,4.052,4.052,0,0,0-.841-.125c-.243.009-.176.431-.038.524a3.589,3.589,0,0,0,1.823.429,5.977,5.977,0,0,0,1.773-.2,5.373,5.373,0,0,0,1.65-.715c.227-.154,1.1-.825.715-1.143" transform="translate(-45.662 -15.022)" fill="#c76668"/>
            <path id="Trazado_892764" data-name="Trazado 892764" d="M274.692,101.2c4.467-.129,6.4-.645,9.187-2.075a13.348,13.348,0,0,0,5.958-7.122,10.905,10.905,0,0,1-4.821,8.874,18.427,18.427,0,0,1-10.228,2.683Z" transform="translate(-46.766 -15.664)" fill="#ff9b79"/>
            <path id="Trazado_892765" data-name="Trazado 892765" d="M300.44,88.927a1.3,1.3,0,1,1-1.148-1.43,1.3,1.3,0,0,1,1.148,1.43" transform="translate(-50.709 -14.895)" fill="#375a64"/>
            <path id="Trazado_892766" data-name="Trazado 892766" d="M262.258,135.3a102.835,102.835,0,0,0,11.631,21.5c3.063,4.374,8.39,5.052,11.631,2.234A163.075,163.075,0,0,0,304.945,138c6.668-9.009,7.045-22.368-3.829-26.481l-9.558,12.97-8.721,12.481-4.642-9.244-.714.277Z" transform="translate(-44.649 -18.985)" fill="#375a64"/>
            <path id="Trazado_892767" data-name="Trazado 892767" d="M285.952,141.777a25.143,25.143,0,0,0-4.945,11.088c-2.106-4.85,3.943-13.084,3.943-13.084Z" transform="translate(-47.765 -23.798)" fill="#ff9b79"/>
            <path id="Trazado_892768" data-name="Trazado 892768" d="M243.046,150.62a9.453,9.453,0,0,0-1.9-2.488,15.467,15.467,0,0,1-3.477-13.649c.05-.223.113-.438.173-.655,1.4-5,5.549-8.18,9.22-11.911,3.359-3.413,11.863-11.085,11.863-11.085s6.324-.709,9.508-1.019a138.867,138.867,0,0,1,18.565-.426,69.521,69.521,0,0,1,9.872,1.742,43.986,43.986,0,0,1,3.92,12.9,38.019,38.019,0,0,1-1.811,16.364c-1.018,2.742-5.042,12.947-4.351,21.176.346,4.13,2.98,10.565,4.014,15.608-2.542,3.122-13.451,7.613-18.907,8.384-25.533,3.605-38.333-6.418-40.913-9.347-.021-.242,4.487-16.99,4.557-23.034a6.424,6.424,0,0,0-.328-2.556" transform="translate(-40.398 -18.6)" fill="#ffec9d"/>
            <g id="Grupo_1101910" data-name="Grupo 1101910" transform="translate(196.891 115.227)" opacity="0.1">
              <g id="Grupo_1101909" data-name="Grupo 1101909">
                <g id="Grupo_1101908" data-name="Grupo 1101908" clip-path="url(#clip-path-32)">
                  <path id="Trazado_892769" data-name="Trazado 892769" d="M243.374,158.218a6.424,6.424,0,0,0-.328-2.556,9.44,9.44,0,0,0-1.9-2.488,15.467,15.467,0,0,1-3.477-13.649c.05-.224.113-.438.173-.655.121.777.241,1.471.286,1.664a14.227,14.227,0,0,0,1.557,3.825,14.847,14.847,0,0,0,6.246,5.854c1.584.789,3.438,1.443,4.27,2.9.979,1.718.119,4.11-.407,5.846-.728,2.4-1.713,4.439-1.991,6.979a63.985,63.985,0,0,0-.049,13.427c.222,2.179,1.357,6.433,1.8,8.587a29.519,29.519,0,0,1-10.734-6.7c-.02-.242,4.488-16.991,4.557-23.034" transform="translate(-237.29 -138.87)" fill="#bfb68e"/>
                </g>
              </g>
            </g>
            <path id="Trazado_892770" data-name="Trazado 892770" d="M148.047,114.778q-.248-.292-.48-.6a2.183,2.183,0,0,1-.485-.961,1.447,1.447,0,0,1,.87-1.442,2.37,2.37,0,0,1,1.762,0,7.043,7.043,0,0,1,1.568.886c-.349-.535-.6-.964-.178-1.489a1.3,1.3,0,0,1,.947-.555,4.086,4.086,0,0,1,2.4.708,12.642,12.642,0,0,1,1.963,1.813,22.712,22.712,0,0,0,9.837,6.483c.141.04.324.065.407-.056a.35.35,0,0,0-.006-.312,9.357,9.357,0,0,0-2.367-3.2c-.842-.865-2-1.881-2.146-3.146a1.733,1.733,0,0,1,.136-1.007.868.868,0,0,1,.836-.488,1.357,1.357,0,0,1,.438.171,30.129,30.129,0,0,1,6.419,4.144,34.9,34.9,0,0,1,2.266,2.692c.759.849,1.333,2.052,2.1,2.893,2.554,2.8,5.662,3.012,11.345,4.17,8.267,1.685,16.107,2.906,16.107,2.906s16.835-8.107,23.5-11.177c7.034-3.24,10.525-5.26,17.587-5.092-.848,6.636-1.825,17.309-3.485,18.579-3.443,2.634-5.578,4.256-14.716,8.634a130.986,130.986,0,0,1-14.712,6.244c-5.621,2.118-8.463,1.99-17.118-1.367-5.766-2.235-14.109-6.22-17.011-7.211a96.378,96.378,0,0,0-9.647-3.029,47.842,47.842,0,0,1-9.674-3,19.814,19.814,0,0,1-7.352-5.329c-.33-.409-2.086-2.162-1.646-2.784a.571.571,0,0,1,.28-.183,2.8,2.8,0,0,1,2.172.241,12.7,12.7,0,0,1,1.845,1.279,14.085,14.085,0,0,0,4.233,2.24c.086.027.2.041.246-.037s-.012-.149-.063-.207a5.256,5.256,0,0,0-.833-.729,34.069,34.069,0,0,1-5.329-4.862,6,6,0,0,1-.964-1.414,2.449,2.449,0,0,1-.171-1.674c.112-.378.4-.768.285-1.167a2.5,2.5,0,0,0-.671-1q-.258-.274-.5-.56" transform="translate(-25.039 -18.831)" fill="#ffbea8"/>
            <path id="Trazado_892771" data-name="Trazado 892771" d="M192.788,144.15c-8.088-3.254-15.8-7.43-24.234-9.788-5.029-1.3-10.251-2.285-14.721-5.053a17.864,17.864,0,0,1-4.862-4.215,5.506,5.506,0,0,1-1.353-2.025c0-.146.015-.162.213-.24,1.96-.554,3.375,1.443,4.948,2.314a13.523,13.523,0,0,0,3,1.432.755.755,0,0,0,.476.057.371.371,0,0,0,.242-.426c-.232-.532-.781-.8-1.167-1.139a38.3,38.3,0,0,1-3.914-3.4c-1.168-1.266-3.06-2.9-2.026-4.728.341-.749-.366-1.533-.8-1.982-.454-.563-1.239-1.251-1.274-1.967a1.343,1.343,0,0,1,1.537-1.131c1.186.061,2.44,1.211,3.453,1.85l-.834-1.255c-.211-.317-.4-.634-.345-.856a1.168,1.168,0,0,1,.569-.658,2.842,2.842,0,0,1,2.011.269c1.318.624,2.252,1.958,3.4,3.01a22.92,22.92,0,0,0,7.794,5.179c.549.148,1.127.525,1.707.409.288-.094.313-.508.215-.683a7.007,7.007,0,0,0-1.458-2.267c-.97-1.148-2.349-2.087-2.926-3.482-.319-.726-.173-2.048.762-1.756a37.5,37.5,0,0,1,5.451,3.253,15.18,15.18,0,0,1,3.157,3.342c1.066,1.1,1.644,2.619,2.867,3.686a10.011,10.011,0,0,0,4.128,2.23c7.567,1.772,15.258,2.971,22.93,4.2-6.131-1.019-12.228-2.2-18.311-3.482-2.96-.631-6.24-1.028-8.512-3.2-1.152-1-1.728-2.518-2.82-3.671-1.971-2.975-5.081-4.87-8.19-6.475-.366-.2-.807-.5-1.258-.3a1.275,1.275,0,0,0-.774,1.079c-.168,2.161,1.954,3.421,3.152,4.887a6.26,6.26,0,0,1,1.383,2.222c.013-.032.051-.025-.017-.024a10.805,10.805,0,0,1-1.314-.423,22.421,22.421,0,0,1-7.592-5.107c-1.634-1.555-3.417-4.168-6.034-3.41a1.387,1.387,0,0,0-.779,1.806,4.324,4.324,0,0,0,.313.543l.409-.4a5.092,5.092,0,0,0-2.5-1.11,1.924,1.924,0,0,0-2.174,1.716c.089,1.457,1.607,2.16,2.146,3.325.132.258-.092.577-.257,1.066-.48,2,1.26,3.39,2.425,4.682,1.494,1.579,3.336,2.826,4.942,4.242.029.028.035.054.026.025s.038-.163.1-.168a13.708,13.708,0,0,1-3.048-1.421c-1.653-.942-3.205-3.007-5.365-2.332-1.679.68,1.283,3.214,1.823,3.985,4.907,5.269,12.291,6.652,18.962,8.3,8.419,2.327,16.207,6.326,24.327,9.469" transform="translate(-24.977 -18.776)" fill="#ff9b79"/>
            <path id="Trazado_892772" data-name="Trazado 892772" d="M152.679,113.556c.977.846,1.845,1.791,2.782,2.675.88.83,1.781,1.642,2.727,2.4a27.387,27.387,0,0,0,2.786,1.979c1.033.636,2.105,1.187,3.153,1.791.048.028-.008.117-.054.1a23.89,23.89,0,0,1-6.392-3.7,26.436,26.436,0,0,1-2.629-2.448,31.268,31.268,0,0,1-2.408-2.756c-.016-.021.008-.067.034-.046" transform="translate(-25.987 -19.332)" fill="#ff9b79"/>
            <path id="Trazado_892773" data-name="Trazado 892773" d="M149.62,117.214c.977.845,1.844,1.791,2.781,2.676.879.831,1.78,1.643,2.726,2.4a27.494,27.494,0,0,0,2.787,1.979c1.033.636,2.106,1.186,3.154,1.791.048.028-.009.117-.055.1a23.805,23.805,0,0,1-6.393-3.7,26.32,26.32,0,0,1-2.628-2.448,31.3,31.3,0,0,1-2.407-2.76c-.015-.021.009-.067.035-.045" transform="translate(-25.466 -19.955)" fill="#ff9b79"/>
            <path id="Trazado_892774" data-name="Trazado 892774" d="M256.519,111.155c-7.147.2-9.407,1.031-15.579,4.248-5.383,2.806-17.754,9.026-17.754,9.026a14.629,14.629,0,0,1,5.4,9.022c1.3,6.653-.256,10.162-.256,10.162s8.206-2.829,10.612-3.646c2.623-.892,5.82-.7,9.3-1.327,2.035-.365,5.545-2.171,7.942-7.6,2.409-5.452,3.668-14.866.335-19.888" transform="translate(-37.997 -18.924)" fill="#375a64"/>
            <path id="Trazado_892775" data-name="Trazado 892775" d="M375.424,92.857a24.291,24.291,0,0,1-17.79,1.942l-2.644-.888a24.351,24.351,0,0,1,14.326-46.383l2.685.758a24.354,24.354,0,0,1,3.423,44.572" transform="translate(-57.83 -7.992)" fill="#fff"/>
            <path id="Trazado_892776" data-name="Trazado 892776" d="M386.073,58.494A26.434,26.434,0,0,0,337.629,79.2l-5.375,6.209a1.536,1.536,0,0,0,1.342,2.531l8.156-.966a26.435,26.435,0,0,0,44.322-28.484m-11.94,33.92a24.294,24.294,0,0,1-17.786,1.973L353.7,93.5A24.351,24.351,0,0,1,367.947,47.1l2.686.753a24.353,24.353,0,0,1,3.5,44.565" transform="translate(-56.502 -7.567)" fill="#375a64"/>
            <path id="Trazado_892777" data-name="Trazado 892777" d="M362.024,88.373a3.821,3.821,0,0,1-2.79-1.209l-8.663-9.251a3.822,3.822,0,1,1,5.579-5.225l5.627,6.008,13.312-16.861a3.822,3.822,0,1,1,6,4.736L365.024,86.92a3.819,3.819,0,0,1-2.839,1.45c-.054,0-.108,0-.161,0" transform="translate(-59.509 -10.28)" fill="#9ac288"/>
          </g>
        </g>
      </g>
    </g>
  </g>
</svg>
