<svg xmlns="http://www.w3.org/2000/svg" xmlns:xlink="http://www.w3.org/1999/xlink" width="80.953" height="90.519" viewBox="0 0 80.953 90.519">
  <defs>
    <clipPath id="clip-path">
      <rect id="Rectángulo_402519" data-name="Rectángulo 402519" width="80.953" height="90.519" fill="none"/>
    </clipPath>
  </defs>
  <g id="Grupo_1102061" data-name="Grupo 1102061" transform="translate(-705 -1975.145)">
    <g id="Grupo_1102015" data-name="Grupo 1102015" transform="translate(705 1975.145)">
      <g id="Grupo_1102014" data-name="Grupo 1102014" clip-path="url(#clip-path)">
        <path id="Trazado_893239" data-name="Trazado 893239" d="M43.828,16.348a34.006,34.006,0,1,1-34.008,34A34,34,0,0,1,43.828,16.348Z" transform="translate(-8.028 -13.365)" fill="#8ac9fe" fill-rule="evenodd"/>
        <path id="Trazado_893240" data-name="Trazado 893240" d="M188.9,16.348a34.006,34.006,0,0,1,0,68.012c-.546,0-1.085-.012-1.623-.04a34,34,0,0,0,0-67.932C187.813,16.36,188.351,16.348,188.9,16.348Z" transform="translate(-153.097 -13.365)" fill="#41a8fc" fill-rule="evenodd"/>
        <path id="Trazado_893241" data-name="Trazado 893241" d="M86.536,151.825h40.011v28.667a.968.968,0,0,1-.3.712.958.958,0,0,1-.7.285H87.544a.992.992,0,0,1-1.008-1Z" transform="translate(-70.743 -124.117)" fill="#eceff1" fill-rule="evenodd"/>
        <path id="Trazado_893242" data-name="Trazado 893242" d="M290.269,151.825h2.005v28.667a.968.968,0,0,1-.3.712.958.958,0,0,1-.7.285h-2.017a.992.992,0,0,0,1.008-1Z" transform="translate(-236.471 -124.117)" fill="#d1d1d6" fill-rule="evenodd"/>
        <path id="Trazado_893243" data-name="Trazado 893243" d="M63.325,104.89l6.633-13.416A1,1,0,0,1,70.836,91h33.188a1,1,0,0,1,.878.475l6.645,13.416c0,2.978-2.705,5.387-6.028,5.387s-6.028-2.409-6.028-5.387c0,2.978-2.705,5.387-6.028,5.387s-6.028-2.409-6.028-5.387c0,2.978-2.705,5.387-6.028,5.387s-6.028-2.409-6.028-5.387c0,2.978-2.705,5.387-6.028,5.387S63.325,107.868,63.325,104.89Z" transform="translate(-51.768 -74.392)" fill="#ffe177" fill-rule="evenodd"/>
        <path id="Trazado_893244" data-name="Trazado 893244" d="M69.353,172.5c3.322,0,6.028-2.409,6.028-5.387H63.325a5.485,5.485,0,0,0,4.094,5.114,6.865,6.865,0,0,0,1.934.273m18.083-5.387c0,2.978,2.694,5.387,6.028,5.387s6.028-2.409,6.028-5.387Z" transform="translate(-51.768 -136.616)" fill="#ffd064" fill-rule="evenodd"/>
        <path id="Trazado_893245" data-name="Trazado 893245" d="M165.549,104.89,158.9,91.474a1,1,0,0,0-.878-.475h-8.033l3.5,13.891c0,2.978,2.694,5.387,6.028,5.387a6.843,6.843,0,0,0,1.922-.273A5.5,5.5,0,0,0,165.549,104.89Zm-30.139,5.387c3.322,0,6.028-2.409,6.028-5.387V91h-8.567l-3.489,13.891C129.382,107.868,132.076,110.277,135.41,110.277Z" transform="translate(-105.77 -74.392)" fill="#fe646f" fill-rule="evenodd"/>
        <path id="Trazado_893246" data-name="Trazado 893246" d="M153.493,167.114c0,2.978,2.694,5.387,6.028,5.387a6.844,6.844,0,0,0,1.922-.273,5.5,5.5,0,0,0,4.105-5.114ZM135.41,172.5c3.322,0,6.028-2.409,6.028-5.387H129.382c0,2.978,2.693,5.387,6.028,5.387" transform="translate(-105.77 -136.616)" fill="#fd4755" fill-rule="evenodd"/>
        <path id="Trazado_893247" data-name="Trazado 893247" d="M136.048,235.058h8.871a.93.93,0,0,1,.977.867v13.607H135.081V235.925A.922.922,0,0,1,136.048,235.058Z" transform="translate(-110.429 -192.16)" fill="#ecba78" fill-rule="evenodd"/>
        <path id="Trazado_893248" data-name="Trazado 893248" d="M136.142,249.532h-1.061V235.925a.922.922,0,0,1,.967-.867h1.061a.921.921,0,0,0-.967.867Z" transform="translate(-110.429 -192.16)" fill="#e3a76f" fill-rule="evenodd"/>
        <path id="Trazado_893249" data-name="Trazado 893249" d="M5.071,70.364,2.565,73.27A1.46,1.46,0,1,1,.354,71.363L7.219,63.4A1.46,1.46,0,0,1,9.43,65.308L6.979,68.151A42.357,42.357,0,0,0,65.758,7.179L63.013,9.925A1.46,1.46,0,0,1,60.948,7.86L68.381.427a1.46,1.46,0,0,1,2.065,2.065L67.823,5.114a45.277,45.277,0,0,1-30.7,77.137V87.6H49.539a1.46,1.46,0,0,1,0,2.92H21.8a1.46,1.46,0,0,1,0-2.92H34.207V82.251A45.114,45.114,0,0,1,5.071,70.364Zm30.6-68.841A35.466,35.466,0,1,1,.2,36.989,35.472,35.472,0,0,1,35.667,1.523M11.424,15.277A32.417,32.417,0,0,0,3.153,35.529h9.661a7.423,7.423,0,0,1-2.57-5.623,1.459,1.459,0,0,1,.166-.675l6.024-11.55a36.393,36.393,0,0,1-5.01-2.4M29.462,5.034a32.458,32.458,0,0,0-15.918,8.087,35,35,0,0,0,4.96,2.219,2.562,2.562,0,0,1,.68-.09h1.29A41.541,41.541,0,0,1,29.462,5.034m28.333,8.091A32.456,32.456,0,0,0,41.883,5.036a41.6,41.6,0,0,1,8.984,10.214H52.16a2.518,2.518,0,0,1,.676.091A35.057,35.057,0,0,0,57.795,13.125Zm10.386,22.4a32.417,32.417,0,0,0-8.267-20.248,36.46,36.46,0,0,1-5.012,2.4l6.022,11.548a1.459,1.459,0,0,1,.166.675,7.422,7.422,0,0,1-2.57,5.623ZM59.907,58.7a32.417,32.417,0,0,0,8.274-20.255H57.009V57.2q1.507.7,2.9,1.5m-18,10.232a32.458,32.458,0,0,0,15.877-8.076,34.877,34.877,0,0,0-4.734-2.133H50.877A41.209,41.209,0,0,1,41.91,68.937ZM13.551,60.864a32.459,32.459,0,0,0,15.884,8.075,41.161,41.161,0,0,1-8.971-10.212H18.289A34.816,34.816,0,0,0,13.551,60.864ZM3.153,38.449a32.417,32.417,0,0,0,8.278,20.259q1.387-.806,2.9-1.5V38.449Zm20.812-23.2H34.207V5.147a38.627,38.627,0,0,0-10.241,10.1m10.241,2.92H28.288l-2.7,10.276h8.623Zm-8.938,0h-5.8L14.113,28.446h8.452Zm-11.863,13.2a4.538,4.538,0,0,0,8.583,0Zm11.985,0a4.532,4.532,0,0,0,8.575,0Zm11.978,0a4.532,4.532,0,0,0,8.575,0Zm11.977,0a4.537,4.537,0,0,0,8.583,0Zm7.876-2.92L51.863,18.171h-5.8l2.7,10.276ZM43.046,18.171H37.127V28.446H45.75Zm-5.919-2.92H47.376A38.679,38.679,0,0,0,37.127,5.14ZM54.089,37.337q-.224.013-.451.013a7.447,7.447,0,0,1-5.991-3.017,7.452,7.452,0,0,1-11.977,0,7.455,7.455,0,0,1-11.98,0A7.448,7.448,0,0,1,17.7,37.35q-.227,0-.452-.013V55.807h5.816V43.5A2.392,2.392,0,0,1,25.5,41.162h8.976A2.406,2.406,0,0,1,36.924,43.5V55.807H54.089Zm-6.7,21.391H37.127V68.85A38.424,38.424,0,0,0,47.389,58.727M34.207,68.844V58.727H23.952A38.379,38.379,0,0,0,34.207,68.844M25.982,55.807H34V44.082H25.982Z" transform="translate(0 0)" fill-rule="evenodd"/>
        <rect id="Rectángulo_402516" data-name="Rectángulo 402516" width="9.761" height="2.893" transform="translate(40.477 41.449)" fill="#ffe177"/>
        <rect id="Rectángulo_402517" data-name="Rectángulo 402517" width="9.761" height="2.893" transform="translate(40.477 44.543)" fill="#8ac9fe"/>
        <rect id="Rectángulo_402518" data-name="Rectángulo 402518" width="9.761" height="2.893" transform="translate(40.477 47.863)" fill="#f2260a"/>
      </g>
    </g>
  </g>
</svg>
