<svg xmlns="http://www.w3.org/2000/svg" xmlns:xlink="http://www.w3.org/1999/xlink" width="188.774" height="363.133" viewBox="0 0 188.774 363.133">
  <defs>
    <clipPath id="clip-path">
      <rect id="Rectángulo_402417" data-name="Rectángulo 402417" width="188.774" height="363.133" fill="none"/>
    </clipPath>
  </defs>
  <g id="Grupo_1102061" data-name="Grupo 1102061" transform="translate(-705 -1545.878)">
    <g id="Grupo_1101944" data-name="Grupo 1101944" transform="translate(705 1545.878)">
      <g id="Grupo_1101943" data-name="Grupo 1101943" clip-path="url(#clip-path)">
        <path id="Trazado_892892" data-name="Trazado 892892" d="M84.385,443.3s-47.673-47.551-36.112-66.238c13.426-21.7,35.649,0,35.649,0Z" transform="translate(-12.096 -95.648)" fill="#f0f8ff"/>
        <path id="Trazado_892893" data-name="Trazado 892893" d="M95.974,427.8s-21-111.411,23.149-118.7c61.612-10.176,48.243,47.4,48.243,47.4s16.111-11.574,31.389.926C219.953,374.773,185.329,430,185.329,430Z" transform="translate(-23.686 -80.154)" fill="#f0f8ff"/>
        <path id="Trazado_892894" data-name="Trazado 892894" d="M123.376,279.762h21.388s1.448-5.849-3.9-6.035a3.133,3.133,0,0,0-3.342,2.451s.78-10.026-4.79-7.8-2.8,7.614-2.8,7.614-7.9-4.9-6.56,3.768" transform="translate(-32.079 -69.783)" fill="#dae8f2"/>
        <rect id="Rectángulo_402390" data-name="Rectángulo 402390" width="5.119" height="115.642" transform="translate(92.309 232.546)" fill="#aacef2"/>
        <rect id="Rectángulo_402391" data-name="Rectángulo 402391" width="5.119" height="115.642" transform="translate(126.362 232.546)" fill="#aacef2"/>
        <rect id="Rectángulo_402392" data-name="Rectángulo 402392" width="38.262" height="3.974" transform="translate(92.309 241.058)" fill="#aacef2"/>
        <rect id="Rectángulo_402393" data-name="Rectángulo 402393" width="38.262" height="3.974" transform="translate(92.309 259.787)" fill="#aacef2"/>
        <rect id="Rectángulo_402394" data-name="Rectángulo 402394" width="38.262" height="3.973" transform="translate(92.309 278.517)" fill="#aacef2"/>
        <rect id="Rectángulo_402395" data-name="Rectángulo 402395" width="38.262" height="3.974" transform="translate(92.309 297.246)" fill="#aacef2"/>
        <rect id="Rectángulo_402396" data-name="Rectángulo 402396" width="38.262" height="3.973" transform="translate(92.309 314.273)" fill="#aacef2"/>
        <rect id="Rectángulo_402397" data-name="Rectángulo 402397" width="38.262" height="3.973" transform="translate(92.309 333.002)" fill="#aacef2"/>
        <path id="Trazado_892895" data-name="Trazado 892895" d="M221.233,414.569h24.679s1.672-6.749-4.5-6.963a3.614,3.614,0,0,0-3.856,2.828s.9-11.569-5.528-9-3.228,8.786-3.228,8.786-9.112-5.656-7.569,4.348" transform="translate(-57.548 -104.408)" fill="#dae8f2"/>
        <path id="Trazado_892896" data-name="Trazado 892896" d="M206.8,345.236h24.679s1.672-6.749-4.5-6.962a3.614,3.614,0,0,0-3.856,2.828s.9-11.57-5.528-9-3.228,8.787-3.228,8.787-9.111-5.656-7.569,4.347" transform="translate(-53.789 -86.359)" fill="#dae8f2"/>
        <path id="Trazado_892897" data-name="Trazado 892897" d="M202.928,391.207s-2.576-9.222-6.88-11.726-7.1.456-7.1.456,8.378,8.06,9.355,13.355,4.621-2.084,4.621-2.084" transform="translate(-49.19 -98.528)" fill="#e9b79c"/>
        <path id="Trazado_892898" data-name="Trazado 892898" d="M187.87,372.145c6.443-3.646,13.219,9.806,13.219,9.806l-6.113,5.138s-13.388-11.389-7.106-14.944" transform="translate(-48.471 -96.717)" fill="#70649b"/>
        <path id="Trazado_892899" data-name="Trazado 892899" d="M203.432,404.5c.132.1.065,1.127.075,1.287a18.427,18.427,0,0,1,.149,4.212,3.925,3.925,0,0,1-.774,1.832,4.911,4.911,0,0,1-.863.8c-.121.092-.258.217-.228.366a.315.315,0,0,0,.307.209,2.268,2.268,0,0,0,.939-.345,1.085,1.085,0,0,1,.755-.1c.2.1.271.4.3.59a6.478,6.478,0,0,1-.066,1.871c-.07.5-.254,1.061.379,1.221a1.7,1.7,0,0,1,.56.334.423.423,0,0,0,.309.092.74.74,0,0,0,.144-.055.846.846,0,0,1,.334-.068.718.718,0,0,0,.229-.015.335.335,0,0,0,.192-.208,6.339,6.339,0,0,0,.226-.7c.068-.281.181-.552.231-.838.041-.236.033-.465.077-.7a29.889,29.889,0,0,0,.24-3.442,21.145,21.145,0,0,0-.451-3.467c-.19-.695-3.062-2.866-3.062-2.866" transform="translate(-52.531 -105.302)" fill="#e9b79c"/>
        <path id="Trazado_892900" data-name="Trazado 892900" d="M205.439,393.217c1.669,3.613,1.153,14.289,1.153,14.289l-2.664-1.587-3.5-12.2s3.34-4.113,5.013-.5" transform="translate(-52.177 -101.979)" fill="#e9b79c"/>
        <path id="Trazado_892901" data-name="Trazado 892901" d="M218.232,475.274c.55-.537,2.482,2,2.308,3.382-.239,1.887-5.168,4.6-7.574,4.231-1.242-.189-1.085-1.551-.682-2.247.474-.817,4.341-2.155,2.455-4.175-1.046-1.121,1.345.905,3.493-1.191" transform="translate(-55.188 -123.708)" fill="#d4719a"/>
        <path id="Trazado_892902" data-name="Trazado 892902" d="M191.662,404.3l-13.392,7.641s3.971,12.02,5.886,17.148h0l.118.311c.078.208.156.412.226.592.988,2.576,2.735,7.651,3.721,9.235,1.706,2.743,17.256,20.691,17.256,20.691a5.658,5.658,0,0,0,5.126-3.276s-6.337-19.055-13.027-24.157c0,0-2.924-21.51-5.913-28.184" transform="translate(-46.409 -105.251)" fill="#ffc662"/>
        <path id="Trazado_892903" data-name="Trazado 892903" d="M169.785,483.689c.752-.16,1.033,3.015.146,4.091-1.209,1.469-6.823,1.129-8.662-.464-.949-.823-.09-1.891.623-2.264.837-.439,4.821.495,4.3-2.22-.287-1.506.655,1.483,3.589.857" transform="translate(-41.874 -125.584)" fill="#d4719a"/>
        <path id="Trazado_892904" data-name="Trazado 892904" d="M182.324,410.659l-14.827-.322s-3.057,12.284-4.175,17.642h0s-.027.132-.067.326c-.044.218-.088.433-.125.622-.538,2.7-1.769,7.929-1.782,9.795-.022,3.229,3.549,26.707,3.549,26.707a5.655,5.655,0,0,0,6.082-.034s4.813-19.5,1.878-27.382c0,0,8.432-20.114,9.466-27.354" transform="translate(-42.004 -106.823)" fill="#ffc662"/>
        <path id="Trazado_892905" data-name="Trazado 892905" d="M188.941,374.352c-1.317-5.774-8.884-4.024-14.049-2.954-3.481.721-5.446,2.9-5.272,11.608.075,3.808-1.344,13.125.354,17.521,0,0,7.23,4.457,20.444-1.146a87.077,87.077,0,0,0-1.477-25.03" transform="translate(-44.031 -96.397)" fill="#8172a9"/>
        <path id="Trazado_892906" data-name="Trazado 892906" d="M143.385,369.117s-.033-3.424-.408-4.008-.922,1.12-1.075,2.369,1.484,1.638,1.484,1.638" transform="translate(-36.938 -95.018)" fill="#e9b79c"/>
        <path id="Trazado_892907" data-name="Trazado 892907" d="M150.092,385.95s10.364-.567,14.072-3.89,1.752-6.892,1.752-6.892-10.249,5.487-15.587,4.786-.237,6-.237,6" transform="translate(-38.501 -97.667)" fill="#e9b79c"/>
        <path id="Trazado_892908" data-name="Trazado 892908" d="M174.329,376.252c1.484,7.253-13.4,9.556-13.4,9.556l-3.005-7.4s14.96-9.229,16.407-2.157" transform="translate(-41.112 -97.255)" fill="#70649b"/>
        <path id="Trazado_892909" data-name="Trazado 892909" d="M145.2,373.858c-.161-.039-.508-1.008-.581-1.151a18.5,18.5,0,0,1-1.812-3.8,18.812,18.812,0,0,0-1.732-2.9,6.5,6.5,0,0,1-.683-1.742c-.135-.487-.189-1.075-.834-.97a1.709,1.709,0,0,1-.646-.083.427.427,0,0,0-.32.038.763.763,0,0,0-.111.108.842.842,0,0,1-.278.2.692.692,0,0,0-.2.1.337.337,0,0,0-.094.267,6.326,6.326,0,0,0,.072.735c.049.286.053.578.121.861.056.233.155.44.209.675a30.005,30.005,0,0,0,1.149,3.252,21.211,21.211,0,0,0,1.794,3c.451.561,3.95,1.411,3.95,1.411" transform="translate(-35.901 -94.55)" fill="#e9b79c"/>
        <path id="Trazado_892910" data-name="Trazado 892910" d="M146.748,384.3c-2.969-2.65-6.743-12.651-6.743-12.651l3.075.4,8.068,9.8s-1.428,5.1-4.4,2.454" transform="translate(-36.447 -96.75)" fill="#e9b79c"/>
        <path id="Trazado_892911" data-name="Trazado 892911" d="M186.183,371.381c0,.78-1.6,1.411-3.572,1.411s-3.572-.632-3.572-1.411,1.6-1.411,3.572-1.411,3.572.629,3.572,1.411" transform="translate(-46.609 -96.314)" fill="#e9b79c"/>
        <path id="Trazado_892912" data-name="Trazado 892912" d="M179.667,365.922s1.374,1.615-.606,4.012c0,0,4.651,2.77,7.127-.024a7.139,7.139,0,0,1-.749-5.008Z" transform="translate(-46.615 -94.995)" fill="#e9b79c"/>
        <path id="Trazado_892913" data-name="Trazado 892913" d="M176.671,350.527a22.347,22.347,0,0,0-1.226,6.041c-.192,4.582,1.119,7.184,6.652,5.677,5.434-1.48-2.772-12.532-5.426-11.718" transform="translate(-45.669 -91.241)" fill="#e9b79c"/>
        <path id="Trazado_892914" data-name="Trazado 892914" d="M180.244,366.819a13.431,13.431,0,0,0,2.7-.312,6.237,6.237,0,0,1,.841.338,6.67,6.67,0,0,1-3.54-.026" transform="translate(-46.923 -95.412)" fill="#c58063"/>
        <path id="Trazado_892915" data-name="Trazado 892915" d="M178.925,356.186c1.23.645,1.038,5.008,3.54,5.444,2.661.463,4.675-1.547,5.8-7.829.786-4.377-1.2-6.17-5.313-7.039-3.783-.8-7.359.112-7.764,2.364-.121.672.67,1.452,1.87,2.084s-.874,3.538,1.866,4.975" transform="translate(-45.604 -90.198)" fill="#53424d"/>
        <path id="Trazado_892916" data-name="Trazado 892916" d="M180.5,361.134s2.076-2.152,1.2-3.125c-1.249-1.385-2.64,1.8-2.64,1.8Z" transform="translate(-46.615 -93.109)" fill="#e9b79c"/>
        <path id="Trazado_892917" data-name="Trazado 892917" d="M169.043,411.4s13.5,2.763,21.946-1.492l-.576-2.272a40.288,40.288,0,0,1-21.155,1.155Z" transform="translate(-44.007 -106.118)" fill="#eaad49"/>
        <path id="Trazado_892918" data-name="Trazado 892918" d="M177.9,409.731h1.2l.283,3.8h-1.979Z" transform="translate(-46.184 -106.665)" fill="#ffc662"/>
        <path id="Trazado_892919" data-name="Trazado 892919" d="M189.409,409.037l.869-.288,1.489,3.485-1.786.592Z" transform="translate(-49.309 -106.409)" fill="#ffc662"/>
        <path id="Trazado_892920" data-name="Trazado 892920" d="M173.3,414.987c-.777,2.07-2.947,7.194-5.926,5.985-.4-.162-.225-.818.18-.654,2.473,1,4.437-3.767,5.092-5.511.152-.4.808-.229.654.181" transform="translate(-43.513 -107.926)" fill="#eaad49"/>
        <path id="Trazado_892921" data-name="Trazado 892921" d="M185.377,420.353a11.579,11.579,0,0,1-1.972,7.537c-.187.294.28.566.467.273a12.03,12.03,0,0,0,2.045-7.81c-.046-.34-.587-.344-.541,0" transform="translate(-47.734 -109.363)" fill="#eaad49"/>
        <path id="Trazado_892922" data-name="Trazado 892922" d="M206.436,413.611s-1.383,3.445-.479,3.8,1.036-1.349,1.675-3.513Z" transform="translate(-53.537 -107.675)" fill="#e9b79c"/>
        <rect id="Rectángulo_402398" data-name="Rectángulo 402398" width="5.119" height="115.642" transform="translate(45.141 211.092)" fill="#aacef2"/>
        <rect id="Rectángulo_402399" data-name="Rectángulo 402399" width="5.119" height="115.642" transform="translate(79.194 211.092)" fill="#aacef2"/>
        <rect id="Rectángulo_402400" data-name="Rectángulo 402400" width="38.262" height="3.973" transform="translate(45.141 219.605)" fill="#aacef2"/>
        <rect id="Rectángulo_402401" data-name="Rectángulo 402401" width="38.262" height="3.973" transform="translate(45.141 238.335)" fill="#aacef2"/>
        <rect id="Rectángulo_402402" data-name="Rectángulo 402402" width="38.262" height="3.973" transform="translate(45.141 257.064)" fill="#aacef2"/>
        <rect id="Rectángulo_402403" data-name="Rectángulo 402403" width="38.262" height="3.974" transform="translate(45.141 275.792)" fill="#aacef2"/>
        <rect id="Rectángulo_402404" data-name="Rectángulo 402404" width="38.262" height="3.973" transform="translate(45.141 292.82)" fill="#aacef2"/>
        <rect id="Rectángulo_402405" data-name="Rectángulo 402405" width="38.262" height="3.973" transform="translate(45.141 311.549)" fill="#aacef2"/>
        <path id="Trazado_892923" data-name="Trazado 892923" d="M232.215,299.884s12.874-8.272,2.439-18.843-56.093-7.022-38.917,21.691c7.653,12.795,9.816,9.622,9.816,9.622s-5.867-8.667-1.533-9.884,22.362,2.868,28.195-2.585" transform="translate(-49.961 -71.743)" fill="#aacef2"/>
        <path id="Trazado_892924" data-name="Trazado 892924" d="M220.522,294.867l-.033-.492a4.342,4.342,0,0,1,1.211-3.253,4.148,4.148,0,0,0,1.352-2.571c.011-.964-.585-1.613-1.774-1.647a3.372,3.372,0,0,0-1.915.564l-.439-1.195a4.943,4.943,0,0,1,2.708-.723c2.172.024,3.138,1.377,3.122,2.813a5.105,5.105,0,0,1-1.662,3.266,3.729,3.729,0,0,0-1.11,2.764l.014.49Zm-.446,2.639a1.117,1.117,0,0,1,1.148-1.177,1.182,1.182,0,1,1-1.148,1.177" transform="translate(-56.992 -74.337)" fill="#fff"/>
        <path id="Trazado_892925" data-name="Trazado 892925" d="M70.483,460.142l.077,6.884h-.1c-1.032,1.857-10.87,3.4-22.876,3.551s-21.872-1.172-22.949-3.008l-.106,0-.086-6.885Z" transform="translate(-6.363 -119.788)" fill="#f4a517"/>
        <path id="Trazado_892926" data-name="Trazado 892926" d="M72.543,460.571l.109,9.125c-2.326.329-5.033.588-7.992.767l-.11-9.8Z" transform="translate(-16.804 -119.9)" fill="#fed150"/>
        <path id="Trazado_892927" data-name="Trazado 892927" d="M61.836,462.939l.1,8.216c-.648.034-1.314.059-1.977.081l-.1-8.272Z" transform="translate(-15.583 -120.516)" fill="#fed150"/>
        <path id="Trazado_892928" data-name="Trazado 892928" d="M24.443,459.687c.018,1.712,10.347,2.982,23.056,2.831s23-1.661,22.983-3.378-10.349-2.987-23.059-2.835-22.995,1.664-22.979,3.383" transform="translate(-6.363 -118.786)" fill="#ffe984"/>
        <path id="Trazado_892929" data-name="Trazado 892929" d="M32,460.138c.021,1.307,7.832,2.26,17.465,2.147s17.42-1.258,17.407-2.557-7.835-2.268-17.463-2.148S31.989,458.837,32,460.138" transform="translate(-8.33 -119.119)" fill="#f3a43d"/>
        <path id="Trazado_892930" data-name="Trazado 892930" d="M34.356,460.521c.011,1.164,7.051,2.036,15.719,1.932s15.681-1.138,15.666-2.306-7.056-2.029-15.721-1.927-15.68,1.128-15.665,2.3" transform="translate(-8.944 -119.286)" fill="#fed150"/>
        <path id="Trazado_892931" data-name="Trazado 892931" d="M61.572,449.021l.081,6.883-.1,0c-1.034,1.852-10.883,3.411-22.887,3.557s-21.878-1.181-22.949-3.009l-.1.005-.083-6.886Z" transform="translate(-4.046 -116.893)" fill="#f4a517"/>
        <path id="Trazado_892932" data-name="Trazado 892932" d="M63.625,449.444l.11,9.125c-2.322.322-5.033.589-8,.77l-.115-9.8Z" transform="translate(-14.481 -117.003)" fill="#ffc91d"/>
        <path id="Trazado_892933" data-name="Trazado 892933" d="M52.916,451.809l.107,8.222c-.649.025-1.306.054-1.973.078l-.105-8.279Z" transform="translate(-13.262 -117.619)" fill="#ffc91d"/>
        <path id="Trazado_892934" data-name="Trazado 892934" d="M15.541,448.562c.025,1.714,10.337,2.982,23.045,2.831s23.005-1.664,22.986-3.376-10.347-2.992-23.061-2.838-22.987,1.664-22.97,3.383" transform="translate(-4.046 -115.89)" fill="#ffc91d"/>
        <path id="Trazado_892935" data-name="Trazado 892935" d="M23.085,449.015c.018,1.3,7.827,2.251,17.46,2.144s17.42-1.263,17.4-2.561-7.835-2.268-17.464-2.153-17.413,1.26-17.4,2.57" transform="translate(-6.01 -116.22)" fill="#f3a43d"/>
        <path id="Trazado_892936" data-name="Trazado 892936" d="M25.446,449.388c.008,1.172,7.045,2.039,15.714,1.94s15.685-1.135,15.674-2.315c-.02-1.16-7.054-2.024-15.723-1.919s-15.683,1.129-15.664,2.294" transform="translate(-6.624 -116.389)" fill="#fed150"/>
        <path id="Trazado_892937" data-name="Trazado 892937" d="M55.913,437.2l.077,6.884-.1,0c-1.026,1.858-10.867,3.408-22.876,3.546s-21.87-1.173-22.949-3H9.958l-.081-6.883Z" transform="translate(-2.571 -113.816)" fill="#f4a517"/>
        <path id="Trazado_892938" data-name="Trazado 892938" d="M57.972,437.627l.107,9.122c-2.322.331-5.031.592-7.988.766l-.118-9.793Z" transform="translate(-13.009 -113.927)" fill="#ffc91d"/>
        <path id="Trazado_892939" data-name="Trazado 892939" d="M47.262,439.991l.1,8.218c-.652.032-1.317.06-1.983.082l-.1-8.273Z" transform="translate(-11.789 -114.542)" fill="#ffc91d"/>
        <path id="Trazado_892940" data-name="Trazado 892940" d="M9.876,436.743c.025,1.715,10.345,2.985,23.053,2.833s23-1.661,22.983-3.38-10.349-2.986-23.059-2.834-23,1.659-22.977,3.38" transform="translate(-2.571 -112.814)" fill="#ffc91d"/>
        <path id="Trazado_892941" data-name="Trazado 892941" d="M17.427,437.2c.016,1.3,7.831,2.259,17.456,2.145s17.428-1.257,17.413-2.559-7.837-2.256-17.465-2.147-17.417,1.263-17.4,2.561" transform="translate(-4.537 -113.146)" fill="#f3a43d"/>
        <path id="Trazado_892942" data-name="Trazado 892942" d="M19.785,437.574c.017,1.172,7.051,2.036,15.713,1.935s15.686-1.141,15.671-2.3-7.054-2.03-15.717-1.928-15.684,1.118-15.667,2.3" transform="translate(-5.151 -113.313)" fill="#ffc91d"/>
        <path id="Trazado_892943" data-name="Trazado 892943" d="M59.191,420.1l1.036,6.807-.1.009c-.765,1.979-10.3,4.884-22.165,6.683s-21.835,1.867-23.147.2l-.1.018-1.036-6.808Z" transform="translate(-3.56 -109.365)" fill="#f4a517"/>
        <path id="Trazado_892944" data-name="Trazado 892944" d="M61.264,422.094l1.372,9.014c-2.261.646-4.908,1.288-7.809,1.875L53.352,423.3Z" transform="translate(-13.889 -109.883)" fill="#ffc91d"/>
        <path id="Trazado_892945" data-name="Trazado 892945" d="M50.986,426.2l1.237,8.134c-.637.118-1.283.234-1.946.345l-1.242-8.178Z" transform="translate(-12.765 -110.953)" fill="#ffc91d"/>
        <path id="Trazado_892946" data-name="Trazado 892946" d="M13.673,426.6c.26,1.7,10.659,1.52,23.219-.389s22.552-4.834,22.3-6.523-10.659-1.53-23.233.38C23.4,421.984,13.419,424.9,13.673,426.6" transform="translate(-3.558 -108.952)" fill="#ffc91d"/>
        <path id="Trazado_892947" data-name="Trazado 892947" d="M21.176,426.409c.195,1.278,8.067,1.146,17.585-.293s17.08-3.661,16.881-4.943-8.066-1.161-17.589.28-17.076,3.665-16.876,4.956" transform="translate(-5.512 -109.411)" fill="#f3a43d"/>
        <path id="Trazado_892948" data-name="Trazado 892948" d="M23.545,426.577c.178,1.167,7.263,1.05,15.833-.255s15.381-3.3,15.207-4.459-7.27-1.03-15.842.275-15.367,3.284-15.2,4.439" transform="translate(-6.129 -109.618)" fill="#ffc91d"/>
        <path id="Trazado_892949" data-name="Trazado 892949" d="M46.5,412.13l-1.317,6.762-.1-.021c-1.389,1.6-11.354,1.123-23.131-1.172S.771,412.1.1,410.1l-.1-.016,1.314-6.756Z" transform="translate(0 -104.997)" fill="#f4a517"/>
        <path id="Trazado_892950" data-name="Trazado 892950" d="M48.262,412.808l-1.747,8.96c-2.334-.155-5.047-.445-7.983-.87l1.872-9.619Z" transform="translate(-10.031 -107.068)" fill="#ffc91d"/>
        <path id="Trazado_892951" data-name="Trazado 892951" d="M37.41,412.928,35.833,421c-.638-.115-1.282-.221-1.942-.326l1.582-8.13Z" transform="translate(-8.823 -107.398)" fill="#ffc91d"/>
        <path id="Trazado_892952" data-name="Trazado 892952" d="M1.774,402.987c-.328,1.678,9.524,5.017,21.992,7.448s22.863,3.045,23.192,1.356-9.523-5.022-22-7.459C12.49,401.9,2.1,401.293,1.774,402.987" transform="translate(-0.46 -104.659)" fill="#ffc91d"/>
        <path id="Trazado_892953" data-name="Trazado 892953" d="M9.131,404.754c-.249,1.277,7.208,3.806,16.664,5.641S43.1,412.7,43.35,411.427s-7.2-3.809-16.663-5.653c-9.444-1.842-17.3-2.3-17.557-1.02" transform="translate(-2.375 -105.18)" fill="#f3a43d"/>
        <path id="Trazado_892954" data-name="Trazado 892954" d="M11.382,405.535c-.223,1.154,6.491,3.427,15,5.086s15.585,2.076,15.81.922c.222-1.139-6.494-3.411-15-5.071s-15.58-2.078-15.81-.936" transform="translate(-2.962 -105.405)" fill="#ffc91d"/>
        <path id="Trazado_892955" data-name="Trazado 892955" d="M201.537,217.75l-24.056-20.212,6.388-3.942H150.907l4.468,17.585,6.847-4.226,9.56,8.684-25.707,10.62,25.707,23.354h28.332l-24.768-19.9Z" transform="translate(-38.028 -50.399)" fill="#aacef2"/>
        <path id="Trazado_892956" data-name="Trazado 892956" d="M74.546,229.154s1.4-9.727-8.511-20.572c-10.638-11.645-10.9-50.543,15.886-50.7l-.42,71.518Z" transform="translate(-15.441 -41.103)" fill="#ffc662"/>
        <path id="Trazado_892957" data-name="Trazado 892957" d="M93.975,229.154s-1.4-9.727,8.511-20.572c10.638-11.645,10.9-50.543-15.886-50.7l.42,71.518Z" transform="translate(-22.544 -41.103)" fill="#ffc662"/>
        <path id="Trazado_892958" data-name="Trazado 892958" d="M88.034,229.356l-1.355-.757c6.283-11.219,8.36-36.767,3.644-44.816-.84-1.433-1.838-2.159-2.966-2.159a5.023,5.023,0,0,0-2.676.659,6.084,6.084,0,0,1,2.614,3.985c.709,3.3-.526,7.832-2.318,8.5a1.524,1.524,0,0,1-1.692-.543c-1.49-1.558-3.134-7.034-1.554-10.73.076-.174.161-.353.258-.532a8.113,8.113,0,0,0-1.633-.049,2.894,2.894,0,0,0-2.286,1.354c-5.559,8,5.2,44.12,5.308,44.484l-1.486.445c-.456-1.514-11.079-37.205-5.1-45.815a4.416,4.416,0,0,1,3.462-2.018,8.873,8.873,0,0,1,2.782.221,6.022,6.022,0,0,1,4.32-1.517c1.718,0,3.167.985,4.3,2.926,5.016,8.562,2.984,34.557-3.627,46.359m-4.512-45.934a5.343,5.343,0,0,0-.737,1.938c-.655,3.422.976,7.383,1.732,7.9.664-.513,1.925-3.843,1.231-6.8a4.264,4.264,0,0,0-2.226-3.044" transform="translate(-19.517 -46.878)" fill="#f0f8ff"/>
        <path id="Trazado_892959" data-name="Trazado 892959" d="M74.6,246.191H94.78S96.509,265.857,85.9,268.7,74.678,250.59,74.6,246.191" transform="translate(-19.419 -64.091)" fill="#aacef2"/>
        <path id="Trazado_892960" data-name="Trazado 892960" d="M94.731,251.942H73.512a.776.776,0,0,1,0-1.553H94.731a.776.776,0,1,1,0,1.553" transform="translate(-18.935 -65.183)" fill="#f0f8ff"/>
        <path id="Trazado_892961" data-name="Trazado 892961" d="M94.731,256.14H73.512a.776.776,0,0,1,0-1.553H94.731a.776.776,0,1,1,0,1.553" transform="translate(-18.935 -66.276)" fill="#f0f8ff"/>
        <path id="Trazado_892962" data-name="Trazado 892962" d="M94.731,260.338H73.512a.776.776,0,0,1,0-1.553H94.731a.776.776,0,1,1,0,1.553" transform="translate(-18.935 -67.369)" fill="#f0f8ff"/>
        <path id="Trazado_892963" data-name="Trazado 892963" d="M93.988,264.536H74.912a.776.776,0,1,1,0-1.553H93.988a.776.776,0,1,1,0,1.553" transform="translate(-19.299 -68.462)" fill="#f0f8ff"/>
        <path id="Trazado_892964" data-name="Trazado 892964" d="M93.541,268.734H76.4a.776.776,0,1,1,0-1.553H93.541a.776.776,0,0,1,0,1.553" transform="translate(-19.686 -69.555)" fill="#f0f8ff"/>
        <path id="Trazado_892965" data-name="Trazado 892965" d="M92.212,272.933H78.5a.776.776,0,0,1,0-1.553H92.212a.776.776,0,0,1,0,1.553" transform="translate(-20.233 -70.648)" fill="#f0f8ff"/>
        <rect id="Rectángulo_402406" data-name="Rectángulo 402406" width="1.741" height="8.983" transform="translate(47.345 108.789) rotate(-40.143)" fill="#ffc662"/>
        <rect id="Rectángulo_402407" data-name="Rectángulo 402407" width="1.742" height="8.982" transform="translate(63.071 105.908) rotate(-1.453)" fill="#ffc662"/>
        <rect id="Rectángulo_402408" data-name="Rectángulo 402408" width="1.741" height="8.981" transform="matrix(0.764, -0.645, 0.645, 0.764, 38.214, 117.347)" fill="#ffc662"/>
        <rect id="Rectángulo_402409" data-name="Rectángulo 402409" width="1.743" height="8.982" transform="translate(30.338 134.063) rotate(-81.013)" fill="#ffc662"/>
        <rect id="Rectángulo_402410" data-name="Rectángulo 402410" width="1.743" height="8.982" transform="translate(30.338 134.063) rotate(-81.013)" fill="#ffc662"/>
        <rect id="Rectángulo_402411" data-name="Rectángulo 402411" width="1.743" height="8.982" transform="translate(54.727 142.772) rotate(-81.008)" fill="#ffc662"/>
        <rect id="Rectángulo_402412" data-name="Rectángulo 402412" width="8.982" height="1.741" transform="translate(29.909 147.648) rotate(-3.361)" fill="#ffc662"/>
        <rect id="Rectángulo_402413" data-name="Rectángulo 402413" width="8.984" height="1.741" transform="translate(74.076 112.633) rotate(-49.843)" fill="#ffc662"/>
        <rect id="Rectángulo_402414" data-name="Rectángulo 402414" width="8.982" height="1.741" transform="translate(83.208 121.19) rotate(-49.843)" fill="#ffc662"/>
        <rect id="Rectángulo_402415" data-name="Rectángulo 402415" width="8.982" height="1.743" transform="translate(89.06 131.844) rotate(-8.983)" fill="#ffc662"/>
        <rect id="Rectángulo_402416" data-name="Rectángulo 402416" width="1.742" height="8.982" transform="matrix(0.058, -0.998, 0.998, 0.058, 89.566, 146.963)" fill="#ffc662"/>
        <path id="Trazado_892966" data-name="Trazado 892966" d="M138.241,67.689c-.249,0-.5,0-.756-.018-7.384-.347-15.476-5.371-19.242-11.946a13.885,13.885,0,0,1-1.431-3.42,23.037,23.037,0,0,1-3.192-.92c-8.153-2.991-14.534-10.267-17.509-19.962-2.784-9.069-.987-17.377,4.809-22.224a16.786,16.786,0,0,1,18.5-1.817,13.923,13.923,0,0,1,6.429,7.343,17.038,17.038,0,0,1,12.407,6.069l-.9.644a15.406,15.406,0,0,0-11.119-5.614,14.508,14.508,0,0,1,.669,5.386c-.288,3.729-2.153,6.434-5.119,7.423-5.167,1.713-8.609-.78-9.624-3.828-1.058-3.177.367-7.224,5.136-8.812a23.855,23.855,0,0,1,7.349-1.3,12.689,12.689,0,0,0-5.737-6.332,15.679,15.679,0,0,0-17.29,1.681C96.1,14.665,94.476,22.339,97.164,31.1c2.874,9.362,9.01,16.377,16.836,19.25a22.194,22.194,0,0,0,2.574.771,9.375,9.375,0,0,1,.664-5.073c2-4.7,7.54-7.508,9.761-8.064,3.542-.893,6.5.092,7.541,2.506,1.022,2.366.169,6.44-5.6,10.136a15.832,15.832,0,0,1-10.915,1.9,13.293,13.293,0,0,0,1.175,2.653c3.533,6.168,11.417,11.066,18.336,11.392,2.69.124,6.37-.39,8.611-3.567,2.806-3.978,2.238-6.415,1.267-7.758a4.783,4.783,0,0,0-4.671-1.888l-.321-1.056a5.913,5.913,0,0,1,5.887,2.3c.966,1.338,2.088,4.291-1.261,9.043-1.851,2.625-4.96,4.047-8.807,4.047m-20.5-16.328a14.907,14.907,0,0,0,10.608-1.666c4.854-3.107,6.1-6.642,5.183-8.765-.82-1.89-3.274-2.622-6.258-1.877-2.054.517-7.175,3.1-9.014,7.429a8.332,8.332,0,0,0-.518,4.88m7.179-35.584a22.937,22.937,0,0,0-7.262,1.263c-4.083,1.36-5.323,4.759-4.438,7.416.875,2.63,3.761,4.621,8.227,3.13,2.525-.84,4.117-3.2,4.369-6.459a13.544,13.544,0,0,0-.738-5.347c-.052,0-.106,0-.158,0" transform="translate(-24.686 -1.413)" fill="#8172a9"/>
        <path id="Trazado_892967" data-name="Trazado 892967" d="M180.737,17.294A17.294,17.294,0,1,1,163.444,0a17.294,17.294,0,0,1,17.294,17.294" transform="translate(-38.047)" fill="#b7dcf4"/>
        <path id="Trazado_892968" data-name="Trazado 892968" d="M167.842,23.835l-.041-.658a5.82,5.82,0,0,1,1.622-4.368c1.156-1.331,1.8-2.312,1.815-3.454.016-1.292-.785-2.164-2.382-2.209a4.508,4.508,0,0,0-2.57.757L165.7,12.3a6.647,6.647,0,0,1,3.639-.97c2.915.033,4.212,1.85,4.189,3.775-.018,1.724-1,2.956-2.232,4.387A5,5,0,0,0,169.8,23.2l.016.661Zm-.6,3.545a1.5,1.5,0,0,1,1.54-1.579,1.587,1.587,0,1,1-1.54,1.579" transform="translate(-43.135 -2.949)" fill="#fff"/>
        <path id="Trazado_892969" data-name="Trazado 892969" d="M181.868,74.187a17.294,17.294,0,1,1-17.294-17.294,17.293,17.293,0,0,1,17.294,17.294" transform="translate(-38.341 -14.811)" fill="#b7dcf4"/>
        <path id="Trazado_892970" data-name="Trazado 892970" d="M168.975,80.728l-.041-.658a5.818,5.818,0,0,1,1.622-4.368c1.156-1.331,1.8-2.312,1.815-3.454.016-1.292-.785-2.164-2.382-2.209a4.508,4.508,0,0,0-2.57.757l-.59-1.607a6.645,6.645,0,0,1,3.639-.97c2.915.033,4.212,1.849,4.189,3.775-.018,1.724-1,2.956-2.232,4.387a5,5,0,0,0-1.488,3.709l.016.661Zm-.6,3.545a1.5,1.5,0,0,1,1.54-1.579,1.587,1.587,0,1,1-1.54,1.579" transform="translate(-43.43 -17.759)" fill="#fff"/>
        <path id="Trazado_892971" data-name="Trazado 892971" d="M181.924,155.879a17.294,17.294,0,1,1-17.294-17.293,17.293,17.293,0,0,1,17.294,17.293" transform="translate(-38.356 -36.078)" fill="#b7dcf4"/>
        <path id="Trazado_892972" data-name="Trazado 892972" d="M169.031,162.418l-.041-.658a5.818,5.818,0,0,1,1.623-4.368c1.156-1.331,1.8-2.312,1.814-3.454.017-1.292-.784-2.164-2.382-2.209a4.507,4.507,0,0,0-2.57.757l-.59-1.607a6.645,6.645,0,0,1,3.639-.97c2.915.033,4.212,1.849,4.189,3.775-.018,1.724-1,2.956-2.232,4.387a5,5,0,0,0-1.488,3.709l.016.661Zm-.6,3.545a1.5,1.5,0,0,1,1.54-1.579,1.587,1.587,0,1,1-1.54,1.579" transform="translate(-43.445 -39.026)" fill="#fff"/>
        <path id="Trazado_892973" data-name="Trazado 892973" d="M134.685,137.043c1.827-2.638,2.2-5.49,1-7.625a3.3,3.3,0,0,0-3.012-1.929,2.955,2.955,0,0,0-2.541,2.108c-1.175,2.8.33,5.648,2.513,8.03a8.651,8.651,0,0,1-8.432,1.144c-4.245-1.72-6.028-6.631-4.891-13.476a52.9,52.9,0,0,1,6.891-19.082l.263-.472a16.152,16.152,0,0,0,7.84-.278c6.27-1.681,10.313-7.4,10.3-14.573-.016-6.92-4.043-14.959-13-17.316a38.726,38.726,0,0,0-16.049-.848l-.461,1.2a37.391,37.391,0,0,1,16.229.721c8.392,2.206,12.164,9.752,12.18,16.25.012,5.3-2.471,11.627-9.478,13.506a15.169,15.169,0,0,1-6.994.325,24.256,24.256,0,0,0,3.046-8.048c1.158-7.233-2.873-12.34-7.452-13.648-3.4-.974-6.411.338-7.67,3.336-1.717,4.089-.231,10.184,3.531,14.494a15.317,15.317,0,0,0,6.886,4.588c-.042.075-.085.153-.127.231a53.868,53.868,0,0,0-7.015,19.437c-1.744,10.508,3.311,13.767,5.565,14.681a9.818,9.818,0,0,0,9.611-1.377,35.359,35.359,0,0,0,6.9,5.089l.533-.966a35.666,35.666,0,0,1-6.633-4.892,6.517,6.517,0,0,0,.475-.605m-15.358-36.912c-3.443-3.944-4.883-9.679-3.346-13.341a4.613,4.613,0,0,1,4.491-2.97,6.826,6.826,0,0,1,1.859.268C126.444,85.262,130.054,89.9,129,96.5a23.9,23.9,0,0,1-3.064,7.946,14.144,14.144,0,0,1-6.606-4.319m14.111,36.724c-1.936-2.106-3.246-4.541-2.285-6.832.372-.888.936-1.4,1.587-1.433.026,0,.052,0,.078,0a2.392,2.392,0,0,1,1.909,1.371c.37.658,1.394,3.071-.949,6.454a5.476,5.476,0,0,1-.34.442" transform="translate(-29.744 -18.808)" fill="#8172a9"/>
      </g>
    </g>
  </g>
</svg>
