<svg xmlns="http://www.w3.org/2000/svg" width="85" height="85" viewBox="0 0 85 85">
  <g id="Grupo_1102063" data-name="Grupo 1102063" transform="translate(-705.27 -2536)">
    <g id="cohete" transform="translate(705.27 2536)">
      <circle id="Elipse_11647" data-name="Elipse 11647" cx="22.329" cy="22.329" r="22.329" transform="translate(39.523 0.818)" fill="#ffc729"/>
      <circle id="Elipse_11648" data-name="Elipse 11648" cx="16.375" cy="16.375" r="16.375" transform="translate(45.477 6.773)" fill="#fcd770"/>
      <g id="Grupo_1101574" data-name="Grupo 1101574" transform="translate(4.113 37.016)">
        <path id="Trazado_891294" data-name="Trazado 891294" d="M8.675,29.809a2.681,2.681,0,0,1,.809,1.933A2.742,2.742,0,1,1,6.742,29,2.681,2.681,0,0,1,8.675,29.809Z" transform="translate(-4 -27.629)" fill="#ff826e"/>
        <path id="Trazado_891295" data-name="Trazado 891295" d="M16.675,28.809a2.681,2.681,0,0,1,.809,1.933A2.742,2.742,0,1,1,14.742,28,2.681,2.681,0,0,1,16.675,28.809Z" transform="translate(-1.032 -28)" fill="#ff826e"/>
        <path id="Trazado_891296" data-name="Trazado 891296" d="M35.675,56.809a2.681,2.681,0,0,1,.809,1.933A2.742,2.742,0,1,1,33.742,56,2.681,2.681,0,0,1,35.675,56.809Z" transform="translate(6.016 -17.613)" fill="#ff826e"/>
        <path id="Trazado_891297" data-name="Trazado 891297" d="M36.675,48.809a2.681,2.681,0,0,1,.809,1.933A2.742,2.742,0,1,1,34.742,48,2.681,2.681,0,0,1,36.675,48.809Z" transform="translate(6.387 -20.581)" fill="#ff826e"/>
      </g>
      <path id="Trazado_891298" data-name="Trazado 891298" d="M18.452,55.484,15.71,66.452H14.339l-1.371-5.484-9.6,5.484H2V65.081l5.484-9.6L2,54.113V52.742L12.968,50Z" transform="translate(-0.629 17.177)" fill="#aab2bd"/>
      <path id="Trazado_891299" data-name="Trazado 891299" d="M28.694,49.41,25.363,59.4a8.207,8.207,0,0,1-6.183,5.456L17,65.3V54.592A43.012,43.012,0,0,0,28.694,49.41Z" transform="translate(4.935 16.959)" fill="#ff826e"/>
      <path id="Trazado_891300" data-name="Trazado 891300" d="M8.9,41.8,18.89,38.47a43.012,43.012,0,0,0-5.182,11.694H3l.439-2.18A8.207,8.207,0,0,1,8.9,41.8Z" transform="translate(-0.258 12.9)" fill="#ff826e"/>
      <path id="Trazado_891301" data-name="Trazado 891301" d="M31.291,58.339A43.013,43.013,0,0,1,19.6,63.521a1.347,1.347,0,0,1-.219.069l-3.894,1.042L10,59.148l1.042-3.894a1.347,1.347,0,0,1,.069-.219A42.991,42.991,0,0,1,39.86,25.34a20.586,20.586,0,0,0,1.782,2.879,16.027,16.027,0,0,0,1.056,1.33,5.978,5.978,0,0,0,.562.631q.576.617,1.193,1.193a5.981,5.981,0,0,0,.631.562,16.025,16.025,0,0,0,1.33,1.056,20.586,20.586,0,0,0,2.879,1.782,41.812,41.812,0,0,1-2.824,6.937,42.931,42.931,0,0,1-7.842,10.748,42.6,42.6,0,0,1-7.335,5.881Z" transform="translate(2.339 8.029)" fill="#e6e9ed"/>
      <circle id="Elipse_11649" data-name="Elipse 11649" cx="2.977" cy="2.977" r="2.977" transform="translate(21.659 57.386)" fill="#69d6f4"/>
      <circle id="Elipse_11650" data-name="Elipse 11650" cx="6.699" cy="6.699" r="6.699" transform="translate(29.102 42.5)" fill="#69d6f4"/>
      <path id="Trazado_891302" data-name="Trazado 891302" d="M37.607,24.452l-.137.027c-.055.014-.1.014-.151.027a40.212,40.212,0,0,0-5.539,1.33,23.937,23.937,0,0,0,1.782,2.879c.329.452.685.891,1.056,1.33.178.206.37.425.562.631q.576.617,1.193,1.193c.206.192.425.384.631.562.439.37.877.727,1.33,1.056a23.936,23.936,0,0,0,2.879,1.782,40.214,40.214,0,0,0,1.33-5.539c.014-.055.014-.1.027-.151l.027-.137A32.887,32.887,0,0,0,43.049,24,32.887,32.887,0,0,0,37.607,24.452Z" transform="translate(10.418 7.532)" fill="#ff826e"/>
      <path id="Trazado_891303" data-name="Trazado 891303" d="M47.484,28.194a2.745,2.745,0,0,1-2.742-2.742H42a5.478,5.478,0,0,0,4.113,5.289v2.937h2.742V30.935h4.113V25.452a5.489,5.489,0,0,0-5.484-5.484,2.745,2.745,0,0,1-2.742-2.742V14.484h2.742a2.745,2.745,0,0,1,2.742,2.742h2.742a5.478,5.478,0,0,0-4.113-5.289V9H46.113v2.742H42v5.484a5.489,5.489,0,0,0,5.484,5.484,2.745,2.745,0,0,1,2.742,2.742v2.742Z" transform="translate(14.21 1.968)"/>
      <path id="Trazado_891304" data-name="Trazado 891304" d="M53,17h2.742v2.742H53Z" transform="translate(18.29 4.935)"/>
      <path id="Trazado_891305" data-name="Trazado 891305" d="M37,17h2.742v2.742H37Z" transform="translate(12.355 4.935)"/>
      <path id="Trazado_891306" data-name="Trazado 891306" d="M68.645,22.823a17.823,17.823,0,1,0-35.061,4.541l2.653-.7A15.065,15.065,0,1,1,47.051,37.427l-.684,2.657A17.841,17.841,0,0,0,68.645,22.823Z" transform="translate(10.871 0.484)"/>
      <path id="Trazado_891307" data-name="Trazado 891307" d="M52.306,1A23.324,23.324,0,0,0,29.786,30.326l2.65-.707a20.536,20.536,0,1,1,14.752,14.61l-.679,2.657A23.309,23.309,0,1,0,52.306,1Z" transform="translate(9.387 -1)"/>
      <path id="Trazado_891308" data-name="Trazado 891308" d="M29.226,47.452A8.226,8.226,0,1,0,21,39.226,8.234,8.234,0,0,0,29.226,47.452Zm0-13.71a5.484,5.484,0,1,1-5.484,5.484A5.489,5.489,0,0,1,29.226,33.742Z" transform="translate(6.419 10.129)"/>
      <path id="Trazado_891309" data-name="Trazado 891309" d="M20.113,50.226A4.113,4.113,0,1,0,16,46.113,4.118,4.118,0,0,0,20.113,50.226Zm0-5.484a1.371,1.371,0,1,1-1.371,1.371A1.372,1.372,0,0,1,20.113,44.742Z" transform="translate(4.565 14.21)"/>
      <path id="Trazado_891310" data-name="Trazado 891310" d="M63.3,35.293l-27.43,27.43a4.046,4.046,0,0,0-1.762-.413,4.113,4.113,0,1,0,4.113,4.113,4.046,4.046,0,0,0-.413-1.762l27.43-27.43Zm-29.192,32.5a1.371,1.371,0,1,1,1.371-1.371A1.372,1.372,0,0,1,34.113,67.795Z" transform="translate(9.758 11.722)"/>
      <path id="Trazado_891311" data-name="Trazado 891311" d="M51.966,36.293,36.875,51.385a4.046,4.046,0,0,0-1.762-.413,4.113,4.113,0,1,0,4.113,4.113,4.046,4.046,0,0,0-.413-1.762L53.9,38.232ZM35.113,56.456a1.371,1.371,0,1,1,1.371-1.371A1.372,1.372,0,0,1,35.113,56.456Z" transform="translate(10.129 12.093)"/>
      <path id="Trazado_891312" data-name="Trazado 891312" d="M7.113,43.536a4.118,4.118,0,0,0,4.113-4.113,4.046,4.046,0,0,0-.413-1.762l27.43-27.43L36.3,8.293,8.875,35.723a4.046,4.046,0,0,0-1.762-.413,4.113,4.113,0,1,0,0,8.226Zm0-5.484a1.371,1.371,0,1,1-1.371,1.371A1.372,1.372,0,0,1,7.113,38.053Z" transform="translate(-0.258 1.705)"/>
      <path id="Trazado_891313" data-name="Trazado 891313" d="M31.966,16.293,16.875,31.385a4.046,4.046,0,0,0-1.762-.413,4.113,4.113,0,1,0,4.113,4.113,4.046,4.046,0,0,0-.413-1.762L33.9,18.232ZM15.113,36.456a1.371,1.371,0,1,1,1.371-1.371A1.372,1.372,0,0,1,15.113,36.456Z" transform="translate(2.71 4.673)"/>
      <path id="Trazado_891314" data-name="Trazado 891314" d="M42.938,54.291A44.193,44.193,0,0,0,55.347,30.178l.023-.137a34.586,34.586,0,0,0,.469-5.67V23H54.468a34.529,34.529,0,0,0-5.672.47l-.137.023a44.248,44.248,0,0,0-29.9,19.562L9.208,46.239a9.62,9.62,0,0,0-6.375,7.222l-.764,3.813H12.656l-.432,1.608L1,61.687V65.2l4.767,1.191L1,74.732v3.107H4.107l8.341-4.767,1.191,4.767h3.512l2.806-11.224,1.607-.432V76.769l3.813-.764A9.615,9.615,0,0,0,32.6,69.631l3.186-9.556a44.349,44.349,0,0,0,7.151-5.784ZM49.11,26.2l.137-.023a32.128,32.128,0,0,1,3.818-.4,31.777,31.777,0,0,1-.4,3.82l-.023.137c-.218,1.305-.514,2.586-.849,3.851a20.877,20.877,0,0,1-6.534-6.534c1.267-.335,2.546-.631,3.851-.849ZM26.486,37.839a41.447,41.447,0,0,1,16.066-9.992,23.6,23.6,0,0,0,8.437,8.437A41.446,41.446,0,0,1,41,52.352,41.742,41.742,0,0,1,22.351,63.13l-3.122.839L14.866,59.6l.84-3.12a41.777,41.777,0,0,1,10.78-18.645ZM5.52,54a6.877,6.877,0,0,1,4.554-5.16l6.592-2.2a44.388,44.388,0,0,0-3.227,7.89H5.415ZM15.4,73.557,14.23,68.9l-10,5.716,5.716-10L5.282,63.444l7.636-1.91L17.3,65.921ZM30,68.763a6.868,6.868,0,0,1-5.159,4.554l-.533.107V65.4a44.346,44.346,0,0,0,7.89-3.227Z" transform="translate(-1 7.161)"/>
    </g>
  </g>
</svg>
