<svg xmlns="http://www.w3.org/2000/svg" xmlns:xlink="http://www.w3.org/1999/xlink" width="74.655" height="74.655" viewBox="0 0 74.655 74.655">
  <defs>
    <clipPath id="clip-path">
      <rect id="Rectángulo_401710" data-name="Rectángulo 401710" width="43.131" height="48.864" fill="none"/>
    </clipPath>
  </defs>
  <g id="Grupo_1102062" data-name="Grupo 1102062" transform="translate(-215 -790.648)">
    <path id="Trazado_876475" data-name="Trazado 876475" d="M74.56,39.991c.062-.88.1-1.768.1-2.663A37.328,37.328,0,1,0,27.385,73.314Z" transform="translate(215 790.648)" fill="#c30b15"/>
    <path id="Trazado_876476" data-name="Trazado 876476" d="M176.29,106.543l-28.63-28.63L119.1,129.847l10.019,10.019a37.352,37.352,0,0,0,47.175-33.323Z" transform="translate(113.27 724.096)" fill="#85080e"/>
    <g id="Grupo_1101948" data-name="Grupo 1101948" transform="translate(203.456 11417.286)">
      <g id="Grupo_1101947" data-name="Grupo 1101947" transform="translate(26.748 -10616)">
        <g id="Grupo_1101580" data-name="Grupo 1101580" clip-path="url(#clip-path)">
          <path id="Trazado_890968" data-name="Trazado 890968" d="M0,14.488V12.96c.064-.058.17-.106.186-.175A5.473,5.473,0,0,1,4.434,8.525c2.741-.758,5.457-1.6,8.19-2.393Q22.734,3.207,32.848.3c3.4-.98,6.16.508,7.174,3.88.473,1.575.92,3.158,1.371,4.739.343,1.2.132,1.573-1.09,1.926q-11.294,3.263-22.589,6.525c-2.442.707-4.878,1.431-7.317,2.147l.024.149H41.388c1.529,0,1.742.218,1.742,1.773q0,10.74,0,21.48a8.43,8.43,0,0,1-.1,1.519,5.517,5.517,0,0,1-4.277,4.429H25.959a1.257,1.257,0,0,1-.609-.949c.12-.806.656-.973,1.377-.969,3.5.016,7,.01,10.5.007,2.637,0,3.971-1.344,3.974-4,0-3.819-.016-7.639.017-11.458.006-.715-.131-.967-.922-.965q-17.8.043-35.6,0c-.695,0-.907.139-.9.874.041,3.883.017,7.766.02,11.649,0,2.531,1.353,3.9,3.869,3.9,3.531.006,7.062.014,10.593-.009.737,0,1.233.214,1.4.971-.028.424-.345.666-.6.95H6.108c-3.231-1.105-4.322-3.424-4.246-6.744.143-6.253-.043-12.512.076-18.766C2,20.2.8,17.408,0,14.488M28.658,3.5c2.319,2.226,4.493,4.308,6.66,6.4a.656.656,0,0,0,.694.171c.968-.285,1.93-.593,2.9-.859.345-.094.488-.235.378-.592-.476-1.537-.862-3.108-1.443-4.6a3.148,3.148,0,0,0-3.926-1.979c-1.708.421-3.392.939-5.266,1.464M11.939,17.038c-2.311-2.211-4.511-4.313-6.706-6.42-.293-.281-.581-.147-.879-.045a3.418,3.418,0,0,0-2.2,4.205c.354,1.378.817,2.728,1.176,4.1.146.56.369.555.855.409,2.512-.757,5.037-1.468,7.757-2.253M7.989,21.6c-1.175,0-2.351.021-3.526-.01-.491-.013-.663.127-.656.638.026,1.938.023,3.878,0,5.816,0,.45.12.609.585.6,1.079-.031,2.16-.027,3.24,0a.8.8,0,0,0,.811-.487q1.682-2.977,3.418-5.923c.279-.474.268-.653-.347-.638-1.175.029-2.351.008-3.526.009m24.819,7.03c2.707,0,5.251-.007,7.795.007.429,0,.624-.085.618-.573q-.037-2.911,0-5.823c.007-.512-.181-.661-.668-.649-1.049.026-2.1.017-3.148,0a.748.748,0,0,0-.773.4c-1.234,2.171-2.492,4.329-3.824,6.633M26.3,12.873C24,10.664,21.8,8.565,19.615,6.46a.578.578,0,0,0-.6-.16c-1.529.45-3.056.906-4.693,1.392,2.271,2.183,4.466,4.288,6.654,6.4a.679.679,0,0,0,.778.106c1.449-.438,2.906-.848,4.553-1.325M21.5,5.595c2.282,2.2,4.475,4.3,6.659,6.419a.572.572,0,0,0,.6.16c1.531-.447,3.059-.9,4.7-1.391C31.193,8.593,29,6.485,26.817,4.367c-.259-.251-.493-.176-.779-.091-1.452.432-2.908.846-4.54,1.318M7.139,9.765c2.3,2.214,4.476,4.3,6.645,6.4a.6.6,0,0,0,.677.153c1.5-.458,3-.888,4.494-1.324-.012-.09,0-.133-.022-.15q-3.208-3.126-6.416-6.253a.72.72,0,0,0-.778-.186c-1.485.436-2.968.877-4.6,1.36M25.328,28.627a12.516,12.516,0,0,1,2.222.02c2.348.458,3.728-.495,4.62-2.668a39.2,39.2,0,0,1,2.474-4.38c-1.749,0-3.324.006-4.9,0-.352,0-.485.219-.632.475-1.227,2.135-2.461,4.265-3.785,6.558M19.7,21.6c-1.741,0-3.291,0-4.841,0a.641.641,0,0,0-.623.341c-1.256,2.184-2.516,4.366-3.858,6.691,1.74,0,3.314-.005,4.887,0a.621.621,0,0,0,.595-.373c1.242-2.166,2.493-4.327,3.84-6.66m7.477,0c-1.712,0-3.234,0-4.756,0-.261,0-.509,0-.662.27-1.277,2.213-2.556,4.425-3.906,6.761,1.739,0,3.319-.005,4.9,0a.62.62,0,0,0,.591-.383c1.242-2.168,2.494-4.329,3.835-6.651" transform="translate(0 0)" fill="#07090c"/>
          <path id="Trazado_890969" data-name="Trazado 890969" d="M113.595,246.725h-.954c-.068-.348-.469-.548-.42-.948.085-.562.375-.948.972-.951s.865.423,1,.95c-.026.425-.347.665-.6.949" transform="translate(-90.689 -197.86)" fill="#131314"/>
          <path id="Trazado_890970" data-name="Trazado 890970" d="M119.4,250.725c.25-.284.571-.524.6-.949h1.847a1.258,1.258,0,0,0,.609.949Z" transform="translate(-96.498 -201.861)" fill="#fbfafb"/>
          <path id="Trazado_890971" data-name="Trazado 890971" d="M101.946,249.776c-.049.4.353.6.42.948H99.5c.25-.284.567-.526.6-.95l1.848,0" transform="translate(-80.415 -201.859)" fill="#fbfafb"/>
          <path id="Trazado_890972" data-name="Trazado 890972" d="M37.534,176.518l-1.848,0c-.168-.757-.665-.975-1.4-.971-3.531.022-7.062.014-10.593.009-2.516,0-3.867-1.369-3.869-3.9,0-3.883.021-7.766-.02-11.649-.008-.735.2-.876.9-.874q17.8.034,35.6,0c.791,0,.928.25.922.965-.033,3.819-.012,7.639-.017,11.458,0,2.66-1.337,4-3.974,4-3.5,0-7,.01-10.5-.007-.72,0-1.257.163-1.377.969H39.506c-.135-.527-.4-.953-1-.95s-.887.388-.972.951m-2.745-9.257c0,1.429-.011,2.857,0,4.286.015,1.506.622,1.872,1.9,1.139q3.744-2.15,7.473-4.328c1.282-.748,1.281-1.452,0-2.2q-3.73-2.176-7.473-4.328c-1.266-.727-1.879-.353-1.893,1.148-.014,1.428,0,2.857,0,4.286" transform="translate(-16.003 -128.601)" fill="#c5cdd7"/>
          <path id="Trazado_890973" data-name="Trazado 890973" d="M149.39,11.569c1.874-.526,3.558-1.044,5.266-1.465a3.148,3.148,0,0,1,3.926,1.979c.581,1.5.967,3.067,1.443,4.6.11.356-.033.5-.378.592-.973.266-1.935.574-2.9.859a.656.656,0,0,1-.694-.171c-2.167-2.089-4.341-4.172-6.66-6.4" transform="translate(-120.732 -8.067)" fill="#3795d3"/>
          <path id="Trazado_890974" data-name="Trazado 890974" d="M20.481,61.057c-2.719.785-5.245,1.5-7.757,2.253-.486.147-.709.151-.855-.409-.359-1.377-.821-2.727-1.176-4.1a3.419,3.419,0,0,1,2.2-4.206c.3-.1.586-.236.879.045,2.195,2.108,4.4,4.209,6.706,6.42" transform="translate(-8.541 -44.019)" fill="#3896d4"/>
          <path id="Trazado_890975" data-name="Trazado 890975" d="M24.026,112.533c1.175,0,2.351.021,3.526-.009.614-.015.626.163.347.638q-1.735,2.946-3.418,5.923a.8.8,0,0,1-.811.487c-1.079-.026-2.16-.03-3.239,0-.465.013-.59-.145-.585-.6.021-1.939.025-3.878,0-5.816-.007-.511.166-.651.657-.638,1.174.031,2.35.01,3.526.01" transform="translate(-16.037 -90.937)" fill="#3795d3"/>
          <path id="Trazado_890976" data-name="Trazado 890976" d="M171.029,119.572c1.332-2.3,2.589-4.462,3.824-6.633a.748.748,0,0,1,.772-.4c1.049.015,2.1.024,3.148,0,.486-.012.674.137.668.649q-.036,2.911,0,5.823c.006.488-.19.576-.618.573-2.544-.015-5.087-.007-7.795-.007" transform="translate(-138.22 -90.946)" fill="#3795d3"/>
          <path id="Trazado_890977" data-name="Trazado 890977" d="M86.62,39.292c-1.647.476-3.1.887-4.553,1.325a.679.679,0,0,1-.778-.106c-2.187-2.112-4.382-4.217-6.654-6.4,1.637-.486,3.164-.942,4.693-1.392a.578.578,0,0,1,.6.16c2.188,2.106,4.383,4.2,6.688,6.414" transform="translate(-60.318 -26.419)" fill="#3795d3"/>
          <path id="Trazado_890978" data-name="Trazado 890978" d="M112.07,23.27c1.632-.472,3.089-.886,4.54-1.318.286-.085.52-.161.779.091,2.183,2.118,4.376,4.225,6.647,6.415-1.646.488-3.174.944-4.7,1.391a.572.572,0,0,1-.6-.16c-2.184-2.116-4.376-4.221-6.659-6.419" transform="translate(-90.571 -17.676)" fill="#3796d4"/>
          <path id="Trazado_890979" data-name="Trazado 890979" d="M37.216,45c1.632-.483,3.115-.924,4.6-1.36a.72.72,0,0,1,.778.186q3.2,3.136,6.416,6.253c.018.017.01.06.022.15-1.493.437-3,.867-4.494,1.324a.6.6,0,0,1-.677-.153c-2.169-2.1-4.344-4.187-6.645-6.4" transform="translate(-30.077 -35.232)" fill="#3796d4"/>
          <path id="Trazado_890980" data-name="Trazado 890980" d="M132.034,119.6c1.325-2.293,2.558-4.424,3.785-6.558.147-.256.28-.477.632-.475,1.575.01,3.149,0,4.9,0a39.2,39.2,0,0,0-2.474,4.38c-.892,2.174-2.272,3.126-4.62,2.668a12.515,12.515,0,0,0-2.222-.02" transform="translate(-106.706 -90.97)" fill="#3795d2"/>
          <path id="Trazado_890981" data-name="Trazado 890981" d="M63.413,112.567c-1.347,2.333-2.6,4.495-3.84,6.66a.621.621,0,0,1-.594.373c-1.574-.01-3.148,0-4.887,0,1.342-2.326,2.6-4.507,3.858-6.691a.641.641,0,0,1,.623-.342c1.55.007,3.1,0,4.84,0" transform="translate(-43.715 -90.97)" fill="#3795d2"/>
          <path id="Trazado_890982" data-name="Trazado 890982" d="M102.379,112.572c-1.341,2.322-2.593,4.484-3.835,6.651a.62.62,0,0,1-.591.383c-1.579-.01-3.159,0-4.9,0,1.35-2.337,2.629-4.549,3.906-6.761.153-.265.4-.27.662-.27,1.522,0,3.045,0,4.756,0" transform="translate(-75.204 -90.976)" fill="#3795d2"/>
          <path id="Trazado_890983" data-name="Trazado 890983" d="M97.909,177.124c0-1.429-.011-2.857,0-4.286.015-1.5.627-1.875,1.894-1.148q3.745,2.149,7.473,4.328c1.286.75,1.286,1.454,0,2.2q-3.73,2.175-7.473,4.328c-1.276.733-1.883.366-1.9-1.139-.014-1.428,0-2.857,0-4.286m1.974,3.139,5.444-3.14c-1.669-.965-3.257-1.875-4.837-2.8-.408-.24-.617-.255-.613.316.015,1.8.005,3.608.005,5.625" transform="translate(-79.124 -138.464)" fill="#130e0f"/>
          <path id="Trazado_890984" data-name="Trazado 890984" d="M108.2,192.2c0-2.017.009-3.821-.005-5.625,0-.571.2-.556.613-.316,1.579.927,3.168,1.837,4.837,2.8L108.2,192.2" transform="translate(-87.436 -150.4)" fill="#e14354"/>
        </g>
      </g>
    </g>
  </g>
</svg>
